<?xml version="1.0" encoding="UTF-8" standalone="no"?>
<!DOCTYPE svg PUBLIC "-//W3C//DTD SVG 1.1//EN"
 "http://www.w3.org/Graphics/SVG/1.1/DTD/svg11.dtd">
<!-- Generated by graphviz version 2.41.20170728.1545 (20170728.1545)
 -->
<!-- Title: g Pages: 1 -->
<svg width="885pt" height="692pt"
 viewBox="0.00 0.00 884.65 692.00" xmlns="http://www.w3.org/2000/svg" xmlns:xlink="http://www.w3.org/1999/xlink">
<g id="graph0" class="graph" transform="scale(1 1) rotate(0) translate(4 688)">
<title>g</title>
<polygon fill="white" stroke="transparent" points="-4,4 -4,-688 880.65,-688 880.65,4 -4,4"/>
<!-- g1 -->
<g id="node1" class="node">
<title>g1</title>
<ellipse fill="none" stroke="black" cx="357" cy="-378" rx="32.49" ry="18"/>
<text text-anchor="middle" x="357" y="-374.3" font-family="Times,serif" font-size="14.00">go/ast</text>
</g>
<!-- g2 -->
<g id="node2" class="node">
<title>g2</title>
<ellipse fill="none" stroke="black" cx="357" cy="-306" rx="46.59" ry="18"/>
<text text-anchor="middle" x="357" y="-302.3" font-family="Times,serif" font-size="14.00">go/format</text>
</g>
<!-- g1&#45;&gt;g2 -->
<g id="edge1" class="edge">
<title>g1&#45;&gt;g2</title>
<path fill="none" stroke="black" d="M351.12,-360.05C350.3,-352.35 350.06,-343.03 350.39,-334.36"/>
<polygon fill="black" stroke="black" points="353.89,-334.49 351.09,-324.28 346.91,-334.01 353.89,-334.49"/>
</g>
<!-- g3 -->
<g id="node3" class="node">
<title>g3</title>
<ellipse fill="none" stroke="black" cx="590" cy="-90" rx="50.09" ry="18"/>
<text text-anchor="middle" x="590" y="-86.3" font-family="Times,serif" font-size="14.00">go/scanner</text>
</g>
<!-- g1&#45;&gt;g3 -->
<g id="edge2" class="edge">
<title>g1&#45;&gt;g3</title>
<path fill="none" stroke="black" d="M381.19,-365.79C431.61,-340.87 546.76,-275.43 589,-180 597.57,-160.63 597.25,-136.48 595.1,-118.23"/>
<polygon fill="black" stroke="black" points="598.56,-117.65 593.68,-108.24 591.63,-118.64 598.56,-117.65"/>
</g>
<!-- g4 -->
<g id="node4" class="node">
<title>g4</title>
<ellipse fill="none" stroke="black" cx="503" cy="-18" rx="42.49" ry="18"/>
<text text-anchor="middle" x="503" y="-14.3" font-family="Times,serif" font-size="14.00">go/token</text>
</g>
<!-- g1&#45;&gt;g4 -->
<g id="edge3" class="edge">
<title>g1&#45;&gt;g4</title>
<path fill="none" stroke="black" d="M385.67,-369.32C414.1,-360.9 458.18,-345.66 492,-324 591.95,-260 618.62,-222.73 649,-108 653.1,-92.53 658.18,-85.1 649,-72 627.82,-41.78 587.57,-28.73 554.68,-23.12"/>
<polygon fill="black" stroke="black" points="555.15,-19.65 544.74,-21.61 554.1,-26.57 555.15,-19.65"/>
</g>
<!-- g2&#45;&gt;g1 -->
<g id="edge14" class="edge">
<title>g2&#45;&gt;g1</title>
<path fill="none" stroke="black" d="M362.91,-324.28C363.71,-332.03 363.94,-341.36 363.59,-350.01"/>
<polygon fill="black" stroke="black" points="360.09,-349.83 362.88,-360.05 367.08,-350.33 360.09,-349.83"/>
</g>
<!-- g2&#45;&gt;g4 -->
<g id="edge17" class="edge">
<title>g2&#45;&gt;g4</title>
<path fill="none" stroke="black" d="M342.25,-288.87C325.88,-270.99 298.65,-241.35 275,-216 259.99,-199.91 249.13,-200.45 241,-180 235.09,-165.13 232.46,-157.53 241,-144 287.62,-70.11 391.23,-38.97 453.28,-26.57"/>
<polygon fill="black" stroke="black" points="454.08,-29.98 463.24,-24.67 452.76,-23.11 454.08,-29.98"/>
</g>
<!-- g8 -->
<g id="node8" class="node">
<title>g8</title>
<ellipse fill="none" stroke="black" cx="149" cy="-162" rx="44.69" ry="18"/>
<text text-anchor="middle" x="149" y="-158.3" font-family="Times,serif" font-size="14.00">go/parser</text>
</g>
<!-- g2&#45;&gt;g8 -->
<g id="edge15" class="edge">
<title>g2&#45;&gt;g8</title>
<path fill="none" stroke="black" d="M337.05,-289.71C313.17,-271.57 271.79,-240.7 235,-216 217.8,-204.45 198.16,-192.28 182,-182.51"/>
<polygon fill="black" stroke="black" points="183.79,-179.5 173.41,-177.35 180.18,-185.5 183.79,-179.5"/>
</g>
<!-- g10 -->
<g id="node10" class="node">
<title>g10</title>
<ellipse fill="none" stroke="black" cx="436" cy="-234" rx="46.59" ry="18"/>
<text text-anchor="middle" x="436" y="-230.3" font-family="Times,serif" font-size="14.00">go/printer</text>
</g>
<!-- g2&#45;&gt;g10 -->
<g id="edge16" class="edge">
<title>g2&#45;&gt;g10</title>
<path fill="none" stroke="black" d="M374.93,-289.12C385.43,-279.81 398.87,-267.9 410.47,-257.62"/>
<polygon fill="black" stroke="black" points="412.98,-260.07 418.14,-250.82 408.34,-254.83 412.98,-260.07"/>
</g>
<!-- g3&#45;&gt;g4 -->
<g id="edge30" class="edge">
<title>g3&#45;&gt;g4</title>
<path fill="none" stroke="black" d="M570.26,-73.12C558.41,-63.59 543.18,-51.33 530.21,-40.89"/>
<polygon fill="black" stroke="black" points="532.05,-37.88 522.07,-34.34 527.66,-43.34 532.05,-37.88"/>
</g>
<!-- g4&#45;&gt;g10 -->
<g id="edge31" class="edge">
<title>g4&#45;&gt;g10</title>
<path fill="none" stroke="black" d="M515.01,-35.26C530.42,-65.72 550.47,-132.57 525,-180 515.89,-196.97 498.69,-209.42 481.75,-217.97"/>
<polygon fill="black" stroke="black" points="479.99,-214.93 472.41,-222.33 482.95,-221.27 479.99,-214.93"/>
</g>
<!-- g5 -->
<g id="node5" class="node">
<title>g5</title>
<ellipse fill="none" stroke="black" cx="286" cy="-522" rx="40.89" ry="18"/>
<text text-anchor="middle" x="286" y="-518.3" font-family="Times,serif" font-size="14.00">go/build</text>
</g>
<!-- g5&#45;&gt;g1 -->
<g id="edge4" class="edge">
<title>g5&#45;&gt;g1</title>
<path fill="none" stroke="black" d="M302.56,-505.16C312.07,-495.27 323.56,-481.82 331,-468 341.47,-448.57 348.18,-424.43 352.16,-406.19"/>
<polygon fill="black" stroke="black" points="355.62,-406.71 354.19,-396.22 348.76,-405.32 355.62,-406.71"/>
</g>
<!-- g5&#45;&gt;g4 -->
<g id="edge8" class="edge">
<title>g5&#45;&gt;g4</title>
<path fill="none" stroke="black" d="M244.92,-520.73C199.2,-518.33 125.5,-507.92 78,-468 44.8,-440.1 38,-422.37 38,-379 38,-379 38,-379 38,-161 38,-109.27 67.67,-96.93 113,-72 170.08,-40.61 358.44,-26.58 450.89,-21.46"/>
<polygon fill="black" stroke="black" points="451.35,-24.94 461.14,-20.91 450.97,-17.95 451.35,-24.94"/>
</g>
<!-- g6 -->
<g id="node6" class="node">
<title>g6</title>
<ellipse fill="none" stroke="black" cx="286" cy="-450" rx="36" ry="18"/>
<text text-anchor="middle" x="286" y="-446.3" font-family="Times,serif" font-size="14.00">go/doc</text>
</g>
<!-- g5&#45;&gt;g6 -->
<g id="edge5" class="edge">
<title>g5&#45;&gt;g6</title>
<path fill="none" stroke="black" d="M280.12,-504.05C279.29,-496.23 279.05,-486.75 279.41,-477.98"/>
<polygon fill="black" stroke="black" points="282.92,-478.01 280.14,-467.79 275.93,-477.51 282.92,-478.01"/>
</g>
<!-- g7 -->
<g id="node7" class="node">
<title>g7</title>
<ellipse fill="none" stroke="black" cx="174" cy="-450" rx="58.49" ry="18"/>
<text text-anchor="middle" x="174" y="-446.3" font-family="Times,serif" font-size="14.00">go/foo/libbar</text>
</g>
<!-- g5&#45;&gt;g7 -->
<g id="edge6" class="edge">
<title>g5&#45;&gt;g7</title>
<path fill="none" stroke="black" d="M263.34,-506.83C247.19,-496.74 225.22,-483.01 207.11,-471.69"/>
<polygon fill="black" stroke="black" points="208.91,-468.69 198.57,-466.36 205.2,-474.63 208.91,-468.69"/>
</g>
<!-- g5&#45;&gt;g8 -->
<g id="edge7" class="edge">
<title>g5&#45;&gt;g8</title>
<path fill="none" stroke="black" d="M245.19,-519.33C205.07,-515.55 144.52,-503.79 107,-468 76.69,-439.09 76,-420.89 76,-379 76,-379 76,-379 76,-305 76,-259.48 106.04,-213.92 127.58,-187.11"/>
<polygon fill="black" stroke="black" points="130.54,-189.02 134.23,-179.09 125.15,-184.56 130.54,-189.02"/>
</g>
<!-- g6&#45;&gt;g1 -->
<g id="edge10" class="edge">
<title>g6&#45;&gt;g1</title>
<path fill="none" stroke="black" d="M301.76,-433.46C311.36,-424 323.78,-411.75 334.41,-401.27"/>
<polygon fill="black" stroke="black" points="337.11,-403.52 341.77,-394.01 332.2,-398.54 337.11,-403.52"/>
</g>
<!-- g6&#45;&gt;g4 -->
<g id="edge13" class="edge">
<title>g6&#45;&gt;g4</title>
<path fill="none" stroke="black" d="M265.12,-434.97C205.67,-393.16 43.03,-264.81 95,-144 113.38,-101.26 129.27,-92.59 171,-72 219.4,-48.12 371.15,-31.08 451.66,-23.46"/>
<polygon fill="black" stroke="black" points="452.42,-26.91 462.05,-22.49 451.77,-19.94 452.42,-26.91"/>
</g>
<!-- g6&#45;&gt;g5 -->
<g id="edge11" class="edge">
<title>g6&#45;&gt;g5</title>
<path fill="none" stroke="black" d="M291.86,-467.79C292.7,-475.59 292.94,-485.07 292.6,-493.85"/>
<polygon fill="black" stroke="black" points="289.09,-493.83 291.88,-504.05 296.07,-494.33 289.09,-493.83"/>
</g>
<!-- g6&#45;&gt;g8 -->
<g id="edge12" class="edge">
<title>g6&#45;&gt;g8</title>
<path fill="none" stroke="black" d="M278.04,-432.39C255.21,-384.72 189.33,-247.19 161.57,-189.24"/>
<polygon fill="black" stroke="black" points="164.63,-187.53 157.15,-180.02 158.32,-190.55 164.63,-187.53"/>
</g>
<!-- g8&#45;&gt;g1 -->
<g id="edge21" class="edge">
<title>g8&#45;&gt;g1</title>
<path fill="none" stroke="black" d="M163.81,-179.28C190.66,-208.67 249.39,-272.32 301,-324 311.4,-334.42 323.2,-345.66 333.28,-355.1"/>
<polygon fill="black" stroke="black" points="330.9,-357.67 340.6,-361.93 335.67,-352.55 330.9,-357.67"/>
</g>
<!-- g8&#45;&gt;g3 -->
<g id="edge22" class="edge">
<title>g8&#45;&gt;g3</title>
<path fill="none" stroke="black" d="M188.8,-153.36C204.98,-150.33 223.86,-146.88 241,-144 344.18,-126.64 464.97,-108.86 533.98,-98.94"/>
<polygon fill="black" stroke="black" points="534.79,-102.36 544.19,-97.48 533.8,-95.43 534.79,-102.36"/>
</g>
<!-- g8&#45;&gt;g4 -->
<g id="edge23" class="edge">
<title>g8&#45;&gt;g4</title>
<path fill="none" stroke="black" d="M155.43,-143.84C164.09,-123.27 181.51,-89.41 208,-72 247.35,-46.13 378.51,-30.35 451.99,-23.32"/>
<polygon fill="black" stroke="black" points="452.33,-26.81 461.96,-22.39 451.68,-19.84 452.33,-26.81"/>
</g>
<!-- g9 -->
<g id="node9" class="node">
<title>g9</title>
<ellipse fill="none" stroke="black" cx="824" cy="-378" rx="52.79" ry="18"/>
<text text-anchor="middle" x="824" y="-374.3" font-family="Times,serif" font-size="14.00">go/constant</text>
</g>
<!-- g9&#45;&gt;g4 -->
<g id="edge9" class="edge">
<title>g9&#45;&gt;g4</title>
<path fill="none" stroke="black" d="M819.75,-359.63C813.61,-332.99 803,-280.36 803,-235 803,-235 803,-235 803,-161 803,-116.47 792.45,-98.94 757,-72 725.59,-48.14 618.28,-32.12 553.62,-24.38"/>
<polygon fill="black" stroke="black" points="553.97,-20.9 543.63,-23.21 553.15,-27.85 553.97,-20.9"/>
</g>
<!-- g10&#45;&gt;g1 -->
<g id="edge24" class="edge">
<title>g10&#45;&gt;g1</title>
<path fill="none" stroke="black" d="M434.42,-252.14C432.07,-270.9 426.38,-301.32 413,-324 405.63,-336.5 394.46,-347.91 384.04,-356.92"/>
<polygon fill="black" stroke="black" points="381.77,-354.25 376.28,-363.32 386.22,-359.65 381.77,-354.25"/>
</g>
<!-- g10&#45;&gt;g3 -->
<g id="edge28" class="edge">
<title>g10&#45;&gt;g3</title>
<path fill="none" stroke="black" d="M478.37,-226.13C507.31,-219.26 544.36,-205.83 567,-180 581.91,-162.99 587.36,-137.53 589.25,-118.19"/>
<polygon fill="black" stroke="black" points="592.75,-118.4 589.98,-108.17 585.77,-117.89 592.75,-118.4"/>
</g>
<!-- g10&#45;&gt;g4 -->
<g id="edge29" class="edge">
<title>g10&#45;&gt;g4</title>
<path fill="none" stroke="black" d="M463.27,-219.14C479.07,-210.57 497.46,-197.76 507,-180 529.75,-137.64 516.2,-79.81 507.47,-46.23"/>
<polygon fill="black" stroke="black" points="510.77,-45.02 504.85,-36.23 503.99,-46.79 510.77,-45.02"/>
</g>
<!-- g10&#45;&gt;g8 -->
<g id="edge26" class="edge">
<title>g10&#45;&gt;g8</title>
<path fill="none" stroke="black" d="M397.59,-223.63C345.43,-210.91 252.26,-188.19 195.99,-174.46"/>
<polygon fill="black" stroke="black" points="196.82,-171.06 186.27,-172.09 195.16,-177.86 196.82,-171.06"/>
</g>
<!-- g13 -->
<g id="node13" class="node">
<title>g13</title>
<ellipse fill="none" stroke="black" cx="299" cy="-162" rx="49.29" ry="18"/>
<text text-anchor="middle" x="299" y="-158.3" font-family="Times,serif" font-size="14.00">go/format)</text>
</g>
<!-- g10&#45;&gt;g13 -->
<g id="edge25" class="edge">
<title>g10&#45;&gt;g13</title>
<path fill="none" stroke="black" d="M408.93,-219.17C387.96,-208.45 358.69,-193.5 335.62,-181.71"/>
<polygon fill="black" stroke="black" points="336.98,-178.47 326.48,-177.04 333.79,-184.71 336.98,-178.47"/>
</g>
<!-- g14 -->
<g id="node14" class="node">
<title>g14</title>
<ellipse fill="none" stroke="black" cx="437" cy="-162" rx="70.39" ry="18"/>
<text text-anchor="middle" x="437" y="-158.3" font-family="Times,serif" font-size="14.00">go/printer/nodes</text>
</g>
<!-- g10&#45;&gt;g14 -->
<g id="edge27" class="edge">
<title>g10&#45;&gt;g14</title>
<path fill="none" stroke="black" d="M436.25,-215.7C436.36,-207.98 436.49,-198.71 436.61,-190.11"/>
<polygon fill="black" stroke="black" points="440.11,-190.15 436.76,-180.1 433.11,-190.05 440.11,-190.15"/>
</g>
<!-- g11 -->
<g id="node11" class="node">
<title>g11</title>
<ellipse fill="none" stroke="black" cx="538" cy="-666" rx="53.89" ry="18"/>
<text text-anchor="middle" x="538" y="-662.3" font-family="Times,serif" font-size="14.00">go/importer</text>
</g>
<!-- g11&#45;&gt;g4 -->
<g id="edge19" class="edge">
<title>g11&#45;&gt;g4</title>
<path fill="none" stroke="black" d="M484.94,-662.28C349.21,-653.89 0,-622.62 0,-523 0,-523 0,-523 0,-161 0,-114.96 14.38,-97.05 53,-72 117.52,-30.14 346.01,-21.31 450.34,-19.47"/>
<polygon fill="black" stroke="black" points="450.7,-22.96 460.64,-19.3 450.59,-15.96 450.7,-22.96"/>
</g>
<!-- g11&#45;&gt;g5 -->
<g id="edge18" class="edge">
<title>g11&#45;&gt;g5</title>
<path fill="none" stroke="black" d="M511.51,-650.07C465.23,-624 369.79,-570.21 319.18,-541.7"/>
<polygon fill="black" stroke="black" points="320.71,-538.54 310.28,-536.68 317.27,-544.64 320.71,-538.54"/>
</g>
<!-- g12 -->
<g id="node12" class="node">
<title>g12</title>
<ellipse fill="none" stroke="black" cx="589" cy="-594" rx="41.69" ry="18"/>
<text text-anchor="middle" x="589" y="-590.3" font-family="Times,serif" font-size="14.00">go/types</text>
</g>
<!-- g11&#45;&gt;g12 -->
<g id="edge20" class="edge">
<title>g11&#45;&gt;g12</title>
<path fill="none" stroke="black" d="M544.47,-648.05C549.92,-639.29 557.63,-628.45 565.18,-618.86"/>
<polygon fill="black" stroke="black" points="568.12,-620.8 571.71,-610.83 562.69,-616.38 568.12,-620.8"/>
</g>
<!-- g12&#45;&gt;g1 -->
<g id="edge32" class="edge">
<title>g12&#45;&gt;g1</title>
<path fill="none" stroke="black" d="M571.94,-577.26C531.09,-539.58 427.56,-444.09 380.69,-400.86"/>
<polygon fill="black" stroke="black" points="382.88,-398.11 373.15,-393.9 378.13,-403.25 382.88,-398.11"/>
</g>
<!-- g12&#45;&gt;g3 -->
<g id="edge37" class="edge">
<title>g12&#45;&gt;g3</title>
<path fill="none" stroke="black" d="M612.2,-578.97C646.05,-556.53 705,-509.1 705,-451 705,-451 705,-451 705,-233 705,-180.21 656.41,-136.05 622.4,-111.61"/>
<polygon fill="black" stroke="black" points="624.31,-108.67 614.11,-105.83 620.31,-114.42 624.31,-108.67"/>
</g>
<!-- g12&#45;&gt;g4 -->
<g id="edge38" class="edge">
<title>g12&#45;&gt;g4</title>
<path fill="none" stroke="black" d="M619.06,-581.34C663.88,-561.76 743,-517.73 743,-451 743,-451 743,-451 743,-161 743,-73.44 623.22,-38.73 552.9,-25.89"/>
<polygon fill="black" stroke="black" points="553.35,-22.42 542.9,-24.15 552.15,-29.31 553.35,-22.42"/>
</g>
<!-- g12&#45;&gt;g5 -->
<g id="edge33" class="edge">
<title>g12&#45;&gt;g5</title>
<path fill="none" stroke="black" d="M553.49,-584.57C541.86,-581.82 528.88,-578.77 517,-576 452.6,-561.01 378.02,-543.95 331.42,-533.33"/>
<polygon fill="black" stroke="black" points="332.16,-529.91 321.63,-531.1 330.6,-536.74 332.16,-529.91"/>
</g>
<!-- g12&#45;&gt;g8 -->
<g id="edge36" class="edge">
<title>g12&#45;&gt;g8</title>
<path fill="none" stroke="black" d="M604.78,-577.1C627.58,-552.37 667,-502.19 667,-451 667,-451 667,-451 667,-377 667,-364.11 311.73,-225.8 189.63,-178.64"/>
<polygon fill="black" stroke="black" points="190.83,-175.35 180.24,-175.02 188.31,-181.88 190.83,-175.35"/>
</g>
<!-- g12&#45;&gt;g9 -->
<g id="edge34" class="edge">
<title>g12&#45;&gt;g9</title>
<path fill="none" stroke="black" d="M629.76,-589.8C667.12,-584.84 721.8,-572.21 757,-540 796.17,-504.16 813.11,-441.88 819.9,-406.19"/>
<polygon fill="black" stroke="black" points="823.41,-406.49 821.7,-396.03 816.51,-405.27 823.41,-406.49"/>
</g>
<!-- g12&#45;&gt;g11 -->
<g id="edge35" class="edge">
<title>g12&#45;&gt;g11</title>
<path fill="none" stroke="black" d="M582.42,-612.12C577.03,-620.76 569.48,-631.38 562.06,-640.84"/>
<polygon fill="black" stroke="black" points="559.21,-638.79 555.63,-648.76 564.65,-643.2 559.21,-638.79"/>
</g>
</g>
</svg>
