<?xml version="1.0" standalone="no"?>
<!DOCTYPE svg PUBLIC "-//W3C//DTD SVG 20010904//EN"
 "http://www.w3.org/TR/2001/REC-SVG-20010904/DTD/svg10.dtd">
<svg version="1.0" xmlns="http://www.w3.org/2000/svg"
 width="291.000000pt" height="199.000000pt" viewBox="0 0 291.000000 199.000000"
 preserveAspectRatio="xMidYMid meet">
<metadata>
Created by potrace 1.15, written by Peter Selinger 2001-2017
</metadata>
<g transform="translate(0.000000,199.000000) scale(0.100000,-0.100000)"
fill="#000000" stroke="none">
<path d="M161 1901 c-23 -33 -41 -64 -41 -68 0 -4 63 -48 140 -98 77 -49 148
-95 157 -101 14 -9 10 -19 -31 -75 -230 -314 -230 -751 0 -1075 l43 -61 -42
-23 c-77 -43 -277 -175 -277 -183 0 -4 18 -35 41 -68 26 -38 46 -59 54 -55 20
7 253 164 297 199 l36 29 44 -30 c72 -50 161 -90 246 -111 102 -26 284 -29
376 -5 68 17 156 53 156 63 0 3 -15 16 -33 28 -17 13 -44 32 -59 44 -26 21
-27 21 -75 4 -60 -21 -232 -31 -300 -17 -66 15 -148 46 -197 76 l-39 24 242
162 c134 89 244 160 246 158 2 -2 15 -32 30 -68 99 -236 306 -420 544 -481
110 -29 300 -28 396 1 83 26 172 69 236 115 l47 33 163 -109 c90 -60 167 -109
171 -109 8 0 88 115 88 127 0 4 -69 53 -154 107 l-153 100 38 57 c54 78 103
189 131 290 31 118 32 346 0 464 -25 93 -95 240 -146 307 -20 26 -36 50 -36
55 0 4 70 53 155 108 85 55 155 104 155 108 0 21 -83 128 -95 123 -8 -3 -87
-54 -178 -114 l-163 -110 -60 39 c-70 46 -185 93 -268 108 -83 15 -229 13
-301 -3 -235 -56 -459 -245 -563 -475 -14 -31 -26 -58 -28 -59 -4 -5 -157 98
-170 115 -7 8 -15 34 -19 58 -3 25 -10 47 -14 49 -4 3 -29 -1 -55 -9 l-48 -14
-90 60 -90 61 28 17 c57 35 160 70 237 80 97 13 204 0 302 -38 l70 -27 63 40
c34 22 59 43 55 47 -5 4 -40 23 -80 43 -97 49 -216 76 -331 76 -86 0 -230 -23
-242 -39 -3 -4 -28 -16 -56 -28 -29 -12 -78 -38 -109 -58 -32 -20 -61 -32 -64
-27 -7 10 -305 210 -326 218 -8 4 -29 -17 -54 -55z m1893 -181 c80 -20 203
-78 189 -90 -4 -3 -180 -120 -389 -259 l-382 -253 -100 67 -101 67 20 52 c65
166 217 324 375 391 114 48 262 57 388 25z m-1345 -276 l159 -106 32 -130 c19
-74 29 -133 24 -138 -5 -4 -100 -34 -212 -66 -111 -32 -207 -61 -212 -64 -9
-5 19 -140 29 -140 3 0 103 29 221 64 188 55 216 61 222 47 4 -9 7 26 7 77 1
77 24 238 36 251 2 1 23 -10 47 -27 l43 -30 0 -155 0 -155 -282 -185 -282
-186 -37 42 c-46 54 -117 202 -140 292 -26 100 -24 284 4 386 25 92 74 193
133 272 23 31 44 57 46 57 2 0 75 -48 162 -106z m1702 39 c205 -276 209 -657
10 -930 l-31 -43 -290 193 c-159 105 -290 194 -290 197 0 3 129 43 288 89 158
46 297 87 309 92 21 8 21 9 6 71 -9 35 -19 66 -23 71 -3 4 -175 -42 -381 -102
-225 -66 -378 -106 -383 -100 -5 5 -8 10 -5 12 13 12 745 497 749 497 3 0 22
-21 41 -47z m-1010 -648 c6 -25 12 -45 14 -45 1 0 45 13 98 29 l95 29 325
-217 c179 -119 326 -220 327 -226 3 -16 -84 -65 -163 -92 -314 -107 -660 64
-800 395 -15 35 -27 71 -27 80 0 13 100 91 117 92 2 0 8 -20 14 -45z"/>
</g>
</svg>
