<?xml version="1.0" encoding="UTF-8" standalone="no"?>
<!DOCTYPE svg PUBLIC "-//W3C//DTD SVG 1.1//EN"
 "http://www.w3.org/Graphics/SVG/1.1/DTD/svg11.dtd">
<!-- Generated by graphviz version 2.43.0 (0)
 -->
<!-- Title: G Pages: 1 -->
<svg width="134pt" height="238pt"
 viewBox="0.00 0.00 134.00 238.00" xmlns="http://www.w3.org/2000/svg" xmlns:xlink="http://www.w3.org/1999/xlink">
<g id="graph0" class="graph" transform="scale(1 1) rotate(0) translate(4 234)">
<title>G</title>
<polygon fill="white" stroke="transparent" points="-4,4 -4,-234 130,-234 130,4 -4,4"/>
<!-- g0 -->
<g id="node1" class="node">
<title>g0</title>
<ellipse fill="none" stroke="black" cx="63" cy="-162" rx="34.38" ry="18"/>
<text text-anchor="middle" x="63" y="-157.8" font-family="Times,serif" font-size="14.00">Config</text>
</g>
<!-- g1 -->
<g id="node2" class="node">
<title>g1</title>
<ellipse fill="none" stroke="black" cx="27" cy="-90" rx="27" ry="18"/>
<text text-anchor="middle" x="27" y="-85.8" font-family="Times,serif" font-size="14.00">X</text>
</g>
<!-- g0&#45;&gt;g1 -->
<g id="edge2" class="edge">
<title>g0&#45;&gt;g1</title>
<path fill="none" stroke="black" d="M54.47,-144.41C50.16,-136.04 44.85,-125.71 40.05,-116.37"/>
<polygon fill="black" stroke="black" points="43.16,-114.76 35.47,-107.47 36.93,-117.96 43.16,-114.76"/>
</g>
<!-- g2 -->
<g id="node3" class="node">
<title>g2</title>
<ellipse fill="none" stroke="black" cx="99" cy="-90" rx="27" ry="18"/>
<text text-anchor="middle" x="99" y="-85.8" font-family="Times,serif" font-size="14.00">Y</text>
</g>
<!-- g0&#45;&gt;g2 -->
<g id="edge3" class="edge">
<title>g0&#45;&gt;g2</title>
<path fill="none" stroke="black" d="M71.53,-144.41C75.84,-136.04 81.15,-125.71 85.95,-116.37"/>
<polygon fill="black" stroke="black" points="89.07,-117.96 90.53,-107.47 82.84,-114.76 89.07,-117.96"/>
</g>
<!-- g3 -->
<g id="node4" class="node">
<title>g3</title>
<ellipse fill="none" stroke="black" cx="63" cy="-18" rx="27" ry="18"/>
<text text-anchor="middle" x="63" y="-13.8" font-family="Times,serif" font-size="14.00">Z</text>
</g>
<!-- g1&#45;&gt;g3 -->
<g id="edge4" class="edge">
<title>g1&#45;&gt;g3</title>
<path fill="none" stroke="black" d="M35.35,-72.76C39.71,-64.28 45.15,-53.71 50.04,-44.2"/>
<polygon fill="black" stroke="black" points="53.23,-45.64 54.7,-35.15 47.01,-42.44 53.23,-45.64"/>
</g>
<!-- g2&#45;&gt;g3 -->
<g id="edge5" class="edge">
<title>g2&#45;&gt;g3</title>
<path fill="none" stroke="black" d="M90.65,-72.76C86.29,-64.28 80.85,-53.71 75.96,-44.2"/>
<polygon fill="black" stroke="black" points="78.99,-42.44 71.3,-35.15 72.77,-45.64 78.99,-42.44"/>
</g>
<!-- g4 -->
<g id="node5" class="node">
<title>g4</title>
<text text-anchor="middle" x="63" y="-218.8" font-family="Times,serif" font-size="14.00">filename</text>
</g>
<!-- g4&#45;&gt;g0 -->
<g id="edge1" class="edge">
<title>g4&#45;&gt;g0</title>
<path fill="none" stroke="black" d="M63,-215.69C63,-209.49 63,-199.59 63,-190.05"/>
<polygon fill="black" stroke="black" points="66.5,-190.02 63,-180.02 59.5,-190.02 66.5,-190.02"/>
</g>
</g>
</svg>
