<?xml version="1.0" encoding="UTF-8" standalone="no"?>
<!DOCTYPE svg PUBLIC "-//W3C//DTD SVG 1.1//EN"
 "http://www.w3.org/Graphics/SVG/1.1/DTD/svg11.dtd">
<!-- Generated by graphviz version 2.39.20150211.0545 (20150211.0545)
 -->
<!-- Title: deps Pages: 1 -->
<svg width="65pt" height="196pt"
 viewBox="0.00 0.00 65.19 196.00" xmlns="http://www.w3.org/2000/svg" xmlns:xlink="http://www.w3.org/1999/xlink">
<g id="graph0" class="graph" transform="scale(1 1) rotate(0) translate(4 192)">
<title>deps</title>
<polygon fill="white" stroke="transparent" points="-4,4 -4,-192 61.1949,-192 61.1949,4 -4,4"/>
<!-- a -->
<g id="node1" class="node"><title>a</title>
<ellipse fill="none" stroke="black" cx="28.5975" cy="-166" rx="18" ry="18"/>
<ellipse fill="none" stroke="black" cx="28.5975" cy="-166" rx="22" ry="22"/>
<text text-anchor="middle" x="28.5975" y="-162.3" font-family="Times,serif" font-size="14.00">a</text>
</g>
<!-- b -->
<g id="node2" class="node"><title>b</title>
<ellipse fill="none" stroke="black" cx="28.5975" cy="-90" rx="27" ry="18"/>
<text text-anchor="middle" x="28.5975" y="-86.3" font-family="Times,serif" font-size="14.00">a/b</text>
</g>
<!-- a&#45;&gt;b -->
<g id="edge1" class="edge"><title>a&#45;&gt;b</title>
<path fill="none" stroke="black" d="M28.5975,-143.609C28.5975,-135.727 28.5975,-126.762 28.5975,-118.448"/>
<polygon fill="black" stroke="black" points="32.0976,-118.397 28.5975,-108.397 25.0976,-118.398 32.0976,-118.397"/>
</g>
<!-- c -->
<g id="node3" class="node"><title>c</title>
<ellipse fill="none" stroke="black" cx="28.5975" cy="-18" rx="28.6953" ry="18"/>
<text text-anchor="middle" x="28.5975" y="-14.3" font-family="Times,serif" font-size="14.00">a/b/c</text>
</g>
<!-- b&#45;&gt;c -->
<g id="edge2" class="edge"><title>b&#45;&gt;c</title>
<path fill="none" stroke="black" d="M28.5975,-71.8314C28.5975,-64.131 28.5975,-54.9743 28.5975,-46.4166"/>
<polygon fill="black" stroke="black" points="32.0976,-46.4132 28.5975,-36.4133 25.0976,-46.4133 32.0976,-46.4132"/>
</g>
</g>
</svg>
