<?xml version="1.0" encoding="UTF-8" standalone="no"?>
<!DOCTYPE svg PUBLIC "-//W3C//DTD SVG 1.1//EN"
 "http://www.w3.org/Graphics/SVG/1.1/DTD/svg11.dtd">
<!-- Generated by graphviz version 2.39.20150211.0545 (20150211.0545)
 -->
<!-- Title: g Pages: 1 -->
<svg width="3046pt" height="908pt"
 viewBox="0.00 0.00 3045.72 908.00" xmlns="http://www.w3.org/2000/svg" xmlns:xlink="http://www.w3.org/1999/xlink">
<g id="graph0" class="graph" transform="scale(1 1) rotate(0) translate(4 904)">
<title>g</title>
<polygon fill="white" stroke="transparent" points="-4,4 -4,-904 3041.72,-904 3041.72,4 -4,4"/>
<!-- g0 -->
<g id="node1" class="node"><title>g0</title>
<ellipse fill="none" stroke="black" cx="282.636" cy="-738" rx="70.6878" ry="18"/>
<text text-anchor="middle" x="282.636" y="-734.3" font-family="Times,serif" font-size="14.00">wsgiref.handlers</text>
</g>
<!-- g1 -->
<g id="node2" class="node"><title>g1</title>
<ellipse fill="none" stroke="black" cx="144.636" cy="-666" rx="68.4888" ry="18"/>
<text text-anchor="middle" x="144.636" y="-662.3" font-family="Times,serif" font-size="14.00">wsgiref.headers</text>
</g>
<!-- g0&#45;&gt;g1 -->
<g id="edge1" class="edge"><title>g0&#45;&gt;g1</title>
<path fill="none" stroke="black" d="M251.322,-721.662C231.649,-711.398 206.079,-698.057 184.905,-687.01"/>
<polygon fill="black" stroke="black" points="186.311,-683.796 175.827,-682.273 183.073,-690.002 186.311,-683.796"/>
</g>
<!-- g2 -->
<g id="node3" class="node"><title>g2</title>
<ellipse fill="none" stroke="black" cx="283.636" cy="-666" rx="52.7911" ry="18"/>
<text text-anchor="middle" x="283.636" y="-662.3" font-family="Times,serif" font-size="14.00">wsgiref.util</text>
</g>
<!-- g0&#45;&gt;g2 -->
<g id="edge2" class="edge"><title>g0&#45;&gt;g2</title>
<path fill="none" stroke="black" d="M282.888,-719.831C282.995,-712.131 283.123,-702.974 283.241,-694.417"/>
<polygon fill="black" stroke="black" points="286.741,-694.461 283.38,-684.413 279.742,-694.364 286.741,-694.461"/>
</g>
<!-- g3 -->
<g id="node4" class="node"><title>g3</title>
<ellipse fill="none" stroke="black" cx="978.636" cy="-378" rx="27" ry="18"/>
<text text-anchor="middle" x="978.636" y="-374.3" font-family="Times,serif" font-size="14.00">uu</text>
</g>
<!-- g4 -->
<g id="node5" class="node"><title>g4</title>
<ellipse fill="none" stroke="black" cx="860.636" cy="-306" rx="172.769" ry="18"/>
<text text-anchor="middle" x="860.636" y="-302.3" font-family="Times,serif" font-size="14.00">lib&#45;dynload.binascii.cpython&#45;35m&#45;darwin.so</text>
</g>
<!-- g3&#45;&gt;g4 -->
<g id="edge3" class="edge"><title>g3&#45;&gt;g4</title>
<path fill="none" stroke="black" d="M958.619,-365.786C942.238,-355.791 918.599,-341.367 898.644,-329.191"/>
<polygon fill="black" stroke="black" points="900.422,-326.176 890.063,-323.955 896.776,-332.152 900.422,-326.176"/>
</g>
<!-- g5 -->
<g id="node6" class="node"><title>g5</title>
<ellipse fill="none" stroke="black" cx="1084.64" cy="-90" rx="31.3957" ry="18"/>
<text text-anchor="middle" x="1084.64" y="-86.3" font-family="Times,serif" font-size="14.00">struct</text>
</g>
<!-- g6 -->
<g id="node7" class="node"><title>g6</title>
<ellipse fill="none" stroke="black" cx="1084.64" cy="-18" rx="168.97" ry="18"/>
<text text-anchor="middle" x="1084.64" y="-14.3" font-family="Times,serif" font-size="14.00">lib&#45;dynload._struct.cpython&#45;35m&#45;darwin.so</text>
</g>
<!-- g5&#45;&gt;g6 -->
<g id="edge4" class="edge"><title>g5&#45;&gt;g6</title>
<path fill="none" stroke="black" d="M1084.64,-71.8314C1084.64,-64.131 1084.64,-54.9743 1084.64,-46.4166"/>
<polygon fill="black" stroke="black" points="1088.14,-46.4132 1084.64,-36.4133 1081.14,-46.4133 1088.14,-46.4132"/>
</g>
<!-- g7 -->
<g id="node8" class="node"><title>g7</title>
<ellipse fill="none" stroke="black" cx="1698.64" cy="-234" rx="37.0935" ry="18"/>
<text text-anchor="middle" x="1698.64" y="-230.3" font-family="Times,serif" font-size="14.00">hashlib</text>
</g>
<!-- g8 -->
<g id="node9" class="node"><title>g8</title>
<ellipse fill="none" stroke="black" cx="1762.64" cy="-162" rx="175.469" ry="18"/>
<text text-anchor="middle" x="1762.64" y="-158.3" font-family="Times,serif" font-size="14.00">lib&#45;dynload._hashlib.cpython&#45;35m&#45;darwin.so</text>
</g>
<!-- g7&#45;&gt;g8 -->
<g id="edge5" class="edge"><title>g7&#45;&gt;g8</title>
<path fill="none" stroke="black" d="M1713.48,-217.301C1721.29,-208.516 1731.03,-197.554 1739.78,-187.712"/>
<polygon fill="black" stroke="black" points="1742.5,-189.922 1746.53,-180.122 1737.27,-185.271 1742.5,-189.922"/>
</g>
<!-- g9 -->
<g id="node10" class="node"><title>g9</title>
<ellipse fill="none" stroke="black" cx="801.636" cy="-522" rx="44.6926" ry="18"/>
<text text-anchor="middle" x="801.636" y="-518.3" font-family="Times,serif" font-size="14.00">threading</text>
</g>
<!-- g10 -->
<g id="node11" class="node"><title>g10</title>
<ellipse fill="none" stroke="black" cx="743.636" cy="-450" rx="45.4919" ry="18"/>
<text text-anchor="middle" x="743.636" y="-446.3" font-family="Times,serif" font-size="14.00">traceback</text>
</g>
<!-- g9&#45;&gt;g10 -->
<g id="edge6" class="edge"><title>g9&#45;&gt;g10</title>
<path fill="none" stroke="black" d="M787.596,-504.571C780.472,-495.727 771.689,-484.824 763.851,-475.094"/>
<polygon fill="black" stroke="black" points="766.546,-472.861 757.547,-467.269 761.095,-477.252 766.546,-472.861"/>
</g>
<!-- g32 -->
<g id="node33" class="node"><title>g32</title>
<ellipse fill="none" stroke="black" cx="714.636" cy="-378" rx="44.6926" ry="18"/>
<text text-anchor="middle" x="714.636" y="-374.3" font-family="Times,serif" font-size="14.00">linecache</text>
</g>
<!-- g10&#45;&gt;g32 -->
<g id="edge70" class="edge"><title>g10&#45;&gt;g32</title>
<path fill="none" stroke="black" d="M736.468,-432.202C733.191,-424.068 729.237,-414.25 725.599,-405.218"/>
<polygon fill="black" stroke="black" points="728.805,-403.811 721.823,-395.843 722.312,-406.426 728.805,-403.811"/>
</g>
<!-- g11 -->
<g id="node12" class="node"><title>g11</title>
<ellipse fill="none" stroke="black" cx="859.636" cy="-666" rx="27.0966" ry="18"/>
<text text-anchor="middle" x="859.636" y="-662.3" font-family="Times,serif" font-size="14.00">html</text>
</g>
<!-- g12 -->
<g id="node13" class="node"><title>g12</title>
<ellipse fill="none" stroke="black" cx="768.636" cy="-594" rx="55.7903" ry="18"/>
<text text-anchor="middle" x="768.636" y="-590.3" font-family="Times,serif" font-size="14.00">html.entities</text>
</g>
<!-- g11&#45;&gt;g12 -->
<g id="edge7" class="edge"><title>g11&#45;&gt;g12</title>
<path fill="none" stroke="black" d="M842.09,-652.118C829.656,-642.28 812.675,-628.844 798.171,-617.369"/>
<polygon fill="black" stroke="black" points="799.985,-614.341 789.972,-610.881 795.642,-619.83 799.985,-614.341"/>
</g>
<!-- g13 -->
<g id="node14" class="node"><title>g13</title>
<ellipse fill="none" stroke="black" cx="759.636" cy="-234" rx="77.9862" ry="18"/>
<text text-anchor="middle" x="759.636" y="-230.3" font-family="Times,serif" font-size="14.00">email.quoprimime</text>
</g>
<!-- g14 -->
<g id="node15" class="node"><title>g14</title>
<ellipse fill="none" stroke="black" cx="759.636" cy="-162" rx="31.3957" ry="18"/>
<text text-anchor="middle" x="759.636" y="-158.3" font-family="Times,serif" font-size="14.00">string</text>
</g>
<!-- g13&#45;&gt;g14 -->
<g id="edge8" class="edge"><title>g13&#45;&gt;g14</title>
<path fill="none" stroke="black" d="M759.636,-215.831C759.636,-208.131 759.636,-198.974 759.636,-190.417"/>
<polygon fill="black" stroke="black" points="763.136,-190.413 759.636,-180.413 756.136,-190.413 763.136,-190.413"/>
</g>
<!-- g15 -->
<g id="node16" class="node"><title>g15</title>
<ellipse fill="none" stroke="black" cx="1417.64" cy="-594" rx="55.4913" ry="18"/>
<text text-anchor="middle" x="1417.64" y="-590.3" font-family="Times,serif" font-size="14.00">email.parser</text>
</g>
<!-- g16 -->
<g id="node17" class="node"><title>g16</title>
<ellipse fill="none" stroke="black" cx="1417.64" cy="-522" rx="70.6878" ry="18"/>
<text text-anchor="middle" x="1417.64" y="-518.3" font-family="Times,serif" font-size="14.00">email.feedparser</text>
</g>
<!-- g15&#45;&gt;g16 -->
<g id="edge9" class="edge"><title>g15&#45;&gt;g16</title>
<path fill="none" stroke="black" d="M1417.64,-575.831C1417.64,-568.131 1417.64,-558.974 1417.64,-550.417"/>
<polygon fill="black" stroke="black" points="1421.14,-550.413 1417.64,-540.413 1414.14,-550.413 1421.14,-550.413"/>
</g>
<!-- g37 -->
<g id="node38" class="node"><title>g37</title>
<ellipse fill="none" stroke="black" cx="1417.64" cy="-450" rx="64.189" ry="18"/>
<text text-anchor="middle" x="1417.64" y="-446.3" font-family="Times,serif" font-size="14.00">email.message</text>
</g>
<!-- g16&#45;&gt;g37 -->
<g id="edge27" class="edge"><title>g16&#45;&gt;g37</title>
<path fill="none" stroke="black" d="M1417.64,-503.831C1417.64,-496.131 1417.64,-486.974 1417.64,-478.417"/>
<polygon fill="black" stroke="black" points="1421.14,-478.413 1417.64,-468.413 1414.14,-478.413 1421.14,-478.413"/>
</g>
<!-- g38 -->
<g id="node39" class="node"><title>g38</title>
<ellipse fill="none" stroke="black" cx="1554.64" cy="-450" rx="54.6905" ry="18"/>
<text text-anchor="middle" x="1554.64" y="-446.3" font-family="Times,serif" font-size="14.00">email.errors</text>
</g>
<!-- g16&#45;&gt;g38 -->
<g id="edge28" class="edge"><title>g16&#45;&gt;g38</title>
<path fill="none" stroke="black" d="M1448.72,-505.662C1468.8,-495.109 1495.07,-481.303 1516.43,-470.082"/>
<polygon fill="black" stroke="black" points="1518.32,-473.039 1525.55,-465.289 1515.07,-466.843 1518.32,-473.039"/>
</g>
<!-- g17 -->
<g id="node18" class="node"><title>g17</title>
<ellipse fill="none" stroke="black" cx="874.636" cy="-594" rx="31.6951" ry="18"/>
<text text-anchor="middle" x="874.636" y="-590.3" font-family="Times,serif" font-size="14.00">tarfile</text>
</g>
<!-- g18 -->
<g id="node19" class="node"><title>g18</title>
<ellipse fill="none" stroke="black" cx="156.636" cy="-522" rx="156.772" ry="18"/>
<text text-anchor="middle" x="156.636" y="-518.3" font-family="Times,serif" font-size="14.00">lib&#45;dynload.grp.cpython&#45;35m&#45;darwin.so</text>
</g>
<!-- g17&#45;&gt;g18 -->
<g id="edge10" class="edge"><title>g17&#45;&gt;g18</title>
<path fill="none" stroke="black" d="M850.839,-581.917C845.316,-579.577 839.372,-577.416 833.636,-576 612.163,-521.345 548.842,-560.373 321.636,-540 307.528,-538.735 292.754,-537.292 278.091,-535.786"/>
<polygon fill="black" stroke="black" points="278.274,-532.287 267.966,-534.735 277.551,-539.249 278.274,-532.287"/>
</g>
<!-- g19 -->
<g id="node20" class="node"><title>g19</title>
<ellipse fill="none" stroke="black" cx="359.636" cy="-522" rx="28.6953" ry="18"/>
<text text-anchor="middle" x="359.636" y="-518.3" font-family="Times,serif" font-size="14.00">copy</text>
</g>
<!-- g17&#45;&gt;g19 -->
<g id="edge11" class="edge"><title>g17&#45;&gt;g19</title>
<path fill="none" stroke="black" d="M850.826,-581.969C845.304,-579.626 839.363,-577.45 833.636,-576 645.149,-528.266 585.419,-590.433 397.636,-540 395.316,-539.377 392.965,-538.617 390.628,-537.765"/>
<polygon fill="black" stroke="black" points="391.805,-534.464 381.227,-533.863 389.122,-540.929 391.805,-534.464"/>
</g>
<!-- g20 -->
<g id="node21" class="node"><title>g20</title>
<ellipse fill="none" stroke="black" cx="1026.64" cy="-666" rx="31.3957" ry="18"/>
<text text-anchor="middle" x="1026.64" y="-662.3" font-family="Times,serif" font-size="14.00">shutil</text>
</g>
<!-- g20&#45;&gt;g17 -->
<g id="edge12" class="edge"><title>g20&#45;&gt;g17</title>
<path fill="none" stroke="black" d="M1002.21,-654.432C976.806,-642.396 936.834,-623.462 908.409,-609.997"/>
<polygon fill="black" stroke="black" points="909.785,-606.777 899.249,-605.659 906.788,-613.103 909.785,-606.777"/>
</g>
<!-- g21 -->
<g id="node22" class="node"><title>g21</title>
<ellipse fill="none" stroke="black" cx="952.636" cy="-594" rx="28.6953" ry="18"/>
<text text-anchor="middle" x="952.636" y="-590.3" font-family="Times,serif" font-size="14.00">lzma</text>
</g>
<!-- g20&#45;&gt;g21 -->
<g id="edge13" class="edge"><title>g20&#45;&gt;g21</title>
<path fill="none" stroke="black" d="M1010.58,-650.377C1000.43,-640.497 987.133,-627.565 975.842,-616.579"/>
<polygon fill="black" stroke="black" points="978.015,-613.81 968.407,-609.345 973.134,-618.827 978.015,-613.81"/>
</g>
<!-- g22 -->
<g id="node23" class="node"><title>g22</title>
<ellipse fill="none" stroke="black" cx="1026.64" cy="-594" rx="27" ry="18"/>
<text text-anchor="middle" x="1026.64" y="-590.3" font-family="Times,serif" font-size="14.00">bz2</text>
</g>
<!-- g20&#45;&gt;g22 -->
<g id="edge14" class="edge"><title>g20&#45;&gt;g22</title>
<path fill="none" stroke="black" d="M1026.64,-647.831C1026.64,-640.131 1026.64,-630.974 1026.64,-622.417"/>
<polygon fill="black" stroke="black" points="1030.14,-622.413 1026.64,-612.413 1023.14,-622.413 1030.14,-622.413"/>
</g>
<!-- g23 -->
<g id="node24" class="node"><title>g23</title>
<ellipse fill="none" stroke="black" cx="1111.64" cy="-594" rx="40.0939" ry="18"/>
<text text-anchor="middle" x="1111.64" y="-590.3" font-family="Times,serif" font-size="14.00">fnmatch</text>
</g>
<!-- g20&#45;&gt;g23 -->
<g id="edge15" class="edge"><title>g20&#45;&gt;g23</title>
<path fill="none" stroke="black" d="M1044.25,-651.082C1055.93,-641.19 1071.48,-628.019 1084.69,-616.821"/>
<polygon fill="black" stroke="black" points="1087.2,-619.285 1092.57,-610.151 1082.68,-613.944 1087.2,-619.285"/>
</g>
<!-- g72 -->
<g id="node73" class="node"><title>g72</title>
<ellipse fill="none" stroke="black" cx="572.636" cy="-522" rx="166.271" ry="18"/>
<text text-anchor="middle" x="572.636" y="-518.3" font-family="Times,serif" font-size="14.00">lib&#45;dynload._lzma.cpython&#45;35m&#45;darwin.so</text>
</g>
<!-- g21&#45;&gt;g72 -->
<g id="edge72" class="edge"><title>g21&#45;&gt;g72</title>
<path fill="none" stroke="black" d="M930.77,-582.045C925.898,-579.757 920.679,-577.585 915.636,-576 874.852,-563.184 773.973,-547.993 692.107,-536.993"/>
<polygon fill="black" stroke="black" points="692.344,-533.494 681.969,-535.639 691.417,-540.432 692.344,-533.494"/>
</g>
<!-- g22&#45;&gt;g9 -->
<g id="edge55" class="edge"><title>g22&#45;&gt;g9</title>
<path fill="none" stroke="black" d="M1005.64,-582.608C1000.79,-580.232 995.602,-577.881 990.636,-576 932.567,-554.001 915.119,-557.827 855.636,-540 852.317,-539.005 848.894,-537.945 845.458,-536.857"/>
<polygon fill="black" stroke="black" points="846.407,-533.485 835.816,-533.743 844.256,-540.147 846.407,-533.485"/>
</g>
<!-- g61 -->
<g id="node62" class="node"><title>g61</title>
<ellipse fill="none" stroke="black" cx="1026.64" cy="-522" rx="161.671" ry="18"/>
<text text-anchor="middle" x="1026.64" y="-518.3" font-family="Times,serif" font-size="14.00">lib&#45;dynload._bz2.cpython&#45;35m&#45;darwin.so</text>
</g>
<!-- g22&#45;&gt;g61 -->
<g id="edge54" class="edge"><title>g22&#45;&gt;g61</title>
<path fill="none" stroke="black" d="M1026.64,-575.831C1026.64,-568.131 1026.64,-558.974 1026.64,-550.417"/>
<polygon fill="black" stroke="black" points="1030.14,-550.413 1026.64,-540.413 1023.14,-550.413 1030.14,-550.413"/>
</g>
<!-- g62 -->
<g id="node63" class="node"><title>g62</title>
<ellipse fill="none" stroke="black" cx="1267.64" cy="-522" rx="61.1893" ry="18"/>
<text text-anchor="middle" x="1267.64" y="-518.3" font-family="Times,serif" font-size="14.00">_compression</text>
</g>
<!-- g22&#45;&gt;g62 -->
<g id="edge56" class="edge"><title>g22&#45;&gt;g62</title>
<path fill="none" stroke="black" d="M1047.63,-582.597C1052.48,-580.221 1057.67,-577.874 1062.64,-576 1069.76,-573.315 1153.28,-551.55 1211.49,-536.486"/>
<polygon fill="black" stroke="black" points="1212.51,-539.837 1221.32,-533.944 1210.76,-533.06 1212.51,-539.837"/>
</g>
<!-- g24 -->
<g id="node25" class="node"><title>g24</title>
<ellipse fill="none" stroke="black" cx="398.636" cy="-738" rx="27" ry="18"/>
<text text-anchor="middle" x="398.636" y="-734.3" font-family="Times,serif" font-size="14.00">http</text>
</g>
<!-- g25 -->
<g id="node26" class="node"><title>g25</title>
<ellipse fill="none" stroke="black" cx="385.636" cy="-666" rx="31.3957" ry="18"/>
<text text-anchor="middle" x="385.636" y="-662.3" font-family="Times,serif" font-size="14.00">enum</text>
</g>
<!-- g24&#45;&gt;g25 -->
<g id="edge16" class="edge"><title>g24&#45;&gt;g25</title>
<path fill="none" stroke="black" d="M395.356,-719.831C393.944,-712.012 392.261,-702.692 390.696,-694.022"/>
<polygon fill="black" stroke="black" points="394.092,-693.132 388.87,-683.913 387.203,-694.376 394.092,-693.132"/>
</g>
<!-- g26 -->
<g id="node27" class="node"><title>g26</title>
<ellipse fill="none" stroke="black" cx="1242.64" cy="-306" rx="59.2899" ry="18"/>
<text text-anchor="middle" x="1242.64" y="-302.3" font-family="Times,serif" font-size="14.00">email.charset</text>
</g>
<!-- g26&#45;&gt;g13 -->
<g id="edge17" class="edge"><title>g26&#45;&gt;g13</title>
<path fill="none" stroke="black" d="M1199.69,-293.594C1191.42,-291.502 1182.8,-289.52 1174.64,-288 1030.46,-261.161 991.493,-274.882 846.636,-252 839.983,-250.949 833.067,-249.733 826.173,-248.438"/>
<polygon fill="black" stroke="black" points="826.603,-244.957 816.121,-246.496 825.275,-251.829 826.603,-244.957"/>
</g>
<!-- g27 -->
<g id="node28" class="node"><title>g27</title>
<ellipse fill="none" stroke="black" cx="921.636" cy="-234" rx="65.7887" ry="18"/>
<text text-anchor="middle" x="921.636" y="-230.3" font-family="Times,serif" font-size="14.00">email.encoders</text>
</g>
<!-- g26&#45;&gt;g27 -->
<g id="edge18" class="edge"><title>g26&#45;&gt;g27</title>
<path fill="none" stroke="black" d="M1198.47,-293.903C1190.56,-291.851 1182.37,-289.803 1174.64,-288 1096.03,-269.665 1075.45,-269.421 996.636,-252 991.406,-250.844 985.979,-249.61 980.545,-248.35"/>
<polygon fill="black" stroke="black" points="981.331,-244.939 970.796,-246.066 979.734,-251.755 981.331,-244.939"/>
</g>
<!-- g28 -->
<g id="node29" class="node"><title>g28</title>
<ellipse fill="none" stroke="black" cx="1084.64" cy="-234" rx="79.0865" ry="18"/>
<text text-anchor="middle" x="1084.64" y="-230.3" font-family="Times,serif" font-size="14.00">email.base64mime</text>
</g>
<!-- g26&#45;&gt;g28 -->
<g id="edge19" class="edge"><title>g26&#45;&gt;g28</title>
<path fill="none" stroke="black" d="M1209.51,-290.906C1186.22,-280.293 1154.79,-265.969 1129.29,-254.347"/>
<polygon fill="black" stroke="black" points="1130.74,-251.162 1120.19,-250.2 1127.83,-257.532 1130.74,-251.162"/>
</g>
<!-- g60 -->
<g id="node61" class="node"><title>g60</title>
<ellipse fill="none" stroke="black" cx="1084.64" cy="-162" rx="35.9954" ry="18"/>
<text text-anchor="middle" x="1084.64" y="-158.3" font-family="Times,serif" font-size="14.00">base64</text>
</g>
<!-- g28&#45;&gt;g60 -->
<g id="edge66" class="edge"><title>g28&#45;&gt;g60</title>
<path fill="none" stroke="black" d="M1084.64,-215.831C1084.64,-208.131 1084.64,-198.974 1084.64,-190.417"/>
<polygon fill="black" stroke="black" points="1088.14,-190.413 1084.64,-180.413 1081.14,-190.413 1088.14,-190.413"/>
</g>
<!-- g29 -->
<g id="node30" class="node"><title>g29</title>
<ellipse fill="none" stroke="black" cx="441.636" cy="-810" rx="91.784" ry="18"/>
<text text-anchor="middle" x="441.636" y="-806.3" font-family="Times,serif" font-size="14.00">wsgiref.simple_server</text>
</g>
<!-- g29&#45;&gt;g0 -->
<g id="edge23" class="edge"><title>g29&#45;&gt;g0</title>
<path fill="none" stroke="black" d="M405.158,-793.482C381.744,-782.879 351.206,-769.051 326.475,-757.852"/>
<polygon fill="black" stroke="black" points="327.862,-754.637 317.308,-753.701 324.974,-761.014 327.862,-754.637"/>
</g>
<!-- g29&#45;&gt;g24 -->
<g id="edge20" class="edge"><title>g29&#45;&gt;g24</title>
<path fill="none" stroke="black" d="M430.785,-791.831C425.71,-783.333 419.575,-773.061 414.031,-763.778"/>
<polygon fill="black" stroke="black" points="416.877,-761.717 408.745,-754.926 410.867,-765.306 416.877,-761.717"/>
</g>
<!-- g30 -->
<g id="node31" class="node"><title>g30</title>
<ellipse fill="none" stroke="black" cx="485.636" cy="-738" rx="42.4939" ry="18"/>
<text text-anchor="middle" x="485.636" y="-734.3" font-family="Times,serif" font-size="14.00">platform</text>
</g>
<!-- g29&#45;&gt;g30 -->
<g id="edge21" class="edge"><title>g29&#45;&gt;g30</title>
<path fill="none" stroke="black" d="M452.739,-791.831C457.78,-783.583 463.842,-773.664 469.381,-764.599"/>
<polygon fill="black" stroke="black" points="472.461,-766.271 474.689,-755.913 466.488,-762.621 472.461,-766.271"/>
</g>
<!-- g31 -->
<g id="node32" class="node"><title>g31</title>
<ellipse fill="none" stroke="black" cx="1214.64" cy="-738" rx="49.2915" ry="18"/>
<text text-anchor="middle" x="1214.64" y="-734.3" font-family="Times,serif" font-size="14.00">http.server</text>
</g>
<!-- g29&#45;&gt;g31 -->
<g id="edge22" class="edge"><title>g29&#45;&gt;g31</title>
<path fill="none" stroke="black" d="M506.849,-797.311C518.407,-795.334 530.353,-793.465 541.636,-792 767.306,-762.708 1037.75,-746.788 1155.27,-740.804"/>
<polygon fill="black" stroke="black" points="1155.68,-744.288 1165.49,-740.29 1155.32,-737.297 1155.68,-744.288"/>
</g>
<!-- g34 -->
<g id="node35" class="node"><title>g34</title>
<ellipse fill="none" stroke="black" cx="485.636" cy="-666" rx="50.8918" ry="18"/>
<text text-anchor="middle" x="485.636" y="-662.3" font-family="Times,serif" font-size="14.00">subprocess</text>
</g>
<!-- g30&#45;&gt;g34 -->
<g id="edge25" class="edge"><title>g30&#45;&gt;g34</title>
<path fill="none" stroke="black" d="M485.636,-719.831C485.636,-712.131 485.636,-702.974 485.636,-694.417"/>
<polygon fill="black" stroke="black" points="489.136,-694.413 485.636,-684.413 482.136,-694.413 489.136,-694.413"/>
</g>
<!-- g31&#45;&gt;g11 -->
<g id="edge31" class="edge"><title>g31&#45;&gt;g11</title>
<path fill="none" stroke="black" d="M1171.46,-729.243C1100.78,-714.907 961.648,-686.69 895.808,-673.336"/>
<polygon fill="black" stroke="black" points="896.388,-669.883 885.892,-671.325 894.996,-676.743 896.388,-669.883"/>
</g>
<!-- g31&#45;&gt;g20 -->
<g id="edge33" class="edge"><title>g31&#45;&gt;g20</title>
<path fill="none" stroke="black" d="M1180.15,-724.794C1146.68,-711.972 1096.09,-692.598 1062.23,-679.633"/>
<polygon fill="black" stroke="black" points="1063.32,-676.302 1052.73,-675.994 1060.82,-682.839 1063.32,-676.302"/>
</g>
<!-- g40 -->
<g id="node41" class="node"><title>g40</title>
<ellipse fill="none" stroke="black" cx="1214.64" cy="-666" rx="50.8918" ry="18"/>
<text text-anchor="middle" x="1214.64" y="-662.3" font-family="Times,serif" font-size="14.00">mimetypes</text>
</g>
<!-- g31&#45;&gt;g40 -->
<g id="edge30" class="edge"><title>g31&#45;&gt;g40</title>
<path fill="none" stroke="black" d="M1214.64,-719.831C1214.64,-712.131 1214.64,-702.974 1214.64,-694.417"/>
<polygon fill="black" stroke="black" points="1218.14,-694.413 1214.64,-684.413 1211.14,-694.413 1218.14,-694.413"/>
</g>
<!-- g41 -->
<g id="node42" class="node"><title>g41</title>
<ellipse fill="none" stroke="black" cx="1417.64" cy="-666" rx="47.3916" ry="18"/>
<text text-anchor="middle" x="1417.64" y="-662.3" font-family="Times,serif" font-size="14.00">http.client</text>
</g>
<!-- g31&#45;&gt;g41 -->
<g id="edge32" class="edge"><title>g31&#45;&gt;g41</title>
<path fill="none" stroke="black" d="M1250.46,-725.294C1284.73,-713.138 1336.51,-694.774 1373.35,-681.707"/>
<polygon fill="black" stroke="black" points="1374.59,-684.98 1382.85,-678.339 1372.25,-678.383 1374.59,-684.98"/>
</g>
<!-- g42 -->
<g id="node43" class="node"><title>g42</title>
<ellipse fill="none" stroke="black" cx="1524.64" cy="-666" rx="41.6928" ry="18"/>
<text text-anchor="middle" x="1524.64" y="-662.3" font-family="Times,serif" font-size="14.00">argparse</text>
</g>
<!-- g31&#45;&gt;g42 -->
<g id="edge34" class="edge"><title>g31&#45;&gt;g42</title>
<path fill="none" stroke="black" d="M1259.99,-730.442C1312.05,-721.33 1399.76,-704.639 1473.64,-684 1476.8,-683.116 1480.05,-682.137 1483.31,-681.106"/>
<polygon fill="black" stroke="black" points="1484.62,-684.36 1493.02,-677.898 1482.42,-677.714 1484.62,-684.36"/>
</g>
<!-- g43 -->
<g id="node44" class="node"><title>g43</title>
<ellipse fill="none" stroke="black" cx="1639.64" cy="-666" rx="55.7903" ry="18"/>
<text text-anchor="middle" x="1639.64" y="-662.3" font-family="Times,serif" font-size="14.00">socketserver</text>
</g>
<!-- g31&#45;&gt;g43 -->
<g id="edge35" class="edge"><title>g31&#45;&gt;g43</title>
<path fill="none" stroke="black" d="M1261.99,-732.841C1331.31,-724.856 1464.26,-707.893 1575.64,-684 1579.94,-683.076 1584.39,-682.028 1588.83,-680.913"/>
<polygon fill="black" stroke="black" points="1589.72,-684.298 1598.51,-678.387 1587.95,-677.525 1589.72,-684.298"/>
</g>
<!-- g33 -->
<g id="node34" class="node"><title>g33</title>
<ellipse fill="none" stroke="black" cx="628.636" cy="-306" rx="41.6928" ry="18"/>
<text text-anchor="middle" x="628.636" y="-302.3" font-family="Times,serif" font-size="14.00">tokenize</text>
</g>
<!-- g32&#45;&gt;g33 -->
<g id="edge24" class="edge"><title>g32&#45;&gt;g33</title>
<path fill="none" stroke="black" d="M695.121,-361.662C683.495,-351.928 668.563,-339.428 655.797,-328.74"/>
<polygon fill="black" stroke="black" points="657.692,-325.761 647.777,-322.025 653.198,-331.128 657.692,-325.761"/>
</g>
<!-- g39 -->
<g id="node40" class="node"><title>g39</title>
<ellipse fill="none" stroke="black" cx="628.636" cy="-234" rx="31.3957" ry="18"/>
<text text-anchor="middle" x="628.636" y="-230.3" font-family="Times,serif" font-size="14.00">token</text>
</g>
<!-- g33&#45;&gt;g39 -->
<g id="edge29" class="edge"><title>g33&#45;&gt;g39</title>
<path fill="none" stroke="black" d="M628.636,-287.831C628.636,-280.131 628.636,-270.974 628.636,-262.417"/>
<polygon fill="black" stroke="black" points="632.136,-262.413 628.636,-252.413 625.136,-262.413 632.136,-262.413"/>
</g>
<!-- g46 -->
<g id="node47" class="node"><title>g46</title>
<ellipse fill="none" stroke="black" cx="226.636" cy="-594" rx="32.4942" ry="18"/>
<text text-anchor="middle" x="226.636" y="-590.3" font-family="Times,serif" font-size="14.00">signal</text>
</g>
<!-- g34&#45;&gt;g46 -->
<g id="edge37" class="edge"><title>g34&#45;&gt;g46</title>
<path fill="none" stroke="black" d="M447.335,-654.09C440.149,-651.975 432.682,-649.857 425.636,-648 355.993,-629.642 336.028,-634.577 267.636,-612 265.394,-611.26 263.106,-610.442 260.816,-609.575"/>
<polygon fill="black" stroke="black" points="262.077,-606.309 251.494,-605.81 259.455,-612.8 262.077,-606.309"/>
</g>
<!-- g47 -->
<g id="node48" class="node"><title>g47</title>
<ellipse fill="none" stroke="black" cx="485.636" cy="-594" rx="208.763" ry="18"/>
<text text-anchor="middle" x="485.636" y="-590.3" font-family="Times,serif" font-size="14.00">lib&#45;dynload._posixsubprocess.cpython&#45;35m&#45;darwin.so</text>
</g>
<!-- g34&#45;&gt;g47 -->
<g id="edge38" class="edge"><title>g34&#45;&gt;g47</title>
<path fill="none" stroke="black" d="M485.636,-647.831C485.636,-640.131 485.636,-630.974 485.636,-622.417"/>
<polygon fill="black" stroke="black" points="489.136,-622.413 485.636,-612.413 482.136,-622.413 489.136,-622.413"/>
</g>
<!-- g35 -->
<g id="node36" class="node"><title>g35</title>
<ellipse fill="none" stroke="black" cx="1361.64" cy="-306" rx="42.4939" ry="18"/>
<text text-anchor="middle" x="1361.64" y="-302.3" font-family="Times,serif" font-size="14.00">datetime</text>
</g>
<!-- g36 -->
<g id="node37" class="node"><title>g36</title>
<ellipse fill="none" stroke="black" cx="1361.64" cy="-234" rx="180.068" ry="18"/>
<text text-anchor="middle" x="1361.64" y="-230.3" font-family="Times,serif" font-size="14.00">lib&#45;dynload._datetime.cpython&#45;35m&#45;darwin.so</text>
</g>
<!-- g35&#45;&gt;g36 -->
<g id="edge26" class="edge"><title>g35&#45;&gt;g36</title>
<path fill="none" stroke="black" d="M1361.64,-287.831C1361.64,-280.131 1361.64,-270.974 1361.64,-262.417"/>
<polygon fill="black" stroke="black" points="1365.14,-262.413 1361.64,-252.413 1358.14,-262.413 1365.14,-262.413"/>
</g>
<!-- g37&#45;&gt;g3 -->
<g id="edge59" class="edge"><title>g37&#45;&gt;g3</title>
<path fill="none" stroke="black" d="M1362.04,-440.881C1270.81,-425.919 1091.83,-396.564 1015.04,-383.97"/>
<polygon fill="black" stroke="black" points="1015.33,-380.472 1004.9,-382.307 1014.2,-387.38 1015.33,-380.472"/>
</g>
<!-- g44 -->
<g id="node45" class="node"><title>g44</title>
<ellipse fill="none" stroke="black" cx="1219.64" cy="-378" rx="76.8869" ry="18"/>
<text text-anchor="middle" x="1219.64" y="-374.3" font-family="Times,serif" font-size="14.00">email._policybase</text>
</g>
<!-- g37&#45;&gt;g44 -->
<g id="edge60" class="edge"><title>g37&#45;&gt;g44</title>
<path fill="none" stroke="black" d="M1378.04,-435.603C1347.33,-424.435 1304.52,-408.865 1271.14,-396.728"/>
<polygon fill="black" stroke="black" points="1272.15,-393.37 1261.55,-393.242 1269.75,-399.949 1272.15,-393.37"/>
</g>
<!-- g48 -->
<g id="node49" class="node"><title>g48</title>
<ellipse fill="none" stroke="black" cx="1417.64" cy="-378" rx="48.9926" ry="18"/>
<text text-anchor="middle" x="1417.64" y="-374.3" font-family="Times,serif" font-size="14.00">email.utils</text>
</g>
<!-- g37&#45;&gt;g48 -->
<g id="edge64" class="edge"><title>g37&#45;&gt;g48</title>
<path fill="none" stroke="black" d="M1417.64,-431.831C1417.64,-424.131 1417.64,-414.974 1417.64,-406.417"/>
<polygon fill="black" stroke="black" points="1421.14,-406.413 1417.64,-396.413 1414.14,-406.413 1421.14,-406.413"/>
</g>
<!-- g65 -->
<g id="node66" class="node"><title>g65</title>
<ellipse fill="none" stroke="black" cx="1547.64" cy="-378" rx="63.0888" ry="18"/>
<text text-anchor="middle" x="1547.64" y="-374.3" font-family="Times,serif" font-size="14.00">email.iterators</text>
</g>
<!-- g37&#45;&gt;g65 -->
<g id="edge61" class="edge"><title>g37&#45;&gt;g65</title>
<path fill="none" stroke="black" d="M1446.81,-433.842C1465.38,-423.559 1489.61,-410.135 1509.67,-399.026"/>
<polygon fill="black" stroke="black" points="1511.51,-402.011 1518.56,-394.104 1508.12,-395.888 1511.51,-402.011"/>
</g>
<!-- g66 -->
<g id="node67" class="node"><title>g66</title>
<ellipse fill="none" stroke="black" cx="1662.64" cy="-378" rx="34.394" ry="18"/>
<text text-anchor="middle" x="1662.64" y="-374.3" font-family="Times,serif" font-size="14.00">quopri</text>
</g>
<!-- g37&#45;&gt;g66 -->
<g id="edge62" class="edge"><title>g37&#45;&gt;g66</title>
<path fill="none" stroke="black" d="M1465.78,-437.931C1516.03,-425.19 1591.38,-405.642 1619.64,-396 1621.9,-395.228 1624.21,-394.395 1626.53,-393.525"/>
<polygon fill="black" stroke="black" points="1627.98,-396.714 1636.01,-389.801 1625.43,-390.198 1627.98,-396.714"/>
</g>
<!-- g67 -->
<g id="node68" class="node"><title>g67</title>
<ellipse fill="none" stroke="black" cx="1809.64" cy="-378" rx="94.7833" ry="18"/>
<text text-anchor="middle" x="1809.64" y="-374.3" font-family="Times,serif" font-size="14.00">email._encoded_words</text>
</g>
<!-- g37&#45;&gt;g67 -->
<g id="edge63" class="edge"><title>g37&#45;&gt;g67</title>
<path fill="none" stroke="black" d="M1465.03,-437.76C1473.53,-435.723 1482.33,-433.717 1490.64,-432 1585.52,-412.388 1610.12,-412.262 1705.64,-396 1713.32,-394.692 1721.32,-393.321 1729.32,-391.945"/>
<polygon fill="black" stroke="black" points="1730.18,-395.35 1739.44,-390.204 1728.99,-388.452 1730.18,-395.35"/>
</g>
<!-- g41&#45;&gt;g15 -->
<g id="edge47" class="edge"><title>g41&#45;&gt;g15</title>
<path fill="none" stroke="black" d="M1417.64,-647.831C1417.64,-640.131 1417.64,-630.974 1417.64,-622.417"/>
<polygon fill="black" stroke="black" points="1421.14,-622.413 1417.64,-612.413 1414.14,-622.413 1421.14,-622.413"/>
</g>
<!-- g54 -->
<g id="node55" class="node"><title>g54</title>
<ellipse fill="none" stroke="black" cx="1532.64" cy="-594" rx="27" ry="18"/>
<text text-anchor="middle" x="1532.64" y="-590.3" font-family="Times,serif" font-size="14.00">ssl</text>
</g>
<!-- g41&#45;&gt;g54 -->
<g id="edge46" class="edge"><title>g41&#45;&gt;g54</title>
<path fill="none" stroke="black" d="M1442.31,-650.554C1460.42,-639.211 1485.08,-623.773 1504.06,-611.892"/>
<polygon fill="black" stroke="black" points="1505.98,-614.819 1512.6,-606.546 1502.26,-608.886 1505.98,-614.819"/>
</g>
<!-- g55 -->
<g id="node56" class="node"><title>g55</title>
<ellipse fill="none" stroke="black" cx="1608.64" cy="-594" rx="31.3957" ry="18"/>
<text text-anchor="middle" x="1608.64" y="-590.3" font-family="Times,serif" font-size="14.00">email</text>
</g>
<!-- g41&#45;&gt;g55 -->
<g id="edge48" class="edge"><title>g41&#45;&gt;g55</title>
<path fill="none" stroke="black" d="M1453.33,-654.131C1484.12,-643.68 1529.64,-627.716 1568.64,-612 1570.7,-611.167 1572.82,-610.29 1574.95,-609.389"/>
<polygon fill="black" stroke="black" points="1576.45,-612.549 1584.23,-605.353 1573.66,-606.13 1576.45,-612.549"/>
</g>
<!-- g71 -->
<g id="node72" class="node"><title>g71</title>
<ellipse fill="none" stroke="black" cx="1693.64" cy="-594" rx="35.9954" ry="18"/>
<text text-anchor="middle" x="1693.64" y="-590.3" font-family="Times,serif" font-size="14.00">gettext</text>
</g>
<!-- g42&#45;&gt;g71 -->
<g id="edge71" class="edge"><title>g42&#45;&gt;g71</title>
<path fill="none" stroke="black" d="M1554.46,-653.294C1583.02,-641.127 1626.18,-622.739 1656.86,-609.669"/>
<polygon fill="black" stroke="black" points="1658.52,-612.767 1666.34,-605.627 1655.77,-606.327 1658.52,-612.767"/>
</g>
<!-- g45 -->
<g id="node46" class="node"><title>g45</title>
<ellipse fill="none" stroke="black" cx="1108.64" cy="-306" rx="57.3905" ry="18"/>
<text text-anchor="middle" x="1108.64" y="-302.3" font-family="Times,serif" font-size="14.00">email.header</text>
</g>
<!-- g44&#45;&gt;g45 -->
<g id="edge36" class="edge"><title>g44&#45;&gt;g45</title>
<path fill="none" stroke="black" d="M1193.33,-360.937C1178.08,-351.042 1158.71,-338.48 1142.35,-327.866"/>
<polygon fill="black" stroke="black" points="1143.9,-324.704 1133.61,-322.199 1140.09,-330.577 1143.9,-324.704"/>
</g>
<!-- g48&#45;&gt;g26 -->
<g id="edge41" class="edge"><title>g48&#45;&gt;g26</title>
<path fill="none" stroke="black" d="M1384.72,-364.457C1357.29,-353.173 1317.95,-336.987 1287.62,-324.506"/>
<polygon fill="black" stroke="black" points="1288.69,-321.163 1278.11,-320.595 1286.03,-327.637 1288.69,-321.163"/>
</g>
<!-- g48&#45;&gt;g35 -->
<g id="edge44" class="edge"><title>g48&#45;&gt;g35</title>
<path fill="none" stroke="black" d="M1404.08,-360.571C1397.27,-351.815 1388.89,-341.042 1381.38,-331.387"/>
<polygon fill="black" stroke="black" points="1383.97,-329.013 1375.07,-323.269 1378.44,-333.311 1383.97,-329.013"/>
</g>
<!-- g49 -->
<g id="node50" class="node"><title>g49</title>
<ellipse fill="none" stroke="black" cx="1495.64" cy="-306" rx="73.387" ry="18"/>
<text text-anchor="middle" x="1495.64" y="-302.3" font-family="Times,serif" font-size="14.00">email._parseaddr</text>
</g>
<!-- g48&#45;&gt;g49 -->
<g id="edge39" class="edge"><title>g48&#45;&gt;g49</title>
<path fill="none" stroke="black" d="M1436.12,-360.937C1445.98,-351.835 1458.29,-340.476 1469.15,-330.452"/>
<polygon fill="black" stroke="black" points="1471.77,-332.795 1476.74,-323.441 1467.02,-327.652 1471.77,-332.795"/>
</g>
<!-- g50 -->
<g id="node51" class="node"><title>g50</title>
<ellipse fill="none" stroke="black" cx="1617.64" cy="-306" rx="30.5947" ry="18"/>
<text text-anchor="middle" x="1617.64" y="-302.3" font-family="Times,serif" font-size="14.00">urllib</text>
</g>
<!-- g48&#45;&gt;g50 -->
<g id="edge40" class="edge"><title>g48&#45;&gt;g50</title>
<path fill="none" stroke="black" d="M1455.19,-366.467C1487.85,-356.166 1536.29,-340.234 1577.64,-324 1579.85,-323.131 1582.12,-322.206 1584.39,-321.252"/>
<polygon fill="black" stroke="black" points="1585.9,-324.416 1593.68,-317.234 1583.12,-317.992 1585.9,-324.416"/>
</g>
<!-- g51 -->
<g id="node52" class="node"><title>g51</title>
<ellipse fill="none" stroke="black" cx="1718.64" cy="-306" rx="51.9908" ry="18"/>
<text text-anchor="middle" x="1718.64" y="-302.3" font-family="Times,serif" font-size="14.00">urllib.parse</text>
</g>
<!-- g48&#45;&gt;g51 -->
<g id="edge42" class="edge"><title>g48&#45;&gt;g51</title>
<path fill="none" stroke="black" d="M1454.29,-365.984C1461.34,-363.856 1468.69,-361.761 1475.64,-360 1555.57,-339.752 1577.57,-343.689 1657.64,-324 1661.68,-323.006 1665.85,-321.915 1670.03,-320.777"/>
<polygon fill="black" stroke="black" points="1671.05,-324.127 1679.73,-318.058 1669.16,-317.386 1671.05,-324.127"/>
</g>
<!-- g52 -->
<g id="node53" class="node"><title>g52</title>
<ellipse fill="none" stroke="black" cx="1871.64" cy="-306" rx="38.1938" ry="18"/>
<text text-anchor="middle" x="1871.64" y="-302.3" font-family="Times,serif" font-size="14.00">random</text>
</g>
<!-- g48&#45;&gt;g52 -->
<g id="edge43" class="edge"><title>g48&#45;&gt;g52</title>
<path fill="none" stroke="black" d="M1453.57,-365.731C1460.81,-363.575 1468.42,-361.534 1475.64,-360 1608.72,-331.718 1645.22,-345.077 1779.64,-324 1794.92,-321.603 1811.54,-318.504 1826.39,-315.555"/>
<polygon fill="black" stroke="black" points="1827.25,-318.954 1836.36,-313.548 1825.86,-312.092 1827.25,-318.954"/>
</g>
<!-- g53 -->
<g id="node54" class="node"><title>g53</title>
<ellipse fill="none" stroke="black" cx="2640.64" cy="-306" rx="33.5952" ry="18"/>
<text text-anchor="middle" x="2640.64" y="-302.3" font-family="Times,serif" font-size="14.00">socket</text>
</g>
<!-- g48&#45;&gt;g53 -->
<g id="edge45" class="edge"><title>g48&#45;&gt;g53</title>
<path fill="none" stroke="black" d="M1452.87,-365.503C1460.3,-363.309 1468.16,-361.311 1475.64,-360 1697.19,-321.143 2411.73,-309.058 2596.63,-306.544"/>
<polygon fill="black" stroke="black" points="2596.84,-310.041 2606.79,-306.408 2596.74,-303.042 2596.84,-310.041"/>
</g>
<!-- g56 -->
<g id="node57" class="node"><title>g56</title>
<ellipse fill="none" stroke="black" cx="1601.64" cy="-234" rx="41.6928" ry="18"/>
<text text-anchor="middle" x="1601.64" y="-230.3" font-family="Times,serif" font-size="14.00">calendar</text>
</g>
<!-- g49&#45;&gt;g56 -->
<g id="edge49" class="edge"><title>g49&#45;&gt;g56</title>
<path fill="none" stroke="black" d="M1520.76,-288.937C1535.74,-278.762 1554.87,-265.765 1570.77,-254.967"/>
<polygon fill="black" stroke="black" points="1572.91,-257.741 1579.22,-249.227 1568.98,-251.95 1572.91,-257.741"/>
</g>
<!-- g52&#45;&gt;g7 -->
<g id="edge68" class="edge"><title>g52&#45;&gt;g7</title>
<path fill="none" stroke="black" d="M1842.68,-293.949C1813.48,-281.795 1768.26,-262.977 1736.29,-249.671"/>
<polygon fill="black" stroke="black" points="1737.4,-246.343 1726.82,-245.732 1734.71,-252.805 1737.4,-246.343"/>
</g>
<!-- g69 -->
<g id="node70" class="node"><title>g69</title>
<ellipse fill="none" stroke="black" cx="1916.64" cy="-234" rx="162.471" ry="18"/>
<text text-anchor="middle" x="1916.64" y="-230.3" font-family="Times,serif" font-size="14.00">lib&#45;dynload.math.cpython&#45;35m&#45;darwin.so</text>
</g>
<!-- g52&#45;&gt;g69 -->
<g id="edge67" class="edge"><title>g52&#45;&gt;g69</title>
<path fill="none" stroke="black" d="M1882.53,-288.571C1887.77,-280.181 1894.17,-269.939 1900.01,-260.604"/>
<polygon fill="black" stroke="black" points="1903.04,-262.356 1905.37,-252.021 1897.11,-258.646 1903.04,-262.356"/>
</g>
<!-- g70 -->
<g id="node71" class="node"><title>g70</title>
<ellipse fill="none" stroke="black" cx="2273.64" cy="-234" rx="176.569" ry="18"/>
<text text-anchor="middle" x="2273.64" y="-230.3" font-family="Times,serif" font-size="14.00">lib&#45;dynload._random.cpython&#45;35m&#45;darwin.so</text>
</g>
<!-- g52&#45;&gt;g70 -->
<g id="edge69" class="edge"><title>g52&#45;&gt;g70</title>
<path fill="none" stroke="black" d="M1907.66,-299.547C1967.51,-288.829 2089.39,-267 2176.03,-251.481"/>
<polygon fill="black" stroke="black" points="2176.66,-254.924 2185.89,-249.716 2175.43,-248.034 2176.66,-254.924"/>
</g>
<!-- g73 -->
<g id="node74" class="node"><title>g73</title>
<ellipse fill="none" stroke="black" cx="2640.64" cy="-234" rx="172.47" ry="18"/>
<text text-anchor="middle" x="2640.64" y="-230.3" font-family="Times,serif" font-size="14.00">lib&#45;dynload._socket.cpython&#45;35m&#45;darwin.so</text>
</g>
<!-- g53&#45;&gt;g73 -->
<g id="edge73" class="edge"><title>g53&#45;&gt;g73</title>
<path fill="none" stroke="black" d="M2640.64,-287.831C2640.64,-280.131 2640.64,-270.974 2640.64,-262.417"/>
<polygon fill="black" stroke="black" points="2644.14,-262.413 2640.64,-252.413 2637.14,-262.413 2644.14,-262.413"/>
</g>
<!-- g74 -->
<g id="node75" class="node"><title>g74</title>
<ellipse fill="none" stroke="black" cx="2872.64" cy="-234" rx="42.4939" ry="18"/>
<text text-anchor="middle" x="2872.64" y="-230.3" font-family="Times,serif" font-size="14.00">selectors</text>
</g>
<!-- g53&#45;&gt;g74 -->
<g id="edge74" class="edge"><title>g53&#45;&gt;g74</title>
<path fill="none" stroke="black" d="M2670.56,-297.562C2706.57,-287.297 2768.78,-269.2 2821.64,-252 2824.58,-251.043 2827.61,-250.034 2830.65,-249.003"/>
<polygon fill="black" stroke="black" points="2832.03,-252.231 2840.34,-245.668 2829.75,-245.612 2832.03,-252.231"/>
</g>
<!-- g57 -->
<g id="node58" class="node"><title>g57</title>
<ellipse fill="none" stroke="black" cx="1548.64" cy="-522" rx="42.4939" ry="18"/>
<text text-anchor="middle" x="1548.64" y="-518.3" font-family="Times,serif" font-size="14.00">textwrap</text>
</g>
<!-- g54&#45;&gt;g57 -->
<g id="edge50" class="edge"><title>g54&#45;&gt;g57</title>
<path fill="none" stroke="black" d="M1536.67,-575.831C1538.38,-568.131 1540.42,-558.974 1542.32,-550.417"/>
<polygon fill="black" stroke="black" points="1545.79,-550.934 1544.54,-540.413 1538.96,-549.416 1545.79,-550.934"/>
</g>
<!-- g58 -->
<g id="node59" class="node"><title>g58</title>
<ellipse fill="none" stroke="black" cx="1653.64" cy="-522" rx="44.6926" ry="18"/>
<text text-anchor="middle" x="1653.64" y="-518.3" font-family="Times,serif" font-size="14.00">ipaddress</text>
</g>
<!-- g54&#45;&gt;g58 -->
<g id="edge51" class="edge"><title>g54&#45;&gt;g58</title>
<path fill="none" stroke="black" d="M1552.89,-581.949C1571.02,-571.16 1597.98,-555.119 1619.45,-542.345"/>
<polygon fill="black" stroke="black" points="1621.46,-545.216 1628.27,-537.095 1617.88,-539.201 1621.46,-545.216"/>
</g>
<!-- g59 -->
<g id="node60" class="node"><title>g59</title>
<ellipse fill="none" stroke="black" cx="1874.64" cy="-522" rx="158.672" ry="18"/>
<text text-anchor="middle" x="1874.64" y="-518.3" font-family="Times,serif" font-size="14.00">lib&#45;dynload._ssl.cpython&#45;35m&#45;darwin.so</text>
</g>
<!-- g54&#45;&gt;g59 -->
<g id="edge52" class="edge"><title>g54&#45;&gt;g59</title>
<path fill="none" stroke="black" d="M1553.52,-582.289C1558.37,-579.93 1563.59,-577.666 1568.64,-576 1626.5,-556.879 1692.88,-544.118 1749,-535.827"/>
<polygon fill="black" stroke="black" points="1749.59,-539.277 1758.99,-534.382 1748.59,-532.349 1749.59,-539.277"/>
</g>
<!-- g68 -->
<g id="node69" class="node"><title>g68</title>
<ellipse fill="none" stroke="black" cx="1536.64" cy="-162" rx="32.4942" ry="18"/>
<text text-anchor="middle" x="1536.64" y="-158.3" font-family="Times,serif" font-size="14.00">locale</text>
</g>
<!-- g56&#45;&gt;g68 -->
<g id="edge65" class="edge"><title>g56&#45;&gt;g68</title>
<path fill="none" stroke="black" d="M1586.23,-216.937C1577.86,-207.658 1567.36,-196.034 1558.19,-185.87"/>
<polygon fill="black" stroke="black" points="1560.78,-183.522 1551.48,-178.445 1555.59,-188.213 1560.78,-183.522"/>
</g>
<!-- g60&#45;&gt;g5 -->
<g id="edge53" class="edge"><title>g60&#45;&gt;g5</title>
<path fill="none" stroke="black" d="M1084.64,-143.831C1084.64,-136.131 1084.64,-126.974 1084.64,-118.417"/>
<polygon fill="black" stroke="black" points="1088.14,-118.413 1084.64,-108.413 1081.14,-118.413 1088.14,-118.413"/>
</g>
<!-- g63 -->
<g id="node64" class="node"><title>g63</title>
<ellipse fill="none" stroke="black" cx="514.636" cy="-882" rx="28.6953" ry="18"/>
<text text-anchor="middle" x="514.636" y="-878.3" font-family="Times,serif" font-size="14.00">main</text>
</g>
<!-- g63&#45;&gt;g29 -->
<g id="edge57" class="edge"><title>g63&#45;&gt;g29</title>
<path fill="none" stroke="black" d="M499.155,-866.731C489.769,-857.474 477.571,-845.443 466.825,-834.844"/>
<polygon fill="black" stroke="black" points="469.247,-832.316 459.669,-827.786 464.331,-837.3 469.247,-832.316"/>
</g>
<!-- g64 -->
<g id="node65" class="node"><title>g64</title>
<ellipse fill="none" stroke="black" cx="588.636" cy="-810" rx="37.8943" ry="18"/>
<text text-anchor="middle" x="588.636" y="-806.3" font-family="Times,serif" font-size="14.00">wsgiref</text>
</g>
<!-- g63&#45;&gt;g64 -->
<g id="edge58" class="edge"><title>g63&#45;&gt;g64</title>
<path fill="none" stroke="black" d="M530.33,-866.731C540.257,-857.071 553.289,-844.391 564.515,-833.47"/>
<polygon fill="black" stroke="black" points="567.21,-835.73 571.937,-826.248 562.329,-830.713 567.21,-835.73"/>
</g>
<!-- g75 -->
<g id="node76" class="node"><title>g75</title>
<ellipse fill="none" stroke="black" cx="2872.64" cy="-162" rx="165.171" ry="18"/>
<text text-anchor="middle" x="2872.64" y="-158.3" font-family="Times,serif" font-size="14.00">lib&#45;dynload.select.cpython&#45;35m&#45;darwin.so</text>
</g>
<!-- g74&#45;&gt;g75 -->
<g id="edge75" class="edge"><title>g74&#45;&gt;g75</title>
<path fill="none" stroke="black" d="M2872.64,-215.831C2872.64,-208.131 2872.64,-198.974 2872.64,-190.417"/>
<polygon fill="black" stroke="black" points="2876.14,-190.413 2872.64,-180.413 2869.14,-190.413 2876.14,-190.413"/>
</g>
</g>
</svg>
