<?xml version="1.0" encoding="utf-8" standalone="no"?>
<!DOCTYPE svg PUBLIC "-//W3C//DTD SVG 1.1//EN"
  "http://www.w3.org/Graphics/SVG/1.1/DTD/svg11.dtd">
<!-- Created with matplotlib (http://matplotlib.org/) -->
<svg height="280.97625pt" version="1.1" viewBox="0 0 281.413125 280.97625" width="281.413125pt" xmlns="http://www.w3.org/2000/svg" xmlns:xlink="http://www.w3.org/1999/xlink">
 <defs>
  <style type="text/css">
*{stroke-linecap:butt;stroke-linejoin:round;}
  </style>
 </defs>
 <g id="figure_1">
  <g id="patch_1">
   <path d="M 0 280.97625 
L 281.413125 280.97625 
L 281.413125 0 
L 0 0 
z
" style="fill:#ffffff;"/>
  </g>
  <g id="axes_1">
   <g id="patch_2">
    <path d="M 40.603125 243.42 
L 270.713125 243.42 
L 270.713125 10.7 
L 40.603125 10.7 
z
" style="fill:#ffffff;"/>
   </g>
   <g id="PathCollection_1">
    <defs>
     <path d="M 0 3.535534 
C 0.937635 3.535534 1.836992 3.163008 2.5 2.5 
C 3.163008 1.836992 3.535534 0.937635 3.535534 0 
C 3.535534 -0.937635 3.163008 -1.836992 2.5 -2.5 
C 1.836992 -3.163008 0.937635 -3.535534 0 -3.535534 
C -0.937635 -3.535534 -1.836992 -3.163008 -2.5 -2.5 
C -3.163008 -1.836992 -3.535534 -0.937635 -3.535534 0 
C -3.535534 0.937635 -3.163008 1.836992 -2.5 2.5 
C -1.836992 3.163008 -0.937635 3.535534 0 3.535534 
z
" id="m817060875b" style="stroke:#1f77b4;"/>
    </defs>
    <g clip-path="url(#pdcac954d1e)">
     <use style="fill:#1f77b4;stroke:#1f77b4;" x="53.491695" xlink:href="#m817060875b" y="209.575813"/>
     <use style="fill:#1f77b4;stroke:#1f77b4;" x="57.661753" xlink:href="#m817060875b" y="213.082341"/>
     <use style="fill:#1f77b4;stroke:#1f77b4;" x="61.831811" xlink:href="#m817060875b" y="207.395958"/>
     <use style="fill:#1f77b4;stroke:#1f77b4;" x="66.00187" xlink:href="#m817060875b" y="232.840989"/>
     <use style="fill:#1f77b4;stroke:#1f77b4;" x="70.171928" xlink:href="#m817060875b" y="206.057171"/>
     <use style="fill:#1f77b4;stroke:#1f77b4;" x="74.341987" xlink:href="#m817060875b" y="194.998867"/>
     <use style="fill:#1f77b4;stroke:#1f77b4;" x="78.512045" xlink:href="#m817060875b" y="191.447655"/>
     <use style="fill:#1f77b4;stroke:#1f77b4;" x="82.682103" xlink:href="#m817060875b" y="210.450508"/>
     <use style="fill:#1f77b4;stroke:#1f77b4;" x="86.852162" xlink:href="#m817060875b" y="184.24997"/>
     <use style="fill:#1f77b4;stroke:#1f77b4;" x="91.02222" xlink:href="#m817060875b" y="183.086299"/>
     <use style="fill:#1f77b4;stroke:#1f77b4;" x="95.192278" xlink:href="#m817060875b" y="180.874035"/>
     <use style="fill:#1f77b4;stroke:#1f77b4;" x="99.362337" xlink:href="#m817060875b" y="190.847998"/>
     <use style="fill:#1f77b4;stroke:#1f77b4;" x="103.532395" xlink:href="#m817060875b" y="197.037067"/>
     <use style="fill:#1f77b4;stroke:#1f77b4;" x="107.702454" xlink:href="#m817060875b" y="178.517209"/>
     <use style="fill:#1f77b4;stroke:#1f77b4;" x="111.872512" xlink:href="#m817060875b" y="168.866204"/>
     <use style="fill:#1f77b4;stroke:#1f77b4;" x="116.04257" xlink:href="#m817060875b" y="158.130104"/>
     <use style="fill:#1f77b4;stroke:#1f77b4;" x="120.212629" xlink:href="#m817060875b" y="147.471571"/>
     <use style="fill:#1f77b4;stroke:#1f77b4;" x="124.382687" xlink:href="#m817060875b" y="138.63541"/>
     <use style="fill:#1f77b4;stroke:#1f77b4;" x="128.552746" xlink:href="#m817060875b" y="156.914207"/>
     <use style="fill:#1f77b4;stroke:#1f77b4;" x="132.722804" xlink:href="#m817060875b" y="137.215441"/>
     <use style="fill:#1f77b4;stroke:#1f77b4;" x="136.892862" xlink:href="#m817060875b" y="138.627619"/>
     <use style="fill:#1f77b4;stroke:#1f77b4;" x="141.062921" xlink:href="#m817060875b" y="139.253353"/>
     <use style="fill:#1f77b4;stroke:#1f77b4;" x="145.232979" xlink:href="#m817060875b" y="135.878149"/>
     <use style="fill:#1f77b4;stroke:#1f77b4;" x="149.403037" xlink:href="#m817060875b" y="121.998372"/>
     <use style="fill:#1f77b4;stroke:#1f77b4;" x="153.573096" xlink:href="#m817060875b" y="120.976257"/>
     <use style="fill:#1f77b4;stroke:#1f77b4;" x="157.743154" xlink:href="#m817060875b" y="128.470459"/>
     <use style="fill:#1f77b4;stroke:#1f77b4;" x="161.913213" xlink:href="#m817060875b" y="119.227432"/>
     <use style="fill:#1f77b4;stroke:#1f77b4;" x="166.083271" xlink:href="#m817060875b" y="118.990982"/>
     <use style="fill:#1f77b4;stroke:#1f77b4;" x="170.253329" xlink:href="#m817060875b" y="120.24324"/>
     <use style="fill:#1f77b4;stroke:#1f77b4;" x="174.423388" xlink:href="#m817060875b" y="107.244423"/>
     <use style="fill:#1f77b4;stroke:#1f77b4;" x="178.593446" xlink:href="#m817060875b" y="102.563412"/>
     <use style="fill:#1f77b4;stroke:#1f77b4;" x="182.763504" xlink:href="#m817060875b" y="86.116439"/>
     <use style="fill:#1f77b4;stroke:#1f77b4;" x="186.933563" xlink:href="#m817060875b" y="88.443219"/>
     <use style="fill:#1f77b4;stroke:#1f77b4;" x="191.103621" xlink:href="#m817060875b" y="85.905138"/>
     <use style="fill:#1f77b4;stroke:#1f77b4;" x="195.27368" xlink:href="#m817060875b" y="94.716057"/>
     <use style="fill:#1f77b4;stroke:#1f77b4;" x="199.443738" xlink:href="#m817060875b" y="91.278619"/>
     <use style="fill:#1f77b4;stroke:#1f77b4;" x="203.613796" xlink:href="#m817060875b" y="95.947557"/>
     <use style="fill:#1f77b4;stroke:#1f77b4;" x="207.783855" xlink:href="#m817060875b" y="86.608444"/>
     <use style="fill:#1f77b4;stroke:#1f77b4;" x="211.953913" xlink:href="#m817060875b" y="74.908514"/>
     <use style="fill:#1f77b4;stroke:#1f77b4;" x="216.123972" xlink:href="#m817060875b" y="68.556907"/>
     <use style="fill:#1f77b4;stroke:#1f77b4;" x="220.29403" xlink:href="#m817060875b" y="89.817884"/>
     <use style="fill:#1f77b4;stroke:#1f77b4;" x="224.464088" xlink:href="#m817060875b" y="57.650147"/>
     <use style="fill:#1f77b4;stroke:#1f77b4;" x="228.634147" xlink:href="#m817060875b" y="58.280676"/>
     <use style="fill:#1f77b4;stroke:#1f77b4;" x="232.804205" xlink:href="#m817060875b" y="58.368876"/>
     <use style="fill:#1f77b4;stroke:#1f77b4;" x="236.974263" xlink:href="#m817060875b" y="59.954183"/>
     <use style="fill:#1f77b4;stroke:#1f77b4;" x="241.144322" xlink:href="#m817060875b" y="46.651724"/>
     <use style="fill:#1f77b4;stroke:#1f77b4;" x="245.31438" xlink:href="#m817060875b" y="54.522315"/>
     <use style="fill:#1f77b4;stroke:#1f77b4;" x="249.484439" xlink:href="#m817060875b" y="41.206002"/>
     <use style="fill:#1f77b4;stroke:#1f77b4;" x="253.654497" xlink:href="#m817060875b" y="25.179272"/>
     <use style="fill:#1f77b4;stroke:#1f77b4;" x="257.824555" xlink:href="#m817060875b" y="26.987633"/>
    </g>
   </g>
   <g id="matplotlib.axis_1">
    <g id="xtick_1">
     <g id="line2d_1">
      <defs>
       <path d="M 0 0 
L 0 3.5 
" id="mc5113a1ff1" style="stroke:#000000;stroke-width:0.8;"/>
      </defs>
      <g>
       <use style="stroke:#000000;stroke-width:0.8;" x="53.491695" xlink:href="#mc5113a1ff1" y="243.42"/>
      </g>
     </g>
     <g id="text_1">
      <!-- 0 -->
      <defs>
       <path d="M 31.78125 66.40625 
Q 24.171875 66.40625 20.328125 58.90625 
Q 16.5 51.421875 16.5 36.375 
Q 16.5 21.390625 20.328125 13.890625 
Q 24.171875 6.390625 31.78125 6.390625 
Q 39.453125 6.390625 43.28125 13.890625 
Q 47.125 21.390625 47.125 36.375 
Q 47.125 51.421875 43.28125 58.90625 
Q 39.453125 66.40625 31.78125 66.40625 
z
M 31.78125 74.21875 
Q 44.046875 74.21875 50.515625 64.515625 
Q 56.984375 54.828125 56.984375 36.375 
Q 56.984375 17.96875 50.515625 8.265625 
Q 44.046875 -1.421875 31.78125 -1.421875 
Q 19.53125 -1.421875 13.0625 8.265625 
Q 6.59375 17.96875 6.59375 36.375 
Q 6.59375 54.828125 13.0625 64.515625 
Q 19.53125 74.21875 31.78125 74.21875 
z
" id="DejaVuSans-30"/>
      </defs>
      <g transform="translate(50.310445 258.018438)scale(0.1 -0.1)">
       <use xlink:href="#DejaVuSans-30"/>
      </g>
     </g>
    </g>
    <g id="xtick_2">
     <g id="line2d_2">
      <g>
       <use style="stroke:#000000;stroke-width:0.8;" x="95.192278" xlink:href="#mc5113a1ff1" y="243.42"/>
      </g>
     </g>
     <g id="text_2">
      <!-- 10 -->
      <defs>
       <path d="M 12.40625 8.296875 
L 28.515625 8.296875 
L 28.515625 63.921875 
L 10.984375 60.40625 
L 10.984375 69.390625 
L 28.421875 72.90625 
L 38.28125 72.90625 
L 38.28125 8.296875 
L 54.390625 8.296875 
L 54.390625 0 
L 12.40625 0 
z
" id="DejaVuSans-31"/>
      </defs>
      <g transform="translate(88.829778 258.018438)scale(0.1 -0.1)">
       <use xlink:href="#DejaVuSans-31"/>
       <use x="63.623047" xlink:href="#DejaVuSans-30"/>
      </g>
     </g>
    </g>
    <g id="xtick_3">
     <g id="line2d_3">
      <g>
       <use style="stroke:#000000;stroke-width:0.8;" x="136.892862" xlink:href="#mc5113a1ff1" y="243.42"/>
      </g>
     </g>
     <g id="text_3">
      <!-- 20 -->
      <defs>
       <path d="M 19.1875 8.296875 
L 53.609375 8.296875 
L 53.609375 0 
L 7.328125 0 
L 7.328125 8.296875 
Q 12.9375 14.109375 22.625 23.890625 
Q 32.328125 33.6875 34.8125 36.53125 
Q 39.546875 41.84375 41.421875 45.53125 
Q 43.3125 49.21875 43.3125 52.78125 
Q 43.3125 58.59375 39.234375 62.25 
Q 35.15625 65.921875 28.609375 65.921875 
Q 23.96875 65.921875 18.8125 64.3125 
Q 13.671875 62.703125 7.8125 59.421875 
L 7.8125 69.390625 
Q 13.765625 71.78125 18.9375 73 
Q 24.125 74.21875 28.421875 74.21875 
Q 39.75 74.21875 46.484375 68.546875 
Q 53.21875 62.890625 53.21875 53.421875 
Q 53.21875 48.921875 51.53125 44.890625 
Q 49.859375 40.875 45.40625 35.40625 
Q 44.1875 33.984375 37.640625 27.21875 
Q 31.109375 20.453125 19.1875 8.296875 
z
" id="DejaVuSans-32"/>
      </defs>
      <g transform="translate(130.530362 258.018438)scale(0.1 -0.1)">
       <use xlink:href="#DejaVuSans-32"/>
       <use x="63.623047" xlink:href="#DejaVuSans-30"/>
      </g>
     </g>
    </g>
    <g id="xtick_4">
     <g id="line2d_4">
      <g>
       <use style="stroke:#000000;stroke-width:0.8;" x="178.593446" xlink:href="#mc5113a1ff1" y="243.42"/>
      </g>
     </g>
     <g id="text_4">
      <!-- 30 -->
      <defs>
       <path d="M 40.578125 39.3125 
Q 47.65625 37.796875 51.625 33 
Q 55.609375 28.21875 55.609375 21.1875 
Q 55.609375 10.40625 48.1875 4.484375 
Q 40.765625 -1.421875 27.09375 -1.421875 
Q 22.515625 -1.421875 17.65625 -0.515625 
Q 12.796875 0.390625 7.625 2.203125 
L 7.625 11.71875 
Q 11.71875 9.328125 16.59375 8.109375 
Q 21.484375 6.890625 26.8125 6.890625 
Q 36.078125 6.890625 40.9375 10.546875 
Q 45.796875 14.203125 45.796875 21.1875 
Q 45.796875 27.640625 41.28125 31.265625 
Q 36.765625 34.90625 28.71875 34.90625 
L 20.21875 34.90625 
L 20.21875 43.015625 
L 29.109375 43.015625 
Q 36.375 43.015625 40.234375 45.921875 
Q 44.09375 48.828125 44.09375 54.296875 
Q 44.09375 59.90625 40.109375 62.90625 
Q 36.140625 65.921875 28.71875 65.921875 
Q 24.65625 65.921875 20.015625 65.03125 
Q 15.375 64.15625 9.8125 62.3125 
L 9.8125 71.09375 
Q 15.4375 72.65625 20.34375 73.4375 
Q 25.25 74.21875 29.59375 74.21875 
Q 40.828125 74.21875 47.359375 69.109375 
Q 53.90625 64.015625 53.90625 55.328125 
Q 53.90625 49.265625 50.4375 45.09375 
Q 46.96875 40.921875 40.578125 39.3125 
z
" id="DejaVuSans-33"/>
      </defs>
      <g transform="translate(172.230946 258.018438)scale(0.1 -0.1)">
       <use xlink:href="#DejaVuSans-33"/>
       <use x="63.623047" xlink:href="#DejaVuSans-30"/>
      </g>
     </g>
    </g>
    <g id="xtick_5">
     <g id="line2d_5">
      <g>
       <use style="stroke:#000000;stroke-width:0.8;" x="220.29403" xlink:href="#mc5113a1ff1" y="243.42"/>
      </g>
     </g>
     <g id="text_5">
      <!-- 40 -->
      <defs>
       <path d="M 37.796875 64.3125 
L 12.890625 25.390625 
L 37.796875 25.390625 
z
M 35.203125 72.90625 
L 47.609375 72.90625 
L 47.609375 25.390625 
L 58.015625 25.390625 
L 58.015625 17.1875 
L 47.609375 17.1875 
L 47.609375 0 
L 37.796875 0 
L 37.796875 17.1875 
L 4.890625 17.1875 
L 4.890625 26.703125 
z
" id="DejaVuSans-34"/>
      </defs>
      <g transform="translate(213.93153 258.018438)scale(0.1 -0.1)">
       <use xlink:href="#DejaVuSans-34"/>
       <use x="63.623047" xlink:href="#DejaVuSans-30"/>
      </g>
     </g>
    </g>
    <g id="xtick_6">
     <g id="line2d_6">
      <g>
       <use style="stroke:#000000;stroke-width:0.8;" x="261.994614" xlink:href="#mc5113a1ff1" y="243.42"/>
      </g>
     </g>
     <g id="text_6">
      <!-- 50 -->
      <defs>
       <path d="M 10.796875 72.90625 
L 49.515625 72.90625 
L 49.515625 64.59375 
L 19.828125 64.59375 
L 19.828125 46.734375 
Q 21.96875 47.46875 24.109375 47.828125 
Q 26.265625 48.1875 28.421875 48.1875 
Q 40.625 48.1875 47.75 41.5 
Q 54.890625 34.8125 54.890625 23.390625 
Q 54.890625 11.625 47.5625 5.09375 
Q 40.234375 -1.421875 26.90625 -1.421875 
Q 22.3125 -1.421875 17.546875 -0.640625 
Q 12.796875 0.140625 7.71875 1.703125 
L 7.71875 11.625 
Q 12.109375 9.234375 16.796875 8.0625 
Q 21.484375 6.890625 26.703125 6.890625 
Q 35.15625 6.890625 40.078125 11.328125 
Q 45.015625 15.765625 45.015625 23.390625 
Q 45.015625 31 40.078125 35.4375 
Q 35.15625 39.890625 26.703125 39.890625 
Q 22.75 39.890625 18.8125 39.015625 
Q 14.890625 38.140625 10.796875 36.28125 
z
" id="DejaVuSans-35"/>
      </defs>
      <g transform="translate(255.632114 258.018438)scale(0.1 -0.1)">
       <use xlink:href="#DejaVuSans-35"/>
       <use x="63.623047" xlink:href="#DejaVuSans-30"/>
      </g>
     </g>
    </g>
    <g id="text_7">
     <!-- x -->
     <defs>
      <path d="M 54.890625 54.6875 
L 35.109375 28.078125 
L 55.90625 0 
L 45.3125 0 
L 29.390625 21.484375 
L 13.484375 0 
L 2.875 0 
L 24.125 28.609375 
L 4.6875 54.6875 
L 15.28125 54.6875 
L 29.78125 35.203125 
L 44.28125 54.6875 
z
" id="DejaVuSans-78"/>
     </defs>
     <g transform="translate(152.69875 271.696562)scale(0.1 -0.1)">
      <use xlink:href="#DejaVuSans-78"/>
     </g>
    </g>
   </g>
   <g id="matplotlib.axis_2">
    <g id="ytick_1">
     <g id="line2d_7">
      <defs>
       <path d="M 0 0 
L -3.5 0 
" id="m25632b48b6" style="stroke:#000000;stroke-width:0.8;"/>
      </defs>
      <g>
       <use style="stroke:#000000;stroke-width:0.8;" x="40.603125" xlink:href="#m25632b48b6" y="232.396366"/>
      </g>
     </g>
     <g id="text_8">
      <!-- 0 -->
      <g transform="translate(27.240625 236.195585)scale(0.1 -0.1)">
       <use xlink:href="#DejaVuSans-30"/>
      </g>
     </g>
    </g>
    <g id="ytick_2">
     <g id="line2d_8">
      <g>
       <use style="stroke:#000000;stroke-width:0.8;" x="40.603125" xlink:href="#m25632b48b6" y="191.148922"/>
      </g>
     </g>
     <g id="text_9">
      <!-- 10 -->
      <g transform="translate(20.878125 194.94814)scale(0.1 -0.1)">
       <use xlink:href="#DejaVuSans-31"/>
       <use x="63.623047" xlink:href="#DejaVuSans-30"/>
      </g>
     </g>
    </g>
    <g id="ytick_3">
     <g id="line2d_9">
      <g>
       <use style="stroke:#000000;stroke-width:0.8;" x="40.603125" xlink:href="#m25632b48b6" y="149.901477"/>
      </g>
     </g>
     <g id="text_10">
      <!-- 20 -->
      <g transform="translate(20.878125 153.700696)scale(0.1 -0.1)">
       <use xlink:href="#DejaVuSans-32"/>
       <use x="63.623047" xlink:href="#DejaVuSans-30"/>
      </g>
     </g>
    </g>
    <g id="ytick_4">
     <g id="line2d_10">
      <g>
       <use style="stroke:#000000;stroke-width:0.8;" x="40.603125" xlink:href="#m25632b48b6" y="108.654032"/>
      </g>
     </g>
     <g id="text_11">
      <!-- 30 -->
      <g transform="translate(20.878125 112.453251)scale(0.1 -0.1)">
       <use xlink:href="#DejaVuSans-33"/>
       <use x="63.623047" xlink:href="#DejaVuSans-30"/>
      </g>
     </g>
    </g>
    <g id="ytick_5">
     <g id="line2d_11">
      <g>
       <use style="stroke:#000000;stroke-width:0.8;" x="40.603125" xlink:href="#m25632b48b6" y="67.406588"/>
      </g>
     </g>
     <g id="text_12">
      <!-- 40 -->
      <g transform="translate(20.878125 71.205806)scale(0.1 -0.1)">
       <use xlink:href="#DejaVuSans-34"/>
       <use x="63.623047" xlink:href="#DejaVuSans-30"/>
      </g>
     </g>
    </g>
    <g id="ytick_6">
     <g id="line2d_12">
      <g>
       <use style="stroke:#000000;stroke-width:0.8;" x="40.603125" xlink:href="#m25632b48b6" y="26.159143"/>
      </g>
     </g>
     <g id="text_13">
      <!-- 50 -->
      <g transform="translate(20.878125 29.958362)scale(0.1 -0.1)">
       <use xlink:href="#DejaVuSans-35"/>
       <use x="63.623047" xlink:href="#DejaVuSans-30"/>
      </g>
     </g>
    </g>
    <g id="text_14">
     <!-- y -->
     <defs>
      <path d="M 32.171875 -5.078125 
Q 28.375 -14.84375 24.75 -17.8125 
Q 21.140625 -20.796875 15.09375 -20.796875 
L 7.90625 -20.796875 
L 7.90625 -13.28125 
L 13.1875 -13.28125 
Q 16.890625 -13.28125 18.9375 -11.515625 
Q 21 -9.765625 23.484375 -3.21875 
L 25.09375 0.875 
L 2.984375 54.6875 
L 12.5 54.6875 
L 29.59375 11.921875 
L 46.6875 54.6875 
L 56.203125 54.6875 
z
" id="DejaVuSans-79"/>
     </defs>
     <g transform="translate(14.798438 130.019375)rotate(-90)scale(0.1 -0.1)">
      <use xlink:href="#DejaVuSans-79"/>
     </g>
    </g>
   </g>
   <g id="line2d_13">
    <path clip-path="url(#pdcac954d1e)" d="M 40.603125 232.012543 
L 42.927468 229.883913 
L 45.251812 227.755283 
L 47.576155 225.626653 
L 49.900499 223.498023 
L 52.224842 221.369393 
L 54.549186 219.240763 
L 56.873529 217.112134 
L 59.197872 214.983504 
L 61.522216 212.854874 
L 63.846559 210.726244 
L 66.170903 208.597614 
L 68.495246 206.468984 
L 70.81959 204.340354 
L 73.143933 202.211724 
L 75.468277 200.083094 
L 77.79262 197.954464 
L 80.116963 195.825834 
L 82.441307 193.697205 
L 84.76565 191.568575 
L 87.089994 189.439945 
L 89.414337 187.311315 
L 91.738681 185.182685 
L 94.063024 183.054055 
L 96.387367 180.925425 
L 98.711711 178.796795 
L 101.036054 176.668165 
L 103.360398 174.539535 
L 105.684741 172.410905 
L 108.009085 170.282276 
L 110.333428 168.153646 
L 112.657771 166.025016 
L 114.982115 163.896386 
L 117.306458 161.767756 
L 119.630802 159.639126 
L 121.955145 157.510496 
L 124.279489 155.381866 
L 126.603832 153.253236 
L 128.928176 151.124606 
L 131.252519 148.995976 
L 133.576862 146.867347 
L 135.901206 144.738717 
L 138.225549 142.610087 
L 140.549893 140.481457 
L 142.874236 138.352827 
L 145.19858 136.224197 
L 147.522923 134.095567 
L 149.847266 131.966937 
L 152.17161 129.838307 
L 154.495953 127.709677 
L 156.820297 125.581047 
L 159.14464 123.452417 
L 161.468984 121.323788 
L 163.793327 119.195158 
L 166.11767 117.066528 
L 168.442014 114.937898 
L 170.766357 112.809268 
L 173.090701 110.680638 
L 175.415044 108.552008 
L 177.739388 106.423378 
L 180.063731 104.294748 
L 182.388074 102.166118 
L 184.712418 100.037488 
L 187.036761 97.908859 
L 189.361105 95.780229 
L 191.685448 93.651599 
L 194.009792 91.522969 
L 196.334135 89.394339 
L 198.658479 87.265709 
L 200.982822 85.137079 
L 203.307165 83.008449 
L 205.631509 80.879819 
L 207.955852 78.751189 
L 210.280196 76.622559 
L 212.604539 74.49393 
L 214.928883 72.3653 
L 217.253226 70.23667 
L 219.577569 68.10804 
L 221.901913 65.97941 
L 224.226256 63.85078 
L 226.5506 61.72215 
L 228.874943 59.59352 
L 231.199287 57.46489 
L 233.52363 55.33626 
L 235.847973 53.20763 
L 238.172317 51.079001 
L 240.49666 48.950371 
L 242.821004 46.821741 
L 245.145347 44.693111 
L 247.469691 42.564481 
L 249.794034 40.435851 
L 252.118378 38.307221 
L 254.442721 36.178591 
L 256.767064 34.049961 
L 259.091408 31.921331 
L 261.415751 29.792701 
L 263.740095 27.664072 
L 266.064438 25.535442 
L 268.388782 23.406812 
L 270.713125 21.278182 
" style="fill:none;stroke:#1f77b4;stroke-linecap:square;stroke-width:2.25;"/>
   </g>
   <g id="patch_3">
    <path d="M 40.603125 243.42 
L 40.603125 10.7 
" style="fill:none;stroke:#000000;stroke-linecap:square;stroke-linejoin:miter;stroke-width:0.8;"/>
   </g>
   <g id="patch_4">
    <path d="M 40.603125 243.42 
L 270.713125 243.42 
" style="fill:none;stroke:#000000;stroke-linecap:square;stroke-linejoin:miter;stroke-width:0.8;"/>
   </g>
  </g>
 </g>
 <defs>
  <clipPath id="pdcac954d1e">
   <rect height="232.72" width="230.11" x="40.603125" y="10.7"/>
  </clipPath>
 </defs>
</svg>
