<?xml version="1.0" encoding="UTF-8" standalone="no"?>
<!DOCTYPE svg PUBLIC "-//W3C//DTD SVG 1.1//EN"
 "http://www.w3.org/Graphics/SVG/1.1/DTD/svg11.dtd">
<!-- Generated by graphviz version 2.39.20150211.0545 (20150211.0545)
 -->
<!-- Title: deps Pages: 1 -->
<svg width="696pt" height="405pt"
 viewBox="0.00 0.00 695.92 405.00" xmlns="http://www.w3.org/2000/svg" xmlns:xlink="http://www.w3.org/1999/xlink">
<g id="graph0" class="graph" transform="scale(1 1) rotate(0) translate(4 400.996)">
<title>deps</title>
<polygon fill="white" stroke="transparent" points="-4,4 -4,-400.996 691.921,-400.996 691.921,4 -4,4"/>
<!-- syscall -->
<g id="node1" class="node"><title>syscall</title>
<ellipse fill="none" stroke="black" cx="641.824" cy="-106.384" rx="35.9954" ry="18"/>
<text text-anchor="middle" x="641.824" y="-102.684" font-family="Times,serif" font-size="14.00">syscall</text>
</g>
<!-- errors -->
<g id="node6" class="node"><title>errors</title>
<ellipse fill="none" stroke="black" cx="402.363" cy="-105.77" rx="31.6951" ry="18"/>
<text text-anchor="middle" x="402.363" y="-102.07" font-family="Times,serif" font-size="14.00">errors</text>
</g>
<!-- syscall&#45;&gt;errors -->
<g id="edge13" class="edge"><title>syscall&#45;&gt;errors</title>
<path fill="none" stroke="black" d="M605.974,-106.292C562.762,-106.182 490.255,-105.996 444.435,-105.878"/>
<polygon fill="black" stroke="black" points="444.249,-102.378 434.24,-105.852 444.231,-109.378 444.249,-102.378"/>
</g>
<!-- sync -->
<g id="node8" class="node"><title>sync</title>
<ellipse fill="none" stroke="black" cx="465.369" cy="-246.921" rx="27.0966" ry="18"/>
<text text-anchor="middle" x="465.369" y="-243.221" font-family="Times,serif" font-size="14.00">sync</text>
</g>
<!-- syscall&#45;&gt;sync -->
<g id="edge14" class="edge"><title>syscall&#45;&gt;sync</title>
<path fill="none" stroke="black" d="M622.604,-121.692C590.685,-147.114 526.727,-198.053 491.002,-226.506"/>
<polygon fill="black" stroke="black" points="488.627,-223.923 482.985,-232.89 492.988,-229.398 488.627,-223.923"/>
</g>
<!-- unicode_utf8 -->
<g id="node2" class="node"><title>unicode_utf8</title>
<ellipse fill="none" stroke="black" cx="89.1481" cy="-18" rx="56.59" ry="18"/>
<text text-anchor="middle" x="89.1481" y="-14.3" font-family="Times,serif" font-size="14.00">unicode/utf8</text>
</g>
<!-- strconv -->
<g id="node3" class="node"><title>strconv</title>
<ellipse fill="none" stroke="black" cx="133.813" cy="-155.91" rx="37.8943" ry="18"/>
<text text-anchor="middle" x="133.813" y="-152.21" font-family="Times,serif" font-size="14.00">strconv</text>
</g>
<!-- strconv&#45;&gt;unicode_utf8 -->
<g id="edge24" class="edge"><title>strconv&#45;&gt;unicode_utf8</title>
<path fill="none" stroke="black" d="M127.974,-137.881C120.384,-114.445 107.05,-73.2752 98.158,-45.8194"/>
<polygon fill="black" stroke="black" points="101.4,-44.4688 94.9887,-36.0338 94.7402,-46.6257 101.4,-44.4688"/>
</g>
<!-- math -->
<g id="node4" class="node"><title>math</title>
<ellipse fill="none" stroke="black" cx="28.5975" cy="-292.685" rx="28.6953" ry="18"/>
<text text-anchor="middle" x="28.5975" y="-288.985" font-family="Times,serif" font-size="14.00">math</text>
</g>
<!-- strconv&#45;&gt;math -->
<g id="edge23" class="edge"><title>strconv&#45;&gt;math</title>
<path fill="none" stroke="black" d="M120.7,-172.956C102.229,-196.968 68.4483,-240.881 47.3333,-268.329"/>
<polygon fill="black" stroke="black" points="44.5411,-266.219 41.2179,-276.279 50.0894,-270.487 44.5411,-266.219"/>
</g>
<!-- strconv&#45;&gt;errors -->
<g id="edge22" class="edge"><title>strconv&#45;&gt;errors</title>
<path fill="none" stroke="black" d="M169.198,-149.304C219.003,-140.005 309.54,-123.101 361.938,-113.318"/>
<polygon fill="black" stroke="black" points="362.698,-116.737 371.886,-111.461 361.413,-109.856 362.698,-116.737"/>
</g>
<!-- io -->
<g id="node5" class="node"><title>io</title>
<ellipse fill="none" stroke="black" cx="399.852" cy="-323.795" rx="27" ry="18"/>
<text text-anchor="middle" x="399.852" y="-320.095" font-family="Times,serif" font-size="14.00">io</text>
</g>
<!-- io&#45;&gt;errors -->
<g id="edge3" class="edge"><title>io&#45;&gt;errors</title>
<path fill="none" stroke="black" d="M400.062,-305.582C400.501,-267.493 401.518,-179.204 402.04,-133.819"/>
<polygon fill="black" stroke="black" points="405.541,-133.819 402.156,-123.779 398.541,-133.738 405.541,-133.819"/>
</g>
<!-- io&#45;&gt;sync -->
<g id="edge4" class="edge"><title>io&#45;&gt;sync</title>
<path fill="none" stroke="black" d="M413.427,-307.867C422.563,-297.147 434.773,-282.821 445.059,-270.752"/>
<polygon fill="black" stroke="black" points="447.989,-272.71 451.811,-262.829 442.661,-268.17 447.989,-272.71"/>
</g>
<!-- sync_atomic -->
<g id="node7" class="node"><title>sync_atomic</title>
<ellipse fill="none" stroke="black" cx="633.326" cy="-378.996" rx="54.6905" ry="18"/>
<text text-anchor="middle" x="633.326" y="-375.296" font-family="Times,serif" font-size="14.00">sync/atomic</text>
</g>
<!-- sync&#45;&gt;sync_atomic -->
<g id="edge5" class="edge"><title>sync&#45;&gt;sync_atomic</title>
<path fill="none" stroke="black" d="M483.026,-260.806C511.798,-283.431 569.085,-328.48 604.028,-355.957"/>
<polygon fill="black" stroke="black" points="601.95,-358.776 611.975,-362.206 606.277,-353.274 601.95,-358.776"/>
</g>
<!-- fmt -->
<g id="node9" class="node"><title>fmt</title>
<ellipse fill="none" stroke="black" cx="264.186" cy="-199.098" rx="23.3111" ry="23.3111"/>
<ellipse fill="none" stroke="black" cx="264.186" cy="-199.098" rx="27.2962" ry="27.2962"/>
<text text-anchor="middle" x="264.186" y="-195.398" font-family="Times,serif" font-size="14.00">fmt</text>
</g>
<!-- fmt&#45;&gt;unicode_utf8 -->
<g id="edge28" class="edge"><title>fmt&#45;&gt;unicode_utf8</title>
<path fill="none" stroke="black" d="M245.121,-179.373C212.942,-146.08 147.939,-78.8267 112.867,-42.5404"/>
<polygon fill="black" stroke="black" points="115.327,-40.0487 105.86,-35.2908 110.293,-44.9136 115.327,-40.0487"/>
</g>
<!-- fmt&#45;&gt;strconv -->
<g id="edge26" class="edge"><title>fmt&#45;&gt;strconv</title>
<path fill="none" stroke="black" d="M238.117,-190.462C219.898,-184.427 195.211,-176.249 174.428,-169.364"/>
<polygon fill="black" stroke="black" points="175.482,-166.027 164.888,-166.204 173.28,-172.671 175.482,-166.027"/>
</g>
<!-- fmt&#45;&gt;math -->
<g id="edge6" class="edge"><title>fmt&#45;&gt;math</title>
<path fill="none" stroke="black" d="M238.526,-209.292C195.772,-226.275 109.968,-260.361 62.3619,-279.272"/>
<polygon fill="black" stroke="black" points="60.8137,-276.121 52.8123,-283.066 63.398,-282.626 60.8137,-276.121"/>
</g>
<!-- fmt&#45;&gt;io -->
<g id="edge2" class="edge"><title>fmt&#45;&gt;io</title>
<path fill="none" stroke="black" d="M284.497,-217.767C309.015,-240.302 350.178,-278.138 376.131,-301.992"/>
<polygon fill="black" stroke="black" points="373.93,-304.723 383.661,-308.914 378.668,-299.57 373.93,-304.723"/>
</g>
<!-- fmt&#45;&gt;errors -->
<g id="edge1" class="edge"><title>fmt&#45;&gt;errors</title>
<path fill="none" stroke="black" d="M287.003,-183.687C310.591,-167.756 347.496,-142.829 373.19,-125.475"/>
<polygon fill="black" stroke="black" points="375.442,-128.177 381.77,-119.68 371.524,-122.376 375.442,-128.177"/>
</g>
<!-- fmt&#45;&gt;sync -->
<g id="edge27" class="edge"><title>fmt&#45;&gt;sync</title>
<path fill="none" stroke="black" d="M290.902,-205.449C326.594,-213.933 389.943,-228.992 429.69,-238.44"/>
<polygon fill="black" stroke="black" points="428.961,-241.864 439.5,-240.772 430.58,-235.054 428.961,-241.864"/>
</g>
<!-- os -->
<g id="node10" class="node"><title>os</title>
<ellipse fill="none" stroke="black" cx="536.454" cy="-200.396" rx="27" ry="18"/>
<text text-anchor="middle" x="536.454" y="-196.696" font-family="Times,serif" font-size="14.00">os</text>
</g>
<!-- fmt&#45;&gt;os -->
<g id="edge7" class="edge"><title>fmt&#45;&gt;os</title>
<path fill="none" stroke="black" d="M291.791,-199.23C340.943,-199.464 443.657,-199.953 499.081,-200.217"/>
<polygon fill="black" stroke="black" points="499.164,-203.718 509.181,-200.266 499.198,-196.718 499.164,-203.718"/>
</g>
<!-- reflect -->
<g id="node11" class="node"><title>reflect</title>
<ellipse fill="none" stroke="black" cx="191.867" cy="-332.308" rx="33.2948" ry="18"/>
<text text-anchor="middle" x="191.867" y="-328.608" font-family="Times,serif" font-size="14.00">reflect</text>
</g>
<!-- fmt&#45;&gt;reflect -->
<g id="edge19" class="edge"><title>fmt&#45;&gt;reflect</title>
<path fill="none" stroke="black" d="M251.09,-223.222C238.441,-246.52 219.33,-281.722 206.261,-305.795"/>
<polygon fill="black" stroke="black" points="203.1,-304.281 201.405,-314.739 209.252,-307.621 203.1,-304.281"/>
</g>
<!-- os&#45;&gt;syscall -->
<g id="edge12" class="edge"><title>os&#45;&gt;syscall</title>
<path fill="none" stroke="black" d="M552.918,-185.706C569.909,-170.547 596.643,-146.695 616.361,-129.102"/>
<polygon fill="black" stroke="black" points="618.937,-131.495 624.068,-122.226 614.277,-126.272 618.937,-131.495"/>
</g>
<!-- os&#45;&gt;io -->
<g id="edge9" class="edge"><title>os&#45;&gt;io</title>
<path fill="none" stroke="black" d="M520.248,-215.036C496.319,-236.651 451.389,-277.239 423.698,-302.255"/>
<polygon fill="black" stroke="black" points="421.112,-299.874 416.038,-309.174 425.804,-305.068 421.112,-299.874"/>
</g>
<!-- os&#45;&gt;errors -->
<g id="edge8" class="edge"><title>os&#45;&gt;errors</title>
<path fill="none" stroke="black" d="M517.809,-187.238C495.31,-171.361 457.239,-144.495 431.005,-125.982"/>
<polygon fill="black" stroke="black" points="432.79,-122.958 422.602,-120.052 428.754,-128.678 432.79,-122.958"/>
</g>
<!-- os&#45;&gt;sync_atomic -->
<g id="edge11" class="edge"><title>os&#45;&gt;sync_atomic</title>
<path fill="none" stroke="black" d="M545.743,-217.521C562.609,-248.618 598.393,-314.592 618.613,-351.87"/>
<polygon fill="black" stroke="black" points="615.791,-354.009 623.636,-361.131 621.945,-350.672 615.791,-354.009"/>
</g>
<!-- os&#45;&gt;sync -->
<g id="edge10" class="edge"><title>os&#45;&gt;sync</title>
<path fill="none" stroke="black" d="M517.03,-213.109C509.664,-217.93 501.126,-223.518 493.139,-228.745"/>
<polygon fill="black" stroke="black" points="491.22,-225.818 484.77,-234.223 495.054,-231.675 491.22,-225.818"/>
</g>
<!-- time -->
<g id="node12" class="node"><title>time</title>
<ellipse fill="none" stroke="black" cx="561.1" cy="-26.3537" rx="27" ry="18"/>
<text text-anchor="middle" x="561.1" y="-22.6537" font-family="Times,serif" font-size="14.00">time</text>
</g>
<!-- os&#45;&gt;time -->
<g id="edge15" class="edge"><title>os&#45;&gt;time</title>
<path fill="none" stroke="black" d="M538.999,-182.426C543.279,-152.202 551.951,-90.962 557.068,-54.8314"/>
<polygon fill="black" stroke="black" points="560.596,-54.8787 558.532,-44.4867 553.665,-53.8971 560.596,-54.8787"/>
</g>
<!-- reflect&#45;&gt;strconv -->
<g id="edge21" class="edge"><title>reflect&#45;&gt;strconv</title>
<path fill="none" stroke="black" d="M185.981,-314.424C175.81,-283.52 154.884,-219.933 142.855,-183.384"/>
<polygon fill="black" stroke="black" points="146.166,-182.247 139.715,-173.842 139.517,-184.435 146.166,-182.247"/>
</g>
<!-- reflect&#45;&gt;math -->
<g id="edge20" class="edge"><title>reflect&#45;&gt;math</title>
<path fill="none" stroke="black" d="M161.54,-324.948C134.317,-318.342 94.2933,-308.628 65.2785,-301.587"/>
<polygon fill="black" stroke="black" points="66.0572,-298.174 55.5138,-299.217 64.4062,-304.977 66.0572,-298.174"/>
</g>
<!-- reflect&#45;&gt;sync -->
<g id="edge25" class="edge"><title>reflect&#45;&gt;sync</title>
<path fill="none" stroke="black" d="M220.62,-323.332C271.361,-307.49 376.568,-274.645 431.031,-257.641"/>
<polygon fill="black" stroke="black" points="432.083,-260.979 440.586,-254.658 429.997,-254.297 432.083,-260.979"/>
</g>
<!-- time&#45;&gt;syscall -->
<g id="edge18" class="edge"><title>time&#45;&gt;syscall</title>
<path fill="none" stroke="black" d="M576.284,-41.4069C588.153,-53.1738 604.858,-69.7355 618.432,-83.1933"/>
<polygon fill="black" stroke="black" points="616.035,-85.7452 625.601,-90.3003 620.963,-80.7742 616.035,-85.7452"/>
</g>
<!-- time&#45;&gt;errors -->
<g id="edge16" class="edge"><title>time&#45;&gt;errors</title>
<path fill="none" stroke="black" d="M539.361,-37.2297C512.583,-50.6272 466.815,-73.5253 435.611,-89.1366"/>
<polygon fill="black" stroke="black" points="433.809,-86.1245 426.432,-93.729 436.941,-92.3848 433.809,-86.1245"/>
</g>
<!-- time&#45;&gt;sync -->
<g id="edge17" class="edge"><title>time&#45;&gt;sync</title>
<path fill="none" stroke="black" d="M553.588,-43.6612C536.957,-81.9798 496.928,-174.208 477.019,-220.079"/>
<polygon fill="black" stroke="black" points="473.749,-218.822 472.978,-229.389 480.171,-221.609 473.749,-218.822"/>
</g>
</g>
</svg>
