<?xml version="1.0" encoding="UTF-8" standalone="no"?>
<!DOCTYPE svg PUBLIC "-//W3C//DTD SVG 1.1//EN"
 "http://www.w3.org/Graphics/SVG/1.1/DTD/svg11.dtd">
<!-- Generated by graphviz version 2.39.20150211.0545 (20150211.0545)
 -->
<!-- Title: deps Pages: 1 -->
<svg width="1105pt" height="579pt"
 viewBox="0.00 0.00 1104.67 579.04" xmlns="http://www.w3.org/2000/svg" xmlns:xlink="http://www.w3.org/1999/xlink">
<g id="graph0" class="graph" transform="scale(1 1) rotate(0) translate(4 575.035)">
<title>deps</title>
<polygon fill="white" stroke="transparent" points="-4,4 -4,-575.035 1100.67,-575.035 1100.67,4 -4,4"/>
<!-- strings -->
<g id="node1" class="node"><title>strings</title>
<ellipse fill="none" stroke="black" cx="400.392" cy="-460.206" rx="35.194" ry="18"/>
<text text-anchor="middle" x="400.392" y="-456.506" font-family="Times,serif" font-size="14.00">strings</text>
</g>
<!-- io -->
<g id="node6" class="node"><title>io</title>
<ellipse fill="none" stroke="black" cx="598.649" cy="-402.609" rx="27" ry="18"/>
<text text-anchor="middle" x="598.649" y="-398.909" font-family="Times,serif" font-size="14.00">io</text>
</g>
<!-- strings&#45;&gt;io -->
<g id="edge75" class="edge"><title>strings&#45;&gt;io</title>
<path fill="none" stroke="black" d="M430.935,-451.333C466.777,-440.92 526.081,-423.691 563.718,-412.757"/>
<polygon fill="black" stroke="black" points="565.096,-416.001 573.722,-409.85 563.143,-409.279 565.096,-416.001"/>
</g>
<!-- unicode_utf8 -->
<g id="node10" class="node"><title>unicode_utf8</title>
<ellipse fill="none" stroke="black" cx="351.566" cy="-359.29" rx="56.59" ry="18"/>
<text text-anchor="middle" x="351.566" y="-355.59" font-family="Times,serif" font-size="14.00">unicode/utf8</text>
</g>
<!-- strings&#45;&gt;unicode_utf8 -->
<g id="edge77" class="edge"><title>strings&#45;&gt;unicode_utf8</title>
<path fill="none" stroke="black" d="M391.887,-442.628C384.418,-427.19 373.43,-404.479 364.81,-386.663"/>
<polygon fill="black" stroke="black" points="367.808,-384.824 360.302,-377.346 361.507,-387.872 367.808,-384.824"/>
</g>
<!-- errors -->
<g id="node16" class="node"><title>errors</title>
<ellipse fill="none" stroke="black" cx="647.764" cy="-336.591" rx="31.6951" ry="18"/>
<text text-anchor="middle" x="647.764" y="-332.891" font-family="Times,serif" font-size="14.00">errors</text>
</g>
<!-- strings&#45;&gt;errors -->
<g id="edge74" class="edge"><title>strings&#45;&gt;errors</title>
<path fill="none" stroke="black" d="M425.934,-447.443C471.046,-424.9 564.773,-378.063 614.733,-353.097"/>
<polygon fill="black" stroke="black" points="616.441,-356.156 623.822,-348.555 613.312,-349.894 616.441,-356.156"/>
</g>
<!-- unicode -->
<g id="node19" class="node"><title>unicode</title>
<ellipse fill="none" stroke="black" cx="260.528" cy="-553.035" rx="39.7935" ry="18"/>
<text text-anchor="middle" x="260.528" y="-549.335" font-family="Times,serif" font-size="14.00">unicode</text>
</g>
<!-- strings&#45;&gt;unicode -->
<g id="edge76" class="edge"><title>strings&#45;&gt;unicode</title>
<path fill="none" stroke="black" d="M378.845,-474.507C355.575,-489.951 318.287,-514.7 291.795,-532.283"/>
<polygon fill="black" stroke="black" points="289.657,-529.501 283.261,-537.947 293.528,-535.333 289.657,-529.501"/>
</g>
<!-- sort -->
<g id="node2" class="node"><title>sort</title>
<ellipse fill="none" stroke="black" cx="160.355" cy="-18" rx="27" ry="18"/>
<text text-anchor="middle" x="160.355" y="-14.3" font-family="Times,serif" font-size="14.00">sort</text>
</g>
<!-- bytes -->
<g id="node3" class="node"><title>bytes</title>
<ellipse fill="none" stroke="black" cx="449.446" cy="-525.398" rx="29.795" ry="18"/>
<text text-anchor="middle" x="449.446" y="-521.698" font-family="Times,serif" font-size="14.00">bytes</text>
</g>
<!-- bytes&#45;&gt;io -->
<g id="edge31" class="edge"><title>bytes&#45;&gt;io</title>
<path fill="none" stroke="black" d="M467.147,-510.83C493.536,-489.113 543.311,-448.15 573.478,-423.324"/>
<polygon fill="black" stroke="black" points="575.933,-425.836 581.431,-416.779 571.485,-420.431 575.933,-425.836"/>
</g>
<!-- bytes&#45;&gt;unicode_utf8 -->
<g id="edge36" class="edge"><title>bytes&#45;&gt;unicode_utf8</title>
<path fill="none" stroke="black" d="M439.339,-508.247C422.285,-479.304 387.669,-420.559 367.377,-386.122"/>
<polygon fill="black" stroke="black" points="370.152,-383.937 362.06,-377.098 364.121,-387.491 370.152,-383.937"/>
</g>
<!-- bytes&#45;&gt;errors -->
<g id="edge30" class="edge"><title>bytes&#45;&gt;errors</title>
<path fill="none" stroke="black" d="M465.675,-509.947C500.612,-476.686 583.08,-398.173 623.951,-359.262"/>
<polygon fill="black" stroke="black" points="626.481,-361.685 631.311,-352.255 621.655,-356.616 626.481,-361.685"/>
</g>
<!-- bytes&#45;&gt;unicode -->
<g id="edge35" class="edge"><title>bytes&#45;&gt;unicode</title>
<path fill="none" stroke="black" d="M420.341,-529.656C390.573,-534.011 343.82,-540.85 308.557,-546.009"/>
<polygon fill="black" stroke="black" points="307.866,-542.573 298.478,-547.483 308.879,-549.499 307.866,-542.573"/>
</g>
<!-- math -->
<g id="node4" class="node"><title>math</title>
<ellipse fill="none" stroke="black" cx="426.342" cy="-47.1262" rx="28.6953" ry="18"/>
<text text-anchor="middle" x="426.342" y="-43.4262" font-family="Times,serif" font-size="14.00">math</text>
</g>
<!-- unicode_utf16 -->
<g id="node5" class="node"><title>unicode_utf16</title>
<ellipse fill="none" stroke="black" cx="61.0946" cy="-171.305" rx="61.1893" ry="18"/>
<text text-anchor="middle" x="61.0946" y="-167.605" font-family="Times,serif" font-size="14.00">unicode/utf16</text>
</g>
<!-- io&#45;&gt;errors -->
<g id="edge3" class="edge"><title>io&#45;&gt;errors</title>
<path fill="none" stroke="black" d="M616.386,-388.859C623,-381.316 630.273,-371.768 636.222,-362.882"/>
<polygon fill="black" stroke="black" points="639.255,-364.635 641.656,-354.316 633.344,-360.886 639.255,-364.635"/>
</g>
<!-- io&#45;&gt;errors -->
<g id="edge32" class="edge"><title>io&#45;&gt;errors</title>
<path fill="none" stroke="black" d="M604.75,-384.894C609.413,-377.052 615.917,-367.771 622.493,-359.43"/>
<polygon fill="black" stroke="black" points="625.374,-361.437 629.026,-351.492 619.969,-356.989 625.374,-361.437"/>
</g>
<!-- sync -->
<g id="node20" class="node"><title>sync</title>
<ellipse fill="none" stroke="black" cx="738.77" cy="-225.238" rx="27.0966" ry="18"/>
<text text-anchor="middle" x="738.77" y="-221.538" font-family="Times,serif" font-size="14.00">sync</text>
</g>
<!-- io&#45;&gt;sync -->
<g id="edge4" class="edge"><title>io&#45;&gt;sync</title>
<path fill="none" stroke="black" d="M615.363,-388.192C643.278,-358.097 698.356,-288.652 724.542,-250.814"/>
<polygon fill="black" stroke="black" points="727.556,-252.606 730.254,-242.36 721.756,-248.687 727.556,-252.606"/>
</g>
<!-- io&#45;&gt;sync -->
<g id="edge33" class="edge"><title>io&#45;&gt;sync</title>
<path fill="none" stroke="black" d="M607.258,-385.345C628.565,-352.898 683.228,-283.2 715.061,-247.375"/>
<polygon fill="black" stroke="black" points="717.75,-249.62 721.868,-239.858 712.561,-244.921 717.75,-249.62"/>
</g>
<!-- syscall -->
<g id="node7" class="node"><title>syscall</title>
<ellipse fill="none" stroke="black" cx="895.027" cy="-188.811" rx="35.9954" ry="18"/>
<text text-anchor="middle" x="895.027" y="-185.111" font-family="Times,serif" font-size="14.00">syscall</text>
</g>
<!-- syscall&#45;&gt;errors -->
<g id="edge13" class="edge"><title>syscall&#45;&gt;errors</title>
<path fill="none" stroke="black" d="M867.287,-200.372C819.167,-225.415 721.013,-284.002 673.977,-315.677"/>
<polygon fill="black" stroke="black" points="671.82,-312.912 665.546,-321.45 675.775,-318.688 671.82,-312.912"/>
</g>
<!-- syscall&#45;&gt;errors -->
<g id="edge55" class="edge"><title>syscall&#45;&gt;errors</title>
<path fill="none" stroke="black" d="M876.395,-204.543C835.241,-233.153 736.248,-292.633 683.003,-321.073"/>
<polygon fill="black" stroke="black" points="681.15,-318.093 673.93,-325.846 684.409,-324.288 681.15,-318.093"/>
</g>
<!-- syscall&#45;&gt;sync -->
<g id="edge14" class="edge"><title>syscall&#45;&gt;sync</title>
<path fill="none" stroke="black" d="M859.442,-191.255C832.789,-196.013 796.641,-204.457 770.869,-211.954"/>
<polygon fill="black" stroke="black" points="769.759,-208.633 761.201,-214.879 771.786,-215.334 769.759,-208.633"/>
</g>
<!-- syscall&#45;&gt;sync -->
<g id="edge56" class="edge"><title>syscall&#45;&gt;sync</title>
<path fill="none" stroke="black" d="M867.942,-200.608C842.562,-208.286 804.413,-217.334 776.143,-222.473"/>
<polygon fill="black" stroke="black" points="775.479,-219.035 766.217,-224.179 776.665,-225.934 775.479,-219.035"/>
</g>
<!-- encoding -->
<g id="node8" class="node"><title>encoding</title>
<ellipse fill="none" stroke="black" cx="49.6755" cy="-354.093" rx="44.393" ry="18"/>
<text text-anchor="middle" x="49.6755" y="-350.393" font-family="Times,serif" font-size="14.00">encoding</text>
</g>
<!-- encoding_base64 -->
<g id="node9" class="node"><title>encoding_base64</title>
<ellipse fill="none" stroke="black" cx="508.749" cy="-446.372" rx="72.2875" ry="18"/>
<text text-anchor="middle" x="508.749" y="-442.672" font-family="Times,serif" font-size="14.00">encoding/base64</text>
</g>
<!-- encoding_base64&#45;&gt;io -->
<g id="edge39" class="edge"><title>encoding_base64&#45;&gt;io</title>
<path fill="none" stroke="black" d="M541.714,-430.325C550.161,-426.213 559.217,-421.804 567.566,-417.74"/>
<polygon fill="black" stroke="black" points="569.161,-420.856 576.621,-413.332 566.098,-414.562 569.161,-420.856"/>
</g>
<!-- strconv -->
<g id="node12" class="node"><title>strconv</title>
<ellipse fill="none" stroke="black" cx="468.652" cy="-213.511" rx="37.8943" ry="18"/>
<text text-anchor="middle" x="468.652" y="-209.811" font-family="Times,serif" font-size="14.00">strconv</text>
</g>
<!-- encoding_base64&#45;&gt;strconv -->
<g id="edge40" class="edge"><title>encoding_base64&#45;&gt;strconv</title>
<path fill="none" stroke="black" d="M505.603,-428.1C498.634,-387.631 481.858,-290.205 473.522,-241.795"/>
<polygon fill="black" stroke="black" points="476.93,-240.96 471.784,-231.699 470.032,-242.148 476.93,-240.96"/>
</g>
<!-- time -->
<g id="node11" class="node"><title>time</title>
<ellipse fill="none" stroke="black" cx="918.796" cy="-309.69" rx="27" ry="18"/>
<text text-anchor="middle" x="918.796" y="-305.99" font-family="Times,serif" font-size="14.00">time</text>
</g>
<!-- time&#45;&gt;syscall -->
<g id="edge18" class="edge"><title>time&#45;&gt;syscall</title>
<path fill="none" stroke="black" d="M920.222,-291.687C918.466,-271.751 912.432,-239.395 906.379,-216.289"/>
<polygon fill="black" stroke="black" points="909.678,-215.089 903.612,-206.402 902.937,-216.975 909.678,-215.089"/>
</g>
<!-- time&#45;&gt;syscall -->
<g id="edge60" class="edge"><title>time&#45;&gt;syscall</title>
<path fill="none" stroke="black" d="M910.348,-292.554C904.359,-272.851 897.693,-240.233 894.7,-216.825"/>
<polygon fill="black" stroke="black" points="898.17,-216.356 893.599,-206.797 891.211,-217.12 898.17,-216.356"/>
</g>
<!-- time&#45;&gt;errors -->
<g id="edge16" class="edge"><title>time&#45;&gt;errors</title>
<path fill="none" stroke="black" d="M891.398,-308.145C843.168,-309.832 742.953,-319.54 687.253,-327.692"/>
<polygon fill="black" stroke="black" points="686.422,-324.279 677.064,-329.247 687.477,-331.198 686.422,-324.279"/>
</g>
<!-- time&#45;&gt;errors -->
<g id="edge58" class="edge"><title>time&#45;&gt;errors</title>
<path fill="none" stroke="black" d="M893.707,-316.347C847.125,-324.134 746.838,-334.383 689.758,-337.472"/>
<polygon fill="black" stroke="black" points="689.444,-333.983 679.626,-337.963 689.783,-340.975 689.444,-333.983"/>
</g>
<!-- time&#45;&gt;sync -->
<g id="edge17" class="edge"><title>time&#45;&gt;sync</title>
<path fill="none" stroke="black" d="M900.39,-296.126C870.65,-279.171 811.649,-251.168 773.741,-235.739"/>
<polygon fill="black" stroke="black" points="774.706,-232.356 764.12,-231.92 772.123,-238.862 774.706,-232.356"/>
</g>
<!-- time&#45;&gt;sync -->
<g id="edge59" class="edge"><title>time&#45;&gt;sync</title>
<path fill="none" stroke="black" d="M893.632,-303.079C860.077,-290.173 800.97,-262.616 766.274,-243.845"/>
<polygon fill="black" stroke="black" points="767.621,-240.59 757.177,-238.804 764.227,-246.712 767.621,-240.59"/>
</g>
<!-- strconv&#45;&gt;math -->
<g id="edge23" class="edge"><title>strconv&#45;&gt;math</title>
<path fill="none" stroke="black" d="M468.458,-195.27C464.013,-165.958 449.654,-108.253 438.603,-74.1511"/>
<polygon fill="black" stroke="black" points="441.817,-72.7315 435.294,-64.383 435.187,-74.9773 441.817,-72.7315"/>
</g>
<!-- strconv&#45;&gt;math -->
<g id="edge42" class="edge"><title>strconv&#45;&gt;math</title>
<path fill="none" stroke="black" d="M459.555,-195.848C449.305,-166.967 434.457,-109.451 428.164,-75.0168"/>
<polygon fill="black" stroke="black" points="431.611,-74.4092 426.5,-65.1287 424.708,-75.5709 431.611,-74.4092"/>
</g>
<!-- strconv&#45;&gt;unicode_utf8 -->
<g id="edge24" class="edge"><title>strconv&#45;&gt;unicode_utf8</title>
<path fill="none" stroke="black" d="M449.919,-229.326C426.533,-254.297 387.38,-302.841 366.109,-333.064"/>
<polygon fill="black" stroke="black" points="363.136,-331.212 360.366,-341.438 368.908,-335.171 363.136,-331.212"/>
</g>
<!-- strconv&#45;&gt;unicode_utf8 -->
<g id="edge43" class="edge"><title>strconv&#45;&gt;unicode_utf8</title>
<path fill="none" stroke="black" d="M459.921,-231.26C442.772,-257.086 404.88,-304.89 378.701,-334.259"/>
<polygon fill="black" stroke="black" points="375.786,-332.264 371.655,-342.02 380.969,-336.969 375.786,-332.264"/>
</g>
<!-- strconv&#45;&gt;errors -->
<g id="edge22" class="edge"><title>strconv&#45;&gt;errors</title>
<path fill="none" stroke="black" d="M485.024,-230.026C514.241,-253.6 575.661,-296.168 614.161,-319.849"/>
<polygon fill="black" stroke="black" points="612.581,-322.984 622.949,-325.161 616.201,-316.993 612.581,-322.984"/>
</g>
<!-- strconv&#45;&gt;errors -->
<g id="edge41" class="edge"><title>strconv&#45;&gt;errors</title>
<path fill="none" stroke="black" d="M495.52,-226.164C530.452,-247.066 590.789,-288.458 624.085,-314.302"/>
<polygon fill="black" stroke="black" points="622.315,-317.365 632.326,-320.832 626.663,-311.878 622.315,-317.365"/>
</g>
<!-- fmt -->
<g id="node13" class="node"><title>fmt</title>
<ellipse fill="none" stroke="black" cx="572.353" cy="-223.444" rx="27" ry="18"/>
<text text-anchor="middle" x="572.353" y="-219.744" font-family="Times,serif" font-size="14.00">fmt</text>
</g>
<!-- fmt&#45;&gt;math -->
<g id="edge6" class="edge"><title>fmt&#45;&gt;math</title>
<path fill="none" stroke="black" d="M563.194,-206.198C540.831,-173.87 483.855,-104.579 450.816,-69.0257"/>
<polygon fill="black" stroke="black" points="453.172,-66.4239 443.756,-61.5686 448.089,-71.2366 453.172,-66.4239"/>
</g>
<!-- fmt&#45;&gt;math -->
<g id="edge48" class="edge"><title>fmt&#45;&gt;math</title>
<path fill="none" stroke="black" d="M555.134,-209.203C526.2,-179.357 468.815,-110.327 441.391,-72.6515"/>
<polygon fill="black" stroke="black" points="444.05,-70.3523 435.403,-64.2311 438.346,-74.409 444.05,-70.3523"/>
</g>
<!-- fmt&#45;&gt;io -->
<g id="edge2" class="edge"><title>fmt&#45;&gt;io</title>
<path fill="none" stroke="black" d="M570.756,-241.561C572.277,-273.02 581.507,-337.914 589.457,-375.007"/>
<polygon fill="black" stroke="black" points="586.128,-376.15 591.766,-385.12 592.953,-374.592 586.128,-376.15"/>
</g>
<!-- fmt&#45;&gt;io -->
<g id="edge47" class="edge"><title>fmt&#45;&gt;io</title>
<path fill="none" stroke="black" d="M579.249,-240.989C586.865,-272.047 596.642,-336.933 599.587,-374.358"/>
<polygon fill="black" stroke="black" points="596.11,-374.827 600.25,-384.58 603.095,-374.374 596.11,-374.827"/>
</g>
<!-- fmt&#45;&gt;unicode_utf8 -->
<g id="edge28" class="edge"><title>fmt&#45;&gt;unicode_utf8</title>
<path fill="none" stroke="black" d="M548.993,-232.911C507.955,-254.404 423.28,-306.252 379.331,-336.548"/>
<polygon fill="black" stroke="black" points="377.293,-333.702 371.109,-342.304 381.308,-339.436 377.293,-333.702"/>
</g>
<!-- fmt&#45;&gt;unicode_utf8 -->
<g id="edge67" class="edge"><title>fmt&#45;&gt;unicode_utf8</title>
<path fill="none" stroke="black" d="M555.976,-238.153C521.949,-262.859 442.904,-312.027 393.66,-339.623"/>
<polygon fill="black" stroke="black" points="391.881,-336.607 384.829,-344.514 395.273,-342.731 391.881,-336.607"/>
</g>
<!-- fmt&#45;&gt;strconv -->
<g id="edge26" class="edge"><title>fmt&#45;&gt;strconv</title>
<path fill="none" stroke="black" d="M548.073,-215.233C538.505,-213.613 527.173,-212.239 516.109,-211.305"/>
<polygon fill="black" stroke="black" points="516.309,-207.81 506.082,-210.576 515.802,-214.792 516.309,-207.81"/>
</g>
<!-- fmt&#45;&gt;strconv -->
<g id="edge65" class="edge"><title>fmt&#45;&gt;strconv</title>
<path fill="none" stroke="black" d="M545.617,-226.863C535.062,-226.565 522.676,-225.616 510.962,-224.255"/>
<polygon fill="black" stroke="black" points="511.27,-220.766 500.905,-222.96 510.376,-227.709 511.27,-220.766"/>
</g>
<!-- fmt&#45;&gt;errors -->
<g id="edge1" class="edge"><title>fmt&#45;&gt;errors</title>
<path fill="none" stroke="black" d="M578.539,-241.359C588.845,-260.793 609.064,-291.758 625.103,-313.109"/>
<polygon fill="black" stroke="black" points="622.355,-315.277 631.237,-321.054 627.896,-310.999 622.355,-315.277"/>
</g>
<!-- fmt&#45;&gt;errors -->
<g id="edge46" class="edge"><title>fmt&#45;&gt;errors</title>
<path fill="none" stroke="black" d="M588.349,-238.316C602.879,-256.435 623.63,-287.23 636.513,-309.56"/>
<polygon fill="black" stroke="black" points="633.593,-311.511 641.512,-318.55 639.711,-308.109 633.593,-311.511"/>
</g>
<!-- reflect -->
<g id="node17" class="node"><title>reflect</title>
<ellipse fill="none" stroke="black" cx="555.498" cy="-75.0609" rx="33.2948" ry="18"/>
<text text-anchor="middle" x="555.498" y="-71.3609" font-family="Times,serif" font-size="14.00">reflect</text>
</g>
<!-- fmt&#45;&gt;reflect -->
<g id="edge19" class="edge"><title>fmt&#45;&gt;reflect</title>
<path fill="none" stroke="black" d="M574.879,-205.326C574.583,-179.762 569.558,-132.892 564.142,-102.893"/>
<polygon fill="black" stroke="black" points="567.571,-102.191 562.216,-93.0481 560.701,-103.534 567.571,-102.191"/>
</g>
<!-- fmt&#45;&gt;reflect -->
<g id="edge61" class="edge"><title>fmt&#45;&gt;reflect</title>
<path fill="none" stroke="black" d="M565.701,-205.77C560.275,-180.556 554.713,-133.982 553.3,-103.776"/>
<polygon fill="black" stroke="black" points="556.788,-103.343 552.975,-93.4582 549.792,-103.563 556.788,-103.343"/>
</g>
<!-- os -->
<g id="node18" class="node"><title>os</title>
<ellipse fill="none" stroke="black" cx="817.461" cy="-323.511" rx="27" ry="18"/>
<text text-anchor="middle" x="817.461" y="-319.811" font-family="Times,serif" font-size="14.00">os</text>
</g>
<!-- fmt&#45;&gt;os -->
<g id="edge7" class="edge"><title>fmt&#45;&gt;os</title>
<path fill="none" stroke="black" d="M592.159,-235.865C633.67,-256.447 730.151,-296.119 782.389,-314.377"/>
<polygon fill="black" stroke="black" points="781.317,-317.709 791.911,-317.63 783.579,-311.085 781.317,-317.709"/>
</g>
<!-- fmt&#45;&gt;os -->
<g id="edge49" class="edge"><title>fmt&#45;&gt;os</title>
<path fill="none" stroke="black" d="M597.893,-229.322C643.854,-244.598 740.12,-283.739 788.473,-306.648"/>
<polygon fill="black" stroke="black" points="787.227,-309.933 797.753,-311.139 790.276,-303.632 787.227,-309.933"/>
</g>
<!-- fmt&#45;&gt;sync -->
<g id="edge27" class="edge"><title>fmt&#45;&gt;sync</title>
<path fill="none" stroke="black" d="M598.301,-228.787C626.204,-231.101 670.787,-231.794 702.23,-230.542"/>
<polygon fill="black" stroke="black" points="702.531,-234.032 712.346,-230.043 702.186,-227.04 702.531,-234.032"/>
</g>
<!-- fmt&#45;&gt;sync -->
<g id="edge66" class="edge"><title>fmt&#45;&gt;sync</title>
<path fill="none" stroke="black" d="M598.41,-218.662C626.357,-216.95 670.944,-217.219 702.353,-219.148"/>
<polygon fill="black" stroke="black" points="702.233,-222.649 712.456,-219.866 702.729,-215.666 702.233,-222.649"/>
</g>
<!-- encoding_json -->
<g id="node14" class="node"><title>encoding_json</title>
<ellipse fill="none" stroke="black" cx="379.71" cy="-274.684" rx="61.975" ry="61.975"/>
<ellipse fill="none" stroke="black" cx="379.71" cy="-274.684" rx="65.99" ry="65.99"/>
<text text-anchor="middle" x="379.71" y="-270.984" font-family="Times,serif" font-size="14.00">encoding/json</text>
</g>
<!-- encoding_json&#45;&gt;strings -->
<g id="edge73" class="edge"><title>encoding_json&#45;&gt;strings</title>
<path fill="none" stroke="black" d="M387.002,-340.092C390.507,-371.535 394.526,-407.582 397.239,-431.917"/>
<polygon fill="black" stroke="black" points="393.765,-432.347 398.351,-441.898 400.722,-431.572 393.765,-432.347"/>
</g>
<!-- encoding_json&#45;&gt;sort -->
<g id="edge71" class="edge"><title>encoding_json&#45;&gt;sort</title>
<path fill="none" stroke="black" d="M336.895,-224.583C289.673,-169.324 215.709,-82.7732 180.408,-41.4654"/>
<polygon fill="black" stroke="black" points="183.04,-39.1582 173.883,-33.8298 177.719,-43.7059 183.04,-39.1582"/>
</g>
<!-- encoding_json&#45;&gt;bytes -->
<g id="edge29" class="edge"><title>encoding_json&#45;&gt;bytes</title>
<path fill="none" stroke="black" d="M397.397,-338.274C411.671,-389.592 431.066,-459.321 441.693,-497.525"/>
<polygon fill="black" stroke="black" points="438.394,-498.726 444.446,-507.423 445.138,-496.851 438.394,-498.726"/>
</g>
<!-- encoding_json&#45;&gt;math -->
<g id="edge69" class="edge"><title>encoding_json&#45;&gt;math</title>
<path fill="none" stroke="black" d="M392.948,-210.084C402.084,-165.503 413.775,-108.448 420.624,-75.028"/>
<polygon fill="black" stroke="black" points="424.089,-75.5526 422.668,-65.0535 417.232,-74.1473 424.089,-75.5526"/>
</g>
<!-- encoding_json&#45;&gt;unicode_utf16 -->
<g id="edge80" class="edge"><title>encoding_json&#45;&gt;unicode_utf16</title>
<path fill="none" stroke="black" d="M317.142,-254.383C257.133,-234.912 167.652,-205.879 111.917,-187.795"/>
<polygon fill="black" stroke="black" points="112.849,-184.418 102.256,-184.661 110.688,-191.076 112.849,-184.418"/>
</g>
<!-- encoding_json&#45;&gt;io -->
<g id="edge68" class="edge"><title>encoding_json&#45;&gt;io</title>
<path fill="none" stroke="black" d="M436.662,-307.961C479.165,-332.795 535.51,-365.717 569.313,-385.468"/>
<polygon fill="black" stroke="black" points="567.82,-388.649 578.22,-390.672 571.351,-382.605 567.82,-388.649"/>
</g>
<!-- encoding_json&#45;&gt;encoding -->
<g id="edge37" class="edge"><title>encoding_json&#45;&gt;encoding</title>
<path fill="none" stroke="black" d="M315.685,-290.089C251.847,-305.448 155.245,-328.692 97.7079,-342.536"/>
<polygon fill="black" stroke="black" points="96.6857,-339.182 87.782,-344.924 98.3233,-345.987 96.6857,-339.182"/>
</g>
<!-- encoding_json&#45;&gt;encoding_base64 -->
<g id="edge38" class="edge"><title>encoding_json&#45;&gt;encoding_base64</title>
<path fill="none" stroke="black" d="M419.479,-327.597C442.664,-358.444 470.874,-395.979 489.295,-420.487"/>
<polygon fill="black" stroke="black" points="486.572,-422.69 495.378,-428.581 492.167,-418.484 486.572,-422.69"/>
</g>
<!-- encoding_json&#45;&gt;unicode_utf8 -->
<g id="edge81" class="edge"><title>encoding_json&#45;&gt;unicode_utf8</title>
<path fill="none" stroke="black" d="M358.814,-337.502C358.761,-337.66 358.709,-337.818 358.657,-337.975"/>
<polygon fill="black" stroke="black" points="357.421,-330.601 357.585,-341.195 364.063,-332.811 357.421,-330.601"/>
</g>
<!-- encoding_json&#45;&gt;strconv -->
<g id="edge72" class="edge"><title>encoding_json&#45;&gt;strconv</title>
<path fill="none" stroke="black" d="M434.01,-237.337C435.552,-236.277 437.077,-235.228 438.577,-234.196"/>
<polygon fill="black" stroke="black" points="440.592,-237.058 446.848,-228.508 436.625,-231.291 440.592,-237.058"/>
</g>
<!-- encoding_json&#45;&gt;fmt -->
<g id="edge45" class="edge"><title>encoding_json&#45;&gt;fmt</title>
<path fill="none" stroke="black" d="M443.322,-257.764C474.476,-249.478 510.811,-239.813 536.97,-232.855"/>
<polygon fill="black" stroke="black" points="538.049,-236.19 546.813,-230.237 536.25,-229.425 538.049,-236.19"/>
</g>
<!-- encoding_json&#45;&gt;errors -->
<g id="edge44" class="edge"><title>encoding_json&#45;&gt;errors</title>
<path fill="none" stroke="black" d="M443.915,-289.512C495.106,-301.334 565.15,-317.511 608.376,-327.494"/>
<polygon fill="black" stroke="black" points="607.7,-330.93 618.232,-329.77 609.276,-324.11 607.7,-330.93"/>
</g>
<!-- encoding_json&#45;&gt;reflect -->
<g id="edge70" class="edge"><title>encoding_json&#45;&gt;reflect</title>
<path fill="none" stroke="black" d="M423.163,-225.339C458.442,-185.276 506.684,-130.493 534.115,-99.3427"/>
<polygon fill="black" stroke="black" points="536.964,-101.403 540.946,-91.5853 531.711,-96.7772 536.964,-101.403"/>
</g>
<!-- encoding_json&#45;&gt;unicode -->
<g id="edge79" class="edge"><title>encoding_json&#45;&gt;unicode</title>
<path fill="none" stroke="black" d="M353.702,-335.425C328.348,-394.639 290.953,-481.977 272.18,-525.821"/>
<polygon fill="black" stroke="black" points="268.865,-524.671 268.146,-535.241 275.3,-527.426 268.865,-524.671"/>
</g>
<!-- encoding_json&#45;&gt;sync -->
<g id="edge78" class="edge"><title>encoding_json&#45;&gt;sync</title>
<path fill="none" stroke="black" d="M445.15,-265.672C520.332,-255.319 641.095,-238.689 701.639,-230.352"/>
<polygon fill="black" stroke="black" points="702.442,-233.774 711.871,-228.943 701.487,-226.84 702.442,-233.774"/>
</g>
<!-- sync_atomic -->
<g id="node15" class="node"><title>sync_atomic</title>
<ellipse fill="none" stroke="black" cx="1042.08" cy="-286.746" rx="54.6905" ry="18"/>
<text text-anchor="middle" x="1042.08" y="-283.046" font-family="Times,serif" font-size="14.00">sync/atomic</text>
</g>
<!-- reflect&#45;&gt;math -->
<g id="edge20" class="edge"><title>reflect&#45;&gt;math</title>
<path fill="none" stroke="black" d="M529.609,-63.7173C511.151,-58.408 486.019,-52.7751 465.168,-49.1877"/>
<polygon fill="black" stroke="black" points="465.448,-45.6878 455.019,-47.5559 464.337,-52.599 465.448,-45.6878"/>
</g>
<!-- reflect&#45;&gt;math -->
<g id="edge62" class="edge"><title>reflect&#45;&gt;math</title>
<path fill="none" stroke="black" d="M522.321,-73.9377C503.1,-70.8671 478.979,-65.6991 459.723,-60.5463"/>
<polygon fill="black" stroke="black" points="460.443,-57.1133 449.87,-57.7818 458.552,-63.8531 460.443,-57.1133"/>
</g>
<!-- reflect&#45;&gt;strconv -->
<g id="edge21" class="edge"><title>reflect&#45;&gt;strconv</title>
<path fill="none" stroke="black" d="M539.729,-91.1884C522.19,-114.562 494.762,-157.975 479.461,-186.33"/>
<polygon fill="black" stroke="black" points="476.295,-184.833 474.769,-195.317 482.5,-188.073 476.295,-184.833"/>
</g>
<!-- reflect&#45;&gt;strconv -->
<g id="edge63" class="edge"><title>reflect&#45;&gt;strconv</title>
<path fill="none" stroke="black" d="M549.485,-93.0456C537.302,-117.415 510.468,-160.877 490.937,-188.428"/>
<polygon fill="black" stroke="black" points="487.923,-186.622 484.88,-196.77 493.588,-190.734 487.923,-186.622"/>
</g>
<!-- reflect&#45;&gt;sync -->
<g id="edge25" class="edge"><title>reflect&#45;&gt;sync</title>
<path fill="none" stroke="black" d="M569.197,-91.5184C598.86,-120.08 669.157,-178.052 709.354,-207.474"/>
<polygon fill="black" stroke="black" points="707.526,-210.471 717.688,-213.467 711.612,-204.787 707.526,-210.471"/>
</g>
<!-- reflect&#45;&gt;sync -->
<g id="edge64" class="edge"><title>reflect&#45;&gt;sync</title>
<path fill="none" stroke="black" d="M578.621,-88.2778C614.686,-113.959 683.532,-170.253 718.063,-202.18"/>
<polygon fill="black" stroke="black" points="715.997,-205.043 725.672,-209.361 720.801,-199.952 715.997,-205.043"/>
</g>
<!-- os&#45;&gt;io -->
<g id="edge9" class="edge"><title>os&#45;&gt;io</title>
<path fill="none" stroke="black" d="M791.268,-328.233C750.365,-339.946 671.612,-368.254 628.546,-386.577"/>
<polygon fill="black" stroke="black" points="626.936,-383.46 619.167,-390.664 629.732,-389.878 626.936,-383.46"/>
</g>
<!-- os&#45;&gt;io -->
<g id="edge51" class="edge"><title>os&#45;&gt;io</title>
<path fill="none" stroke="black" d="M797.123,-335.375C759.989,-352.035 680.851,-380.931 634.496,-395.03"/>
<polygon fill="black" stroke="black" points="633.447,-391.69 624.851,-397.884 635.433,-398.403 633.447,-391.69"/>
</g>
<!-- os&#45;&gt;syscall -->
<g id="edge12" class="edge"><title>os&#45;&gt;syscall</title>
<path fill="none" stroke="black" d="M831.886,-307.999C847.638,-285.529 871.924,-243.751 885.503,-216.082"/>
<polygon fill="black" stroke="black" points="888.716,-217.475 889.828,-206.938 882.389,-214.482 888.716,-217.475"/>
</g>
<!-- os&#45;&gt;syscall -->
<g id="edge54" class="edge"><title>os&#45;&gt;syscall</title>
<path fill="none" stroke="black" d="M822.464,-305.817C833.028,-282.303 856.527,-240.758 874.066,-213.995"/>
<polygon fill="black" stroke="black" points="877.081,-215.784 879.758,-205.533 871.273,-211.877 877.081,-215.784"/>
</g>
<!-- os&#45;&gt;time -->
<g id="edge15" class="edge"><title>os&#45;&gt;time</title>
<path fill="none" stroke="black" d="M844.366,-325.885C856.88,-325.02 871.892,-323.123 885.147,-320.774"/>
<polygon fill="black" stroke="black" points="886.167,-324.142 895.319,-318.805 884.836,-317.27 886.167,-324.142"/>
</g>
<!-- os&#45;&gt;time -->
<g id="edge57" class="edge"><title>os&#45;&gt;time</title>
<path fill="none" stroke="black" d="M840.941,-314.395C853.043,-311.827 868.083,-309.561 881.709,-308.189"/>
<polygon fill="black" stroke="black" points="882.117,-311.666 891.781,-307.323 881.518,-304.692 882.117,-311.666"/>
</g>
<!-- os&#45;&gt;sync_atomic -->
<g id="edge11" class="edge"><title>os&#45;&gt;sync_atomic</title>
<path fill="none" stroke="black" d="M844.845,-323.644C881.215,-320.16 946.129,-309.949 991.519,-300.878"/>
<polygon fill="black" stroke="black" points="992.367,-304.277 1001.46,-298.842 990.963,-297.419 992.367,-304.277"/>
</g>
<!-- os&#45;&gt;sync_atomic -->
<g id="edge53" class="edge"><title>os&#45;&gt;sync_atomic</title>
<path fill="none" stroke="black" d="M841.641,-315.062C873.97,-307.401 932.468,-297.249 977.955,-291.021"/>
<polygon fill="black" stroke="black" points="978.586,-294.468 988.036,-289.678 977.661,-287.53 978.586,-294.468"/>
</g>
<!-- os&#45;&gt;errors -->
<g id="edge8" class="edge"><title>os&#45;&gt;errors</title>
<path fill="none" stroke="black" d="M790.557,-320.507C762.685,-320.69 718.843,-323.816 687.087,-327.723"/>
<polygon fill="black" stroke="black" points="686.279,-324.299 676.822,-329.075 687.193,-331.239 686.279,-324.299"/>
</g>
<!-- os&#45;&gt;errors -->
<g id="edge50" class="edge"><title>os&#45;&gt;errors</title>
<path fill="none" stroke="black" d="M792.439,-330.437C765.311,-334.54 721.574,-338.21 689.282,-339.286"/>
<polygon fill="black" stroke="black" points="689.143,-335.788 679.236,-339.541 689.321,-342.786 689.143,-335.788"/>
</g>
<!-- os&#45;&gt;sync -->
<g id="edge10" class="edge"><title>os&#45;&gt;sync</title>
<path fill="none" stroke="black" d="M809.718,-305.913C798.953,-289.306 779.544,-264.518 763.67,-246.76"/>
<polygon fill="black" stroke="black" points="766.016,-244.139 756.669,-239.149 760.864,-248.879 766.016,-244.139"/>
</g>
<!-- os&#45;&gt;sync -->
<g id="edge52" class="edge"><title>os&#45;&gt;sync</title>
<path fill="none" stroke="black" d="M799.643,-309.685C785.163,-294.478 765.266,-269.892 752.114,-251.117"/>
<polygon fill="black" stroke="black" points="754.921,-249.019 746.421,-242.694 749.121,-252.939 754.921,-249.019"/>
</g>
<!-- sync&#45;&gt;sync_atomic -->
<g id="edge5" class="edge"><title>sync&#45;&gt;sync_atomic</title>
<path fill="none" stroke="black" d="M762.814,-234.106C809.226,-246.704 912.476,-268.199 979.593,-279.737"/>
<polygon fill="black" stroke="black" points="979.188,-283.218 989.632,-281.433 980.354,-276.316 979.188,-283.218"/>
</g>
<!-- sync&#45;&gt;sync_atomic -->
<g id="edge34" class="edge"><title>sync&#45;&gt;sync_atomic</title>
<path fill="none" stroke="black" d="M766.222,-226.693C817.628,-233.849 928.997,-256.053 993.404,-271.62"/>
<polygon fill="black" stroke="black" points="992.775,-275.069 1003.32,-274.058 994.446,-268.271 992.775,-275.069"/>
</g>
</g>
</svg>
