<?xml version="1.0" encoding="UTF-8" standalone="no"?>
<!DOCTYPE svg PUBLIC "-//W3C//DTD SVG 1.1//EN"
 "http://www.w3.org/Graphics/SVG/1.1/DTD/svg11.dtd">
<!-- Generated by graphviz version 2.39.20150211.0545 (20150211.0545)
 -->
<!-- Title: g Pages: 1 -->
<svg width="1206pt" height="116pt"
 viewBox="0.00 0.00 1206.49 116.00" xmlns="http://www.w3.org/2000/svg" xmlns:xlink="http://www.w3.org/1999/xlink">
<g id="graph0" class="graph" transform="scale(1 1) rotate(0) translate(4 112)">
<title>g</title>
<polygon fill="white" stroke="transparent" points="-4,4 -4,-112 1202.49,-112 1202.49,4 -4,4"/>
<!-- g0 -->
<g id="node1" class="node"><title>g0</title>
<ellipse fill="none" stroke="black" cx="50.0456" cy="-90" rx="50.0912" ry="18"/>
<text text-anchor="middle" x="50.0456" y="-86.3" font-family="Times,serif" font-size="14.00">webob.exc</text>
</g>
<!-- g1 -->
<g id="node2" class="node"><title>g1</title>
<ellipse fill="none" stroke="black" cx="50.0456" cy="-18" rx="29.4969" ry="18"/>
<text text-anchor="middle" x="50.0456" y="-14.3" font-family="Times,serif" font-size="14.00">paste</text>
</g>
<!-- g0&#45;&gt;g1 -->
<g id="edge1" class="edge"><title>g0&#45;&gt;g1</title>
<path fill="none" stroke="black" d="M50.0456,-71.8314C50.0456,-64.131 50.0456,-54.9743 50.0456,-46.4166"/>
<polygon fill="black" stroke="black" points="53.5457,-46.4132 50.0456,-36.4133 46.5457,-46.4133 53.5457,-46.4132"/>
</g>
<!-- g2 -->
<g id="node3" class="node"><title>g2</title>
<ellipse fill="none" stroke="black" cx="167.046" cy="-90" rx="48.1917" ry="18"/>
<text text-anchor="middle" x="167.046" y="-86.3" font-family="Times,serif" font-size="14.00">ctypes.util</text>
</g>
<!-- g3 -->
<g id="node4" class="node"><title>g3</title>
<ellipse fill="none" stroke="black" cx="167.046" cy="-18" rx="70.3881" ry="18"/>
<text text-anchor="middle" x="167.046" y="-14.3" font-family="Times,serif" font-size="14.00">ctypes.macholib</text>
</g>
<!-- g2&#45;&gt;g3 -->
<g id="edge2" class="edge"><title>g2&#45;&gt;g3</title>
<path fill="none" stroke="black" d="M167.046,-71.8314C167.046,-64.131 167.046,-54.9743 167.046,-46.4166"/>
<polygon fill="black" stroke="black" points="170.546,-46.4132 167.046,-36.4133 163.546,-46.4133 170.546,-46.4132"/>
</g>
<!-- g4 -->
<g id="node5" class="node"><title>g4</title>
<ellipse fill="none" stroke="black" cx="325.046" cy="-90" rx="91.784" ry="18"/>
<text text-anchor="middle" x="325.046" y="-86.3" font-family="Times,serif" font-size="14.00">wsgiref.simple_server</text>
</g>
<!-- g5 -->
<g id="node6" class="node"><title>g5</title>
<ellipse fill="none" stroke="black" cx="325.046" cy="-18" rx="27" ry="18"/>
<text text-anchor="middle" x="325.046" y="-14.3" font-family="Times,serif" font-size="14.00">http</text>
</g>
<!-- g4&#45;&gt;g5 -->
<g id="edge3" class="edge"><title>g4&#45;&gt;g5</title>
<path fill="none" stroke="black" d="M325.046,-71.8314C325.046,-64.131 325.046,-54.9743 325.046,-46.4166"/>
<polygon fill="black" stroke="black" points="328.546,-46.4132 325.046,-36.4133 321.546,-46.4133 328.546,-46.4132"/>
</g>
<!-- g6 -->
<g id="node7" class="node"><title>g6</title>
<ellipse fill="none" stroke="black" cx="482.046" cy="-90" rx="35.9954" ry="18"/>
<text text-anchor="middle" x="482.046" y="-86.3" font-family="Times,serif" font-size="14.00">plistlib</text>
</g>
<!-- g7 -->
<g id="node8" class="node"><title>g7</title>
<ellipse fill="none" stroke="black" cx="397.046" cy="-18" rx="27" ry="18"/>
<text text-anchor="middle" x="397.046" y="-14.3" font-family="Times,serif" font-size="14.00">xml</text>
</g>
<!-- g6&#45;&gt;g7 -->
<g id="edge4" class="edge"><title>g6&#45;&gt;g7</title>
<path fill="none" stroke="black" d="M463.602,-74.3771C451.391,-64.0335 435.229,-50.3434 421.889,-39.0441"/>
<polygon fill="black" stroke="black" points="423.902,-36.1617 414.009,-32.3689 419.377,-41.5031 423.902,-36.1617"/>
</g>
<!-- g8 -->
<g id="node9" class="node"><title>g8</title>
<ellipse fill="none" stroke="black" cx="495.046" cy="-18" rx="52.7911" ry="18"/>
<text text-anchor="middle" x="495.046" y="-14.3" font-family="Times,serif" font-size="14.00">xml.parsers</text>
</g>
<!-- g6&#45;&gt;g8 -->
<g id="edge5" class="edge"><title>g6&#45;&gt;g8</title>
<path fill="none" stroke="black" d="M485.326,-71.8314C486.716,-64.131 488.37,-54.9743 489.915,-46.4166"/>
<polygon fill="black" stroke="black" points="493.388,-46.8761 491.721,-36.4133 486.5,-45.6322 493.388,-46.8761"/>
</g>
<!-- g9 -->
<g id="node10" class="node"><title>g9</title>
<ellipse fill="none" stroke="black" cx="601.046" cy="-90" rx="53.0913" ry="18"/>
<text text-anchor="middle" x="601.046" y="-86.3" font-family="Times,serif" font-size="14.00">pyramid.url</text>
</g>
<!-- g10 -->
<g id="node11" class="node"><title>g10</title>
<ellipse fill="none" stroke="black" cx="601.046" cy="-18" rx="35.194" ry="18"/>
<text text-anchor="middle" x="601.046" y="-14.3" font-family="Times,serif" font-size="14.00">repoze</text>
</g>
<!-- g9&#45;&gt;g10 -->
<g id="edge6" class="edge"><title>g9&#45;&gt;g10</title>
<path fill="none" stroke="black" d="M601.046,-71.8314C601.046,-64.131 601.046,-54.9743 601.046,-46.4166"/>
<polygon fill="black" stroke="black" points="604.546,-46.4132 601.046,-36.4133 597.546,-46.4133 604.546,-46.4132"/>
</g>
<!-- g11 -->
<g id="node12" class="node"><title>g11</title>
<ellipse fill="none" stroke="black" cx="721.046" cy="-90" rx="48.9926" ry="18"/>
<text text-anchor="middle" x="721.046" y="-86.3" font-family="Times,serif" font-size="14.00">email.utils</text>
</g>
<!-- g12 -->
<g id="node13" class="node"><title>g12</title>
<ellipse fill="none" stroke="black" cx="721.046" cy="-18" rx="30.5947" ry="18"/>
<text text-anchor="middle" x="721.046" y="-14.3" font-family="Times,serif" font-size="14.00">urllib</text>
</g>
<!-- g11&#45;&gt;g12 -->
<g id="edge7" class="edge"><title>g11&#45;&gt;g12</title>
<path fill="none" stroke="black" d="M721.046,-71.8314C721.046,-64.131 721.046,-54.9743 721.046,-46.4166"/>
<polygon fill="black" stroke="black" points="724.546,-46.4132 721.046,-36.4133 717.546,-46.4133 724.546,-46.4132"/>
</g>
<!-- g13 -->
<g id="node14" class="node"><title>g13</title>
<ellipse fill="none" stroke="black" cx="866.046" cy="-90" rx="78.7863" ry="18"/>
<text text-anchor="middle" x="866.046" y="-86.3" font-family="Times,serif" font-size="14.00">pyramid.interfaces</text>
</g>
<!-- g14 -->
<g id="node15" class="node"><title>g14</title>
<ellipse fill="none" stroke="black" cx="866.046" cy="-18" rx="27.8951" ry="18"/>
<text text-anchor="middle" x="866.046" y="-14.3" font-family="Times,serif" font-size="14.00">zope</text>
</g>
<!-- g13&#45;&gt;g14 -->
<g id="edge8" class="edge"><title>g13&#45;&gt;g14</title>
<path fill="none" stroke="black" d="M866.046,-71.8314C866.046,-64.131 866.046,-54.9743 866.046,-46.4166"/>
<polygon fill="black" stroke="black" points="869.546,-46.4132 866.046,-36.4133 862.546,-46.4133 869.546,-46.4132"/>
</g>
<!-- g15 -->
<g id="node16" class="node"><title>g15</title>
<ellipse fill="none" stroke="black" cx="1025.05" cy="-90" rx="50.0912" ry="18"/>
<text text-anchor="middle" x="1025.05" y="-86.3" font-family="Times,serif" font-size="14.00">01pyramid</text>
</g>
<!-- g16 -->
<g id="node17" class="node"><title>g16</title>
<ellipse fill="none" stroke="black" cx="953.046" cy="-18" rx="40.8928" ry="18"/>
<text text-anchor="middle" x="953.046" y="-14.3" font-family="Times,serif" font-size="14.00">pyramid</text>
</g>
<!-- g15&#45;&gt;g16 -->
<g id="edge9" class="edge"><title>g15&#45;&gt;g16</title>
<path fill="none" stroke="black" d="M1007.98,-72.937C998.837,-63.791 987.411,-52.3652 977.352,-42.3061"/>
<polygon fill="black" stroke="black" points="979.532,-39.5367 969.986,-34.9405 974.582,-44.4865 979.532,-39.5367"/>
</g>
<!-- g17 -->
<g id="node18" class="node"><title>g17</title>
<ellipse fill="none" stroke="black" cx="1050.05" cy="-18" rx="37.8943" ry="18"/>
<text text-anchor="middle" x="1050.05" y="-14.3" font-family="Times,serif" font-size="14.00">wsgiref</text>
</g>
<!-- g15&#45;&gt;g17 -->
<g id="edge10" class="edge"><title>g15&#45;&gt;g17</title>
<path fill="none" stroke="black" d="M1031.35,-71.8314C1034.13,-63.8406 1037.45,-54.2819 1040.51,-45.4514"/>
<polygon fill="black" stroke="black" points="1043.85,-46.5082 1043.83,-35.9134 1037.24,-44.2121 1043.85,-46.5082"/>
</g>
<!-- g18 -->
<g id="node19" class="node"><title>g18</title>
<ellipse fill="none" stroke="black" cx="1151.05" cy="-90" rx="47.3916" ry="18"/>
<text text-anchor="middle" x="1151.05" y="-86.3" font-family="Times,serif" font-size="14.00">http.client</text>
</g>
<!-- g19 -->
<g id="node20" class="node"><title>g19</title>
<ellipse fill="none" stroke="black" cx="1151.05" cy="-18" rx="31.3957" ry="18"/>
<text text-anchor="middle" x="1151.05" y="-14.3" font-family="Times,serif" font-size="14.00">email</text>
</g>
<!-- g18&#45;&gt;g19 -->
<g id="edge11" class="edge"><title>g18&#45;&gt;g19</title>
<path fill="none" stroke="black" d="M1151.05,-71.8314C1151.05,-64.131 1151.05,-54.9743 1151.05,-46.4166"/>
<polygon fill="black" stroke="black" points="1154.55,-46.4132 1151.05,-36.4133 1147.55,-46.4133 1154.55,-46.4132"/>
</g>
</g>
</svg>
