<?xml version="1.0" encoding="UTF-8" standalone="no"?>
<!DOCTYPE svg PUBLIC "-//W3C//DTD SVG 1.1//EN"
 "http://www.w3.org/Graphics/SVG/1.1/DTD/svg11.dtd">
<!-- Generated by graphviz version 2.39.20150211.0545 (20150211.0545)
 -->
<!-- Title: g Pages: 1 -->
<svg width="1237pt" height="332pt"
 viewBox="0.00 0.00 1236.64 332.00" xmlns="http://www.w3.org/2000/svg" xmlns:xlink="http://www.w3.org/1999/xlink">
<g id="graph0" class="graph" transform="scale(1 1) rotate(0) translate(4 328)">
<title>g</title>
<polygon fill="white" stroke="transparent" points="-4,4 -4,-328 1232.64,-328 1232.64,4 -4,4"/>
<!-- g0 -->
<g id="node1" class="node"><title>g0</title>
<ellipse fill="none" stroke="black" cx="131.642" cy="-162" rx="47.3916" ry="18"/>
<text text-anchor="middle" x="131.642" y="-158.3" font-family="Times,serif" font-size="14.00">http.client</text>
</g>
<!-- g1 -->
<g id="node2" class="node"><title>g1</title>
<ellipse fill="none" stroke="black" cx="196.642" cy="-90" rx="31.3957" ry="18"/>
<text text-anchor="middle" x="196.642" y="-86.3" font-family="Times,serif" font-size="14.00">email</text>
</g>
<!-- g0&#45;&gt;g1 -->
<g id="edge1" class="edge"><title>g0&#45;&gt;g1</title>
<path fill="none" stroke="black" d="M147.046,-144.937C155.422,-135.658 165.917,-124.034 175.093,-113.87"/>
<polygon fill="black" stroke="black" points="177.693,-116.213 181.796,-106.445 172.497,-111.522 177.693,-116.213"/>
</g>
<!-- g4 -->
<g id="node5" class="node"><title>g4</title>
<ellipse fill="none" stroke="black" cx="245.642" cy="-18" rx="30.5947" ry="18"/>
<text text-anchor="middle" x="245.642" y="-14.3" font-family="Times,serif" font-size="14.00">urllib</text>
</g>
<!-- g1&#45;&gt;g4 -->
<g id="edge3" class="edge"><title>g1&#45;&gt;g4</title>
<path fill="none" stroke="black" d="M208.254,-72.937C214.234,-64.1496 221.647,-53.2579 228.291,-43.4956"/>
<polygon fill="black" stroke="black" points="231.38,-45.1769 234.113,-34.9405 225.593,-41.2385 231.38,-45.1769"/>
</g>
<!-- g2 -->
<g id="node3" class="node"><title>g2</title>
<ellipse fill="none" stroke="black" cx="347.642" cy="-234" rx="53.0913" ry="18"/>
<text text-anchor="middle" x="347.642" y="-230.3" font-family="Times,serif" font-size="14.00">pyramid.url</text>
</g>
<!-- g3 -->
<g id="node4" class="node"><title>g3</title>
<ellipse fill="none" stroke="black" cx="347.642" cy="-162" rx="35.194" ry="18"/>
<text text-anchor="middle" x="347.642" y="-158.3" font-family="Times,serif" font-size="14.00">repoze</text>
</g>
<!-- g2&#45;&gt;g3 -->
<g id="edge2" class="edge"><title>g2&#45;&gt;g3</title>
<path fill="none" stroke="black" d="M347.642,-215.831C347.642,-208.131 347.642,-198.974 347.642,-190.417"/>
<polygon fill="black" stroke="black" points="351.142,-190.413 347.642,-180.413 344.142,-190.413 351.142,-190.413"/>
</g>
<!-- g5 -->
<g id="node6" class="node"><title>g5</title>
<ellipse fill="none" stroke="black" cx="597.642" cy="-234" rx="78.7863" ry="18"/>
<text text-anchor="middle" x="597.642" y="-230.3" font-family="Times,serif" font-size="14.00">pyramid.interfaces</text>
</g>
<!-- g6 -->
<g id="node7" class="node"><title>g6</title>
<ellipse fill="none" stroke="black" cx="587.642" cy="-162" rx="27.8951" ry="18"/>
<text text-anchor="middle" x="587.642" y="-158.3" font-family="Times,serif" font-size="14.00">zope</text>
</g>
<!-- g5&#45;&gt;g6 -->
<g id="edge4" class="edge"><title>g5&#45;&gt;g6</title>
<path fill="none" stroke="black" d="M595.118,-215.831C594.049,-208.131 592.777,-198.974 591.589,-190.417"/>
<polygon fill="black" stroke="black" points="595.042,-189.837 590.199,-180.413 588.108,-190.8 595.042,-189.837"/>
</g>
<!-- g22 -->
<g id="node23" class="node"><title>g22</title>
<ellipse fill="none" stroke="black" cx="460.642" cy="-90" rx="61.99" ry="18"/>
<text text-anchor="middle" x="460.642" y="-86.3" font-family="Times,serif" font-size="14.00">zope.interface</text>
</g>
<!-- g6&#45;&gt;g22 -->
<g id="edge17" class="edge"><title>g6&#45;&gt;g22</title>
<path fill="none" stroke="black" d="M566.385,-149.949C547.766,-139.393 520.28,-123.811 497.998,-111.178"/>
<polygon fill="black" stroke="black" points="499.546,-108.033 489.121,-106.146 496.094,-114.122 499.546,-108.033"/>
</g>
<!-- g23 -->
<g id="node24" class="node"><title>g23</title>
<ellipse fill="none" stroke="black" cx="613.642" cy="-90" rx="72.5877" ry="18"/>
<text text-anchor="middle" x="613.642" y="-86.3" font-family="Times,serif" font-size="14.00">zope.deprecation</text>
</g>
<!-- g6&#45;&gt;g23 -->
<g id="edge18" class="edge"><title>g6&#45;&gt;g23</title>
<path fill="none" stroke="black" d="M594.069,-144.202C596.953,-136.215 600.424,-126.605 603.636,-117.709"/>
<polygon fill="black" stroke="black" points="607.004,-118.687 607.108,-108.093 600.42,-116.31 607.004,-118.687"/>
</g>
<!-- g7 -->
<g id="node8" class="node"><title>g7</title>
<ellipse fill="none" stroke="black" cx="91.6419" cy="-234" rx="91.784" ry="18"/>
<text text-anchor="middle" x="91.6419" y="-230.3" font-family="Times,serif" font-size="14.00">wsgiref.simple_server</text>
</g>
<!-- g8 -->
<g id="node9" class="node"><title>g8</title>
<ellipse fill="none" stroke="black" cx="223.642" cy="-162" rx="27" ry="18"/>
<text text-anchor="middle" x="223.642" y="-158.3" font-family="Times,serif" font-size="14.00">http</text>
</g>
<!-- g7&#45;&gt;g8 -->
<g id="edge5" class="edge"><title>g7&#45;&gt;g8</title>
<path fill="none" stroke="black" d="M122.924,-216.937C144.308,-205.273 172.49,-189.901 193.604,-178.384"/>
<polygon fill="black" stroke="black" points="195.365,-181.411 202.468,-173.549 192.013,-175.265 195.365,-181.411"/>
</g>
<!-- g8&#45;&gt;g1 -->
<g id="edge16" class="edge"><title>g8&#45;&gt;g1</title>
<path fill="none" stroke="black" d="M216.968,-144.202C213.894,-136.006 210.18,-126.102 206.772,-117.015"/>
<polygon fill="black" stroke="black" points="210.028,-115.727 203.239,-107.593 203.473,-118.185 210.028,-115.727"/>
</g>
<!-- g9 -->
<g id="node10" class="node"><title>g9</title>
<ellipse fill="none" stroke="black" cx="348.642" cy="-306" rx="50.0912" ry="18"/>
<text text-anchor="middle" x="348.642" y="-302.3" font-family="Times,serif" font-size="14.00">02pyramid</text>
</g>
<!-- g10 -->
<g id="node11" class="node"><title>g10</title>
<ellipse fill="none" stroke="black" cx="238.642" cy="-234" rx="37.8943" ry="18"/>
<text text-anchor="middle" x="238.642" y="-230.3" font-family="Times,serif" font-size="14.00">wsgiref</text>
</g>
<!-- g9&#45;&gt;g10 -->
<g id="edge6" class="edge"><title>g9&#45;&gt;g10</title>
<path fill="none" stroke="black" d="M324.502,-290.199C308.453,-279.695 287.221,-265.797 269.886,-254.451"/>
<polygon fill="black" stroke="black" points="271.508,-251.33 261.225,-248.781 267.675,-257.187 271.508,-251.33"/>
</g>
<!-- g11 -->
<g id="node12" class="node"><title>g11</title>
<ellipse fill="none" stroke="black" cx="459.642" cy="-234" rx="40.8928" ry="18"/>
<text text-anchor="middle" x="459.642" y="-230.3" font-family="Times,serif" font-size="14.00">pyramid</text>
</g>
<!-- g9&#45;&gt;g11 -->
<g id="edge7" class="edge"><title>g9&#45;&gt;g11</title>
<path fill="none" stroke="black" d="M373.001,-290.199C389.087,-279.765 410.334,-265.984 427.761,-254.68"/>
<polygon fill="black" stroke="black" points="429.993,-257.403 436.478,-249.025 426.184,-251.531 429.993,-257.403"/>
</g>
<!-- g10&#45;&gt;g8 -->
<g id="edge14" class="edge"><title>g10&#45;&gt;g8</title>
<path fill="none" stroke="black" d="M234.857,-215.831C233.21,-207.927 231.243,-198.487 229.42,-189.737"/>
<polygon fill="black" stroke="black" points="232.84,-188.989 227.374,-179.913 225.987,-190.417 232.84,-188.989"/>
</g>
<!-- g11&#45;&gt;g3 -->
<g id="edge21" class="edge"><title>g11&#45;&gt;g3</title>
<path fill="none" stroke="black" d="M436.435,-219.082C419.586,-208.25 396.621,-193.487 378.268,-181.688"/>
<polygon fill="black" stroke="black" points="379.98,-178.628 369.675,-176.164 376.195,-184.516 379.98,-178.628"/>
</g>
<!-- g11&#45;&gt;g6 -->
<g id="edge20" class="edge"><title>g11&#45;&gt;g6</title>
<path fill="none" stroke="black" d="M484.931,-219.775C505.713,-208.085 535.219,-191.488 557.278,-179.08"/>
<polygon fill="black" stroke="black" points="559.229,-181.998 566.229,-174.045 555.797,-175.897 559.229,-181.998"/>
</g>
<!-- g24 -->
<g id="node25" class="node"><title>g24</title>
<ellipse fill="none" stroke="black" cx="466.642" cy="-162" rx="66.0889" ry="18"/>
<text text-anchor="middle" x="466.642" y="-158.3" font-family="Times,serif" font-size="14.00">pyramid.config</text>
</g>
<!-- g11&#45;&gt;g24 -->
<g id="edge19" class="edge"><title>g11&#45;&gt;g24</title>
<path fill="none" stroke="black" d="M461.408,-215.831C462.157,-208.131 463.047,-198.974 463.879,-190.417"/>
<polygon fill="black" stroke="black" points="467.368,-190.705 464.852,-180.413 460.4,-190.028 467.368,-190.705"/>
</g>
<!-- g12 -->
<g id="node13" class="node"><title>g12</title>
<ellipse fill="none" stroke="black" cx="294.642" cy="-90" rx="48.9926" ry="18"/>
<text text-anchor="middle" x="294.642" y="-86.3" font-family="Times,serif" font-size="14.00">email.utils</text>
</g>
<!-- g12&#45;&gt;g4 -->
<g id="edge8" class="edge"><title>g12&#45;&gt;g4</title>
<path fill="none" stroke="black" d="M282.53,-72.2022C276.628,-63.5301 269.424,-52.9455 262.954,-43.4389"/>
<polygon fill="black" stroke="black" points="265.797,-41.3952 257.277,-35.0972 260.01,-45.3336 265.797,-41.3952"/>
</g>
<!-- g13 -->
<g id="node14" class="node"><title>g13</title>
<ellipse fill="none" stroke="black" cx="714.642" cy="-306" rx="33.5952" ry="18"/>
<text text-anchor="middle" x="714.642" y="-302.3" font-family="Times,serif" font-size="14.00">ctypes</text>
</g>
<!-- g14 -->
<g id="node15" class="node"><title>g14</title>
<ellipse fill="none" stroke="black" cx="764.642" cy="-234" rx="70.3881" ry="18"/>
<text text-anchor="middle" x="764.642" y="-230.3" font-family="Times,serif" font-size="14.00">ctypes.macholib</text>
</g>
<!-- g13&#45;&gt;g14 -->
<g id="edge9" class="edge"><title>g13&#45;&gt;g14</title>
<path fill="none" stroke="black" d="M726.491,-288.937C732.417,-280.404 739.72,-269.888 746.345,-260.347"/>
<polygon fill="black" stroke="black" points="749.351,-262.155 752.18,-251.945 743.601,-258.163 749.351,-262.155"/>
</g>
<!-- g15 -->
<g id="node16" class="node"><title>g15</title>
<ellipse fill="none" stroke="black" cx="930.642" cy="-306" rx="50.0912" ry="18"/>
<text text-anchor="middle" x="930.642" y="-302.3" font-family="Times,serif" font-size="14.00">webob.exc</text>
</g>
<!-- g16 -->
<g id="node17" class="node"><title>g16</title>
<ellipse fill="none" stroke="black" cx="955.642" cy="-234" rx="29.4969" ry="18"/>
<text text-anchor="middle" x="955.642" y="-230.3" font-family="Times,serif" font-size="14.00">paste</text>
</g>
<!-- g15&#45;&gt;g16 -->
<g id="edge10" class="edge"><title>g15&#45;&gt;g16</title>
<path fill="none" stroke="black" d="M936.95,-287.831C939.725,-279.841 943.044,-270.282 946.11,-261.451"/>
<polygon fill="black" stroke="black" points="949.448,-262.508 949.422,-251.913 942.835,-260.212 949.448,-262.508"/>
</g>
<!-- g17 -->
<g id="node18" class="node"><title>g17</title>
<ellipse fill="none" stroke="black" cx="1127.64" cy="-306" rx="35.9954" ry="18"/>
<text text-anchor="middle" x="1127.64" y="-302.3" font-family="Times,serif" font-size="14.00">plistlib</text>
</g>
<!-- g18 -->
<g id="node19" class="node"><title>g18</title>
<ellipse fill="none" stroke="black" cx="1103.64" cy="-234" rx="52.7911" ry="18"/>
<text text-anchor="middle" x="1103.64" y="-230.3" font-family="Times,serif" font-size="14.00">xml.parsers</text>
</g>
<!-- g17&#45;&gt;g18 -->
<g id="edge11" class="edge"><title>g17&#45;&gt;g18</title>
<path fill="none" stroke="black" d="M1121.71,-288.202C1119.05,-280.215 1115.84,-270.605 1112.88,-261.709"/>
<polygon fill="black" stroke="black" points="1116.16,-260.473 1109.67,-252.093 1109.51,-262.687 1116.16,-260.473"/>
</g>
<!-- g19 -->
<g id="node20" class="node"><title>g19</title>
<ellipse fill="none" stroke="black" cx="1201.64" cy="-234" rx="27" ry="18"/>
<text text-anchor="middle" x="1201.64" y="-230.3" font-family="Times,serif" font-size="14.00">xml</text>
</g>
<!-- g17&#45;&gt;g19 -->
<g id="edge12" class="edge"><title>g17&#45;&gt;g19</title>
<path fill="none" stroke="black" d="M1144.43,-289.662C1154.55,-279.819 1167.58,-267.146 1178.64,-256.379"/>
<polygon fill="black" stroke="black" points="1181.2,-258.771 1185.93,-249.289 1176.32,-253.754 1181.2,-258.771"/>
</g>
<!-- g20 -->
<g id="node21" class="node"><title>g20</title>
<ellipse fill="none" stroke="black" cx="814.642" cy="-306" rx="48.1917" ry="18"/>
<text text-anchor="middle" x="814.642" y="-302.3" font-family="Times,serif" font-size="14.00">ctypes.util</text>
</g>
<!-- g20&#45;&gt;g14 -->
<g id="edge13" class="edge"><title>g20&#45;&gt;g14</title>
<path fill="none" stroke="black" d="M802.538,-288.571C796.608,-280.031 789.345,-269.572 782.769,-260.103"/>
<polygon fill="black" stroke="black" points="785.56,-257.986 776.981,-251.769 779.811,-261.979 785.56,-257.986"/>
</g>
<!-- g21 -->
<g id="node22" class="node"><title>g21</title>
<ellipse fill="none" stroke="black" cx="1033.64" cy="-306" rx="35.194" ry="18"/>
<text text-anchor="middle" x="1033.64" y="-302.3" font-family="Times,serif" font-size="14.00">webob</text>
</g>
<!-- g21&#45;&gt;g16 -->
<g id="edge15" class="edge"><title>g21&#45;&gt;g16</title>
<path fill="none" stroke="black" d="M1016.33,-290.021C1005.51,-280.029 991.414,-267.021 979.534,-256.054"/>
<polygon fill="black" stroke="black" points="981.825,-253.406 972.103,-249.195 977.077,-258.55 981.825,-253.406"/>
</g>
</g>
</svg>
