<?xml version="1.0" encoding="UTF-8" standalone="no"?>
<!DOCTYPE svg PUBLIC "-//W3C//DTD SVG 1.1//EN"
 "http://www.w3.org/Graphics/SVG/1.1/DTD/svg11.dtd">
<!-- Generated by graphviz version 2.40.1 (20161225.0304)
 -->
<!-- Title: g Pages: 1 -->
<svg width="1081pt" height="479pt"
 viewBox="0.00 0.00 1080.93 479.00" xmlns="http://www.w3.org/2000/svg" xmlns:xlink="http://www.w3.org/1999/xlink">
<g id="graph0" class="graph" transform="scale(1 1) rotate(0) translate(4 475)">
<title>g</title>
<polygon fill="#ffffff" stroke="transparent" points="-4,4 -4,-475 1076.9348,-475 1076.9348,4 -4,4"/>
<!-- g0 -->
<g id="node1" class="node">
<title>g0</title>
<ellipse fill="none" stroke="#000000" cx="557.2416" cy="-453" rx="52.7911" ry="18"/>
<text text-anchor="middle" x="557.2416" y="-449.3" font-family="Times,serif" font-size="14.00" fill="#000000">02run.main</text>
</g>
<!-- g1 -->
<g id="node2" class="node">
<title>g1</title>
<ellipse fill="none" stroke="#000000" cx="520.2416" cy="-366" rx="32.4942" ry="18"/>
<text text-anchor="middle" x="520.2416" y="-362.3" font-family="Times,serif" font-size="14.00" fill="#000000">egoist</text>
</g>
<!-- g0&#45;&gt;g1 -->
<g id="edge1" class="edge">
<title>g0&#45;&gt;g1</title>
<path fill="none" stroke="#000000" d="M543.7726,-435.3796C539.9419,-429.7385 536.0519,-423.3134 533.2416,-417 530.0229,-409.7689 527.4939,-401.5919 525.5565,-393.9373"/>
<polygon fill="#000000" stroke="#000000" points="528.9158,-392.9271 523.272,-383.9606 522.0925,-394.4896 528.9158,-392.9271"/>
<text text-anchor="middle" x="558.7416" y="-405.8" font-family="Times,serif" font-size="14.00" fill="#000000">0.00035s</text>
</g>
<!-- g2 -->
<g id="node3" class="node">
<title>g2</title>
<ellipse fill="none" stroke="#000000" cx="619.2416" cy="-366" rx="48.1917" ry="18"/>
<text text-anchor="middle" x="619.2416" y="-362.3" font-family="Times,serif" font-size="14.00" fill="#000000">egoist.app</text>
</g>
<!-- g0&#45;&gt;g2 -->
<g id="edge2" class="edge">
<title>g0&#45;&gt;g2</title>
<path fill="none" stroke="#000000" d="M570.5742,-435.5312C574.9787,-429.6791 579.8688,-423.0933 584.2416,-417 590.0352,-408.9271 596.2132,-400.0272 601.7408,-391.9527"/>
<polygon fill="#000000" stroke="#000000" points="604.6979,-393.8286 607.4347,-383.5933 598.9124,-389.8879 604.6979,-393.8286"/>
<text text-anchor="middle" x="616.2416" y="-405.8" font-family="Times,serif" font-size="14.00" fill="#000000">0.0236s</text>
</g>
<!-- g3 -->
<g id="node4" class="node">
<title>g3</title>
<ellipse fill="none" stroke="#000000" cx="339.2416" cy="-279" rx="33.5952" ry="18"/>
<text text-anchor="middle" x="339.2416" y="-275.3" font-family="Times,serif" font-size="14.00" fill="#000000">typing</text>
</g>
<!-- g2&#45;&gt;g3 -->
<g id="edge3" class="edge">
<title>g2&#45;&gt;g3</title>
<path fill="none" stroke="#000000" d="M583.2733,-353.9081C576.0325,-351.7375 568.436,-349.6459 561.2416,-348 508.6699,-335.9729 492.662,-346.2601 441.2416,-330 416.3083,-322.1156 389.951,-308.7909 370.2765,-297.7384"/>
<polygon fill="#000000" stroke="#000000" points="371.8805,-294.6237 361.4639,-292.6889 368.4004,-300.6974 371.8805,-294.6237"/>
<text text-anchor="middle" x="466.7416" y="-318.8" font-family="Times,serif" font-size="14.00" fill="#000000">0.00285s</text>
</g>
<!-- g4 -->
<g id="node5" class="node">
<title>g4</title>
<ellipse fill="none" stroke="#000000" cx="441.2416" cy="-279" rx="50.8918" ry="18"/>
<text text-anchor="middle" x="441.2416" y="-275.3" font-family="Times,serif" font-size="14.00" fill="#000000">__future__</text>
</g>
<!-- g2&#45;&gt;g4 -->
<g id="edge4" class="edge">
<title>g2&#45;&gt;g4</title>
<path fill="none" stroke="#000000" d="M582.1571,-354.4869C563.4848,-348.1655 540.7334,-339.6521 521.2416,-330 504.4954,-321.7074 486.8798,-310.7484 472.4545,-301.1149"/>
<polygon fill="#000000" stroke="#000000" points="474.1611,-298.0432 463.9212,-295.3237 470.2302,-303.8354 474.1611,-298.0432"/>
<text text-anchor="middle" x="546.7416" y="-318.8" font-family="Times,serif" font-size="14.00" fill="#000000">0.00018s</text>
</g>
<!-- g5 -->
<g id="node6" class="node">
<title>g5</title>
<ellipse fill="none" stroke="#000000" cx="560.2416" cy="-279" rx="50.0912" ry="18"/>
<text text-anchor="middle" x="560.2416" y="-275.3" font-family="Times,serif" font-size="14.00" fill="#000000">miniconfig</text>
</g>
<!-- g2&#45;&gt;g5 -->
<g id="edge5" class="edge">
<title>g2&#45;&gt;g5</title>
<path fill="none" stroke="#000000" d="M600.5364,-349.0901C594.8638,-343.38 588.9059,-336.7368 584.2416,-330 579.2519,-322.7931 574.8155,-314.3853 571.1562,-306.4995"/>
<polygon fill="#000000" stroke="#000000" points="574.3211,-305.0017 567.0931,-297.2552 567.9128,-307.8183 574.3211,-305.0017"/>
<text text-anchor="middle" x="609.7416" y="-318.8" font-family="Times,serif" font-size="14.00" fill="#000000">0.00812s</text>
</g>
<!-- g6 -->
<g id="node7" class="node">
<title>g6</title>
<ellipse fill="none" stroke="#000000" cx="679.2416" cy="-279" rx="51.1914" ry="18"/>
<text text-anchor="middle" x="679.2416" y="-275.3" font-family="Times,serif" font-size="14.00" fill="#000000">dataclasses</text>
</g>
<!-- g2&#45;&gt;g6 -->
<g id="edge6" class="edge">
<title>g2&#45;&gt;g6</title>
<path fill="none" stroke="#000000" d="M631.3835,-348.3943C640.0041,-335.8944 651.7178,-318.9096 661.3986,-304.8724"/>
<polygon fill="#000000" stroke="#000000" points="664.3217,-306.7988 667.1178,-296.5796 658.5592,-302.8246 664.3217,-306.7988"/>
<text text-anchor="middle" x="678.7416" y="-318.8" font-family="Times,serif" font-size="14.00" fill="#000000">0.00784s</text>
</g>
<!-- g7 -->
<g id="node8" class="node">
<title>g7</title>
<ellipse fill="none" stroke="#000000" cx="825.2416" cy="-279" rx="76.8869" ry="18"/>
<text text-anchor="middle" x="825.2416" y="-275.3" font-family="Times,serif" font-size="14.00" fill="#000000">egoist.langhelpers</text>
</g>
<!-- g2&#45;&gt;g7 -->
<g id="edge7" class="edge">
<title>g2&#45;&gt;g7</title>
<path fill="none" stroke="#000000" d="M652.2954,-352.8737C669.0935,-346.1411 689.8017,-337.7468 708.2416,-330 731.9985,-320.0195 758.3151,-308.5825 779.9635,-299.0718"/>
<polygon fill="#000000" stroke="#000000" points="781.5015,-302.219 789.2442,-294.987 778.6815,-295.8121 781.5015,-302.219"/>
<text text-anchor="middle" x="766.7416" y="-318.8" font-family="Times,serif" font-size="14.00" fill="#000000">0.00057s</text>
</g>
<!-- g8 -->
<g id="node9" class="node">
<title>g8</title>
<ellipse fill="none" stroke="#000000" cx="996.2416" cy="-279" rx="76.8869" ry="18"/>
<text text-anchor="middle" x="996.2416" y="-275.3" font-family="Times,serif" font-size="14.00" fill="#000000">typing_extensions</text>
</g>
<!-- g2&#45;&gt;g8 -->
<g id="edge8" class="edge">
<title>g2&#45;&gt;g8</title>
<path fill="none" stroke="#000000" d="M662.2882,-357.8573C698.2087,-350.9158 750.6972,-340.432 796.2416,-330 843.4146,-319.195 896.4781,-305.5964 936.0878,-295.1589"/>
<polygon fill="#000000" stroke="#000000" points="937.0828,-298.5162 945.8564,-292.5771 935.294,-291.7486 937.0828,-298.5162"/>
<text text-anchor="middle" x="882.7416" y="-318.8" font-family="Times,serif" font-size="14.00" fill="#000000">0.00084s</text>
</g>
<!-- g13 -->
<g id="node14" class="node">
<title>g13</title>
<ellipse fill="none" stroke="#000000" cx="94.2416" cy="-192" rx="94.4839" ry="18"/>
<text text-anchor="middle" x="94.2416" y="-188.3" font-family="Times,serif" font-size="14.00" fill="#000000">miniconfig.langhelpers</text>
</g>
<!-- g5&#45;&gt;g13 -->
<g id="edge13" class="edge">
<title>g5&#45;&gt;g13</title>
<path fill="none" stroke="#000000" d="M523.3577,-266.6865C516.0854,-264.5605 508.4683,-262.5421 501.2416,-261 438.1637,-247.5399 420.9368,-253.145 357.2416,-243 292.7319,-232.7253 219.8451,-218.374 167.1898,-207.5118"/>
<polygon fill="#000000" stroke="#000000" points="167.7709,-204.0579 157.2688,-205.4571 166.3512,-210.9125 167.7709,-204.0579"/>
<text text-anchor="middle" x="382.7416" y="-231.8" font-family="Times,serif" font-size="14.00" fill="#000000">0.00084s</text>
</g>
<!-- g14 -->
<g id="node15" class="node">
<title>g14</title>
<ellipse fill="none" stroke="#000000" cx="295.2416" cy="-192" rx="89.0842" ry="18"/>
<text text-anchor="middle" x="295.2416" y="-188.3" font-family="Times,serif" font-size="14.00" fill="#000000">miniconfig.modulelib</text>
</g>
<!-- g5&#45;&gt;g14 -->
<g id="edge14" class="edge">
<title>g5&#45;&gt;g14</title>
<path fill="none" stroke="#000000" d="M523.1155,-266.8114C478.5534,-252.1816 403.3739,-227.5 351.6288,-210.512"/>
<polygon fill="#000000" stroke="#000000" points="352.5233,-207.1219 341.9305,-207.328 350.3398,-213.7727 352.5233,-207.1219"/>
<text text-anchor="middle" x="469.7416" y="-231.8" font-family="Times,serif" font-size="14.00" fill="#000000">0.00096s</text>
</g>
<!-- g15 -->
<g id="node16" class="node">
<title>g15</title>
<ellipse fill="none" stroke="#000000" cx="474.2416" cy="-192" rx="71.4873" ry="18"/>
<text text-anchor="middle" x="474.2416" y="-188.3" font-family="Times,serif" font-size="14.00" fill="#000000">miniconfig.types</text>
</g>
<!-- g5&#45;&gt;g15 -->
<g id="edge15" class="edge">
<title>g5&#45;&gt;g15</title>
<path fill="none" stroke="#000000" d="M543.2508,-261.8116C530.5786,-248.992 513.0789,-231.2889 498.8731,-216.9179"/>
<polygon fill="#000000" stroke="#000000" points="501.3069,-214.4013 491.7876,-209.75 496.3286,-219.3224 501.3069,-214.4013"/>
<text text-anchor="middle" x="548.7416" y="-231.8" font-family="Times,serif" font-size="14.00" fill="#000000">0.00114s</text>
</g>
<!-- g16 -->
<g id="node17" class="node">
<title>g16</title>
<ellipse fill="none" stroke="#000000" cx="655.2416" cy="-192" rx="91.784" ry="18"/>
<text text-anchor="middle" x="655.2416" y="-188.3" font-family="Times,serif" font-size="14.00" fill="#000000">miniconfig.exceptions</text>
</g>
<!-- g5&#45;&gt;g16 -->
<g id="edge16" class="edge">
<title>g5&#45;&gt;g16</title>
<path fill="none" stroke="#000000" d="M578.5586,-262.2255C592.7373,-249.2408 612.58,-231.0691 628.5283,-216.4638"/>
<polygon fill="#000000" stroke="#000000" points="630.9917,-218.9538 636.0027,-209.6188 626.2641,-213.7914 630.9917,-218.9538"/>
<text text-anchor="middle" x="639.7416" y="-231.8" font-family="Times,serif" font-size="14.00" fill="#000000">0.00083s</text>
</g>
<!-- g9 -->
<g id="node10" class="node">
<title>g9</title>
<ellipse fill="none" stroke="#000000" cx="801.2416" cy="-192" rx="36.2938" ry="18"/>
<text text-anchor="middle" x="801.2416" y="-188.3" font-family="Times,serif" font-size="14.00" fill="#000000">inspect</text>
</g>
<!-- g6&#45;&gt;g9 -->
<g id="edge9" class="edge">
<title>g6&#45;&gt;g9</title>
<path fill="none" stroke="#000000" d="M701.903,-262.8399C721.7348,-248.6975 750.6586,-228.0715 772.1871,-212.7192"/>
<polygon fill="#000000" stroke="#000000" points="774.2211,-215.5675 780.3309,-206.9118 770.1569,-209.8682 774.2211,-215.5675"/>
<text text-anchor="middle" x="773.7416" y="-231.8" font-family="Times,serif" font-size="14.00" fill="#000000">0.00453s</text>
</g>
<!-- g10 -->
<g id="node11" class="node">
<title>g10</title>
<ellipse fill="none" stroke="#000000" cx="884.2416" cy="-192" rx="28.6953" ry="18"/>
<text text-anchor="middle" x="884.2416" y="-188.3" font-family="Times,serif" font-size="14.00" fill="#000000">copy</text>
</g>
<!-- g6&#45;&gt;g10 -->
<g id="edge10" class="edge">
<title>g6&#45;&gt;g10</title>
<path fill="none" stroke="#000000" d="M718.2656,-267.1863C725.2444,-265.104 732.4535,-262.9726 739.2416,-261 767.6159,-252.7544 776.2381,-254.9957 803.2416,-243 822.2844,-234.5407 842.1054,-222.1328 857.3737,-211.6738"/>
<polygon fill="#000000" stroke="#000000" points="859.6063,-214.3836 865.797,-205.7856 855.5957,-208.6463 859.6063,-214.3836"/>
<text text-anchor="middle" x="856.7416" y="-231.8" font-family="Times,serif" font-size="14.00" fill="#000000">0.00092s</text>
</g>
<!-- g11 -->
<g id="node12" class="node">
<title>g11</title>
<ellipse fill="none" stroke="#000000" cx="801.2416" cy="-105" rx="27" ry="18"/>
<text text-anchor="middle" x="801.2416" y="-101.3" font-family="Times,serif" font-size="14.00" fill="#000000">dis</text>
</g>
<!-- g9&#45;&gt;g11 -->
<g id="edge12" class="edge">
<title>g9&#45;&gt;g11</title>
<path fill="none" stroke="#000000" d="M801.2416,-173.9735C801.2416,-162.1918 801.2416,-146.5607 801.2416,-133.1581"/>
<polygon fill="#000000" stroke="#000000" points="804.7417,-133.0033 801.2416,-123.0034 797.7417,-133.0034 804.7417,-133.0033"/>
<text text-anchor="middle" x="826.7416" y="-144.8" font-family="Times,serif" font-size="14.00" fill="#000000">0.00175s</text>
</g>
<!-- g12 -->
<g id="node13" class="node">
<title>g12</title>
<ellipse fill="none" stroke="#000000" cx="801.2416" cy="-18" rx="37.0935" ry="18"/>
<text text-anchor="middle" x="801.2416" y="-14.3" font-family="Times,serif" font-size="14.00" fill="#000000">opcode</text>
</g>
<!-- g11&#45;&gt;g12 -->
<g id="edge11" class="edge">
<title>g11&#45;&gt;g12</title>
<path fill="none" stroke="#000000" d="M801.2416,-86.9735C801.2416,-75.1918 801.2416,-59.5607 801.2416,-46.1581"/>
<polygon fill="#000000" stroke="#000000" points="804.7417,-46.0033 801.2416,-36.0034 797.7417,-46.0034 804.7417,-46.0033"/>
<text text-anchor="middle" x="823.2416" y="-57.8" font-family="Times,serif" font-size="14.00" fill="#000000">0.0007s</text>
</g>
<!-- g17 -->
<g id="node18" class="node">
<title>g17</title>
<ellipse fill="none" stroke="#000000" cx="295.2416" cy="-105" rx="70.3881" ry="18"/>
<text text-anchor="middle" x="295.2416" y="-101.3" font-family="Times,serif" font-size="14.00" fill="#000000">egoist.directives</text>
</g>
<!-- g14&#45;&gt;g17 -->
<g id="edge17" class="edge">
<title>g14&#45;&gt;g17</title>
<path fill="none" stroke="#000000" d="M295.2416,-173.9735C295.2416,-162.1918 295.2416,-146.5607 295.2416,-133.1581"/>
<polygon fill="#000000" stroke="#000000" points="298.7417,-133.0033 295.2416,-123.0034 291.7417,-133.0034 298.7417,-133.0033"/>
<text text-anchor="middle" x="320.7416" y="-144.8" font-family="Times,serif" font-size="14.00" fill="#000000">0.00043s</text>
</g>
</g>
</svg>
