<?xml version="1.0" encoding="UTF-8" standalone="no"?>
<!DOCTYPE svg PUBLIC "-//W3C//DTD SVG 1.1//EN"
 "http://www.w3.org/Graphics/SVG/1.1/DTD/svg11.dtd">
<!-- Generated by graphviz version 2.40.1 (20161225.0304)
 -->
<!-- Title: G Pages: 1 -->
<svg width="386pt" height="294pt"
 viewBox="0.00 0.00 386.00 294.00" xmlns="http://www.w3.org/2000/svg" xmlns:xlink="http://www.w3.org/1999/xlink">
<g id="graph0" class="graph" transform="scale(1 1) rotate(0) translate(4 290)">
<title>G</title>
<polygon fill="#ffffff" stroke="transparent" points="-4,4 -4,-290 382,-290 382,4 -4,4"/>
<!-- Customer -->
<g id="node1" class="node">
<title>Customer</title>
<g id="a_node1"><a xlink:href="#Customer" xlink:title="&lt;TABLE&gt;">
<polygon fill="#f2f2f2" stroke="transparent" points="120,-180 120,-282 270,-282 270,-180 120,-180"/>
<polygon fill="none" stroke="#000000" points="120,-253 120,-282 270,-282 270,-253 120,-253"/>
<text text-anchor="start" x="167.5" y="-263.8" font-family="Times,serif" font-size="14.00" fill="#000000">Customer</text>
<polygon fill="none" stroke="#000000" points="120,-209 120,-253 270,-253 270,-209 120,-209"/>
<text text-anchor="start" x="127" y="-234.8" font-family="Times,serif" font-size="14.00" fill="#000000">+ name: str</text>
<text text-anchor="start" x="127" y="-219.8" font-family="Times,serif" font-size="14.00" fill="#000000">+ address: str</text>
<polygon fill="none" stroke="#000000" points="120,-180 120,-209 270,-209 270,-180 120,-180"/>
<text text-anchor="start" x="127" y="-190.8" font-family="Times,serif" font-size="14.00" fill="#000000">+ getCreditRating() : str</text>
</a>
</g>
</g>
<!-- CorporateCustomer -->
<g id="node2" class="node">
<title>CorporateCustomer</title>
<g id="a_node2"><a xlink:href="#CorporateCustomer" xlink:title="&lt;TABLE&gt;">
<polygon fill="#f2f2f2" stroke="transparent" points="8,-4 8,-136 184,-136 184,-4 8,-4"/>
<polygon fill="none" stroke="#000000" points="8,-107 8,-136 184,-136 184,-107 8,-107"/>
<text text-anchor="start" x="40.5" y="-117.8" font-family="Times,serif" font-size="14.00" fill="#000000">CorporateCustomer</text>
<polygon fill="none" stroke="#000000" points="8,-48 8,-107 184,-107 184,-48 8,-48"/>
<text text-anchor="start" x="15" y="-88.8" font-family="Times,serif" font-size="14.00" fill="#000000">+ contactName: str</text>
<text text-anchor="start" x="15" y="-73.8" font-family="Times,serif" font-size="14.00" fill="#000000">+ creditRating: float</text>
<text text-anchor="start" x="15" y="-58.8" font-family="Times,serif" font-size="14.00" fill="#000000">+ creditLimit: int</text>
<polygon fill="none" stroke="#000000" points="8,-4 8,-48 184,-48 184,-4 8,-4"/>
<text text-anchor="start" x="15" y="-29.8" font-family="Times,serif" font-size="14.00" fill="#000000">+ billForMonth(n: int) : void</text>
<text text-anchor="start" x="15" y="-14.8" font-family="Times,serif" font-size="14.00" fill="#000000">+ remind() : void</text>
</a>
</g>
</g>
<!-- Customer&#45;&gt;CorporateCustomer -->
<g id="edge1" class="edge">
<title>Customer&#45;&gt;CorporateCustomer</title>
<path fill="none" stroke="#000000" d="M157.4266,-169.8958C151.423,-160.1323 145.1704,-149.9641 139.0516,-140.0133"/>
<polygon fill="none" stroke="#000000" points="155.5871,-171.2476 160.9298,-175.5929 159.463,-168.8643 155.5871,-171.2476"/>
</g>
<!-- PersonalCustomer -->
<g id="node3" class="node">
<title>PersonalCustomer</title>
<g id="a_node3"><a xlink:href="#PersonalCustomer" xlink:title="&lt;TABLE&gt;">
<polygon fill="#f2f2f2" stroke="transparent" points="218,-34 218,-106 370,-106 370,-34 218,-34"/>
<polygon fill="none" stroke="#000000" points="218,-77 218,-106 370,-106 370,-77 218,-77"/>
<text text-anchor="start" x="242.5" y="-87.8" font-family="Times,serif" font-size="14.00" fill="#000000">PersonalCustomer</text>
<polygon fill="none" stroke="#000000" points="218,-48 218,-77 370,-77 370,-48 218,-48"/>
<text text-anchor="start" x="225" y="-58.8" font-family="Times,serif" font-size="14.00" fill="#000000">+ creditCardNumber: str</text>
<polygon fill="none" stroke="#000000" points="218,-34 218,-48 370,-48 370,-34 218,-34"/>
</a>
</g>
</g>
<!-- Customer&#45;&gt;PersonalCustomer -->
<g id="edge2" class="edge">
<title>Customer&#45;&gt;PersonalCustomer</title>
<path fill="none" stroke="#000000" d="M232.5213,-169.9805C244.8663,-149.9044 258.2688,-128.1084 269.3999,-110.0062"/>
<polygon fill="none" stroke="#000000" points="230.537,-168.8643 229.0702,-175.5929 234.4129,-171.2476 230.537,-168.8643"/>
</g>
</g>
</svg>
