<?xml version="1.0" encoding="UTF-8" standalone="no"?>
<!DOCTYPE svg PUBLIC "-//W3C//DTD SVG 1.1//EN"
 "http://www.w3.org/Graphics/SVG/1.1/DTD/svg11.dtd">
<!-- Generated by graphviz version 2.40.1 (20161225.0304)
 -->
<!-- Title: G Pages: 1 -->
<svg width="362pt" height="118pt"
 viewBox="0.00 0.00 362.00 118.00" xmlns="http://www.w3.org/2000/svg" xmlns:xlink="http://www.w3.org/1999/xlink">
<g id="graph0" class="graph" transform="scale(1 1) rotate(0) translate(4 114)">
<title>G</title>
<polygon fill="#ffffff" stroke="transparent" points="-4,4 -4,-114 358,-114 358,4 -4,4"/>
<!-- Customer -->
<g id="node1" class="node">
<title>Customer</title>
<g id="a_node1"><a xlink:href="#Customer" xlink:title="&lt;TABLE&gt;">
<polygon fill="#f2f2f2" stroke="transparent" points="8,-4 8,-106 158,-106 158,-4 8,-4"/>
<polygon fill="none" stroke="#000000" points="8,-77 8,-106 158,-106 158,-77 8,-77"/>
<text text-anchor="start" x="55.5" y="-87.8" font-family="Times,serif" font-size="14.00" fill="#000000">Customer</text>
<polygon fill="none" stroke="#000000" points="8,-33 8,-77 158,-77 158,-33 8,-33"/>
<text text-anchor="start" x="15" y="-58.8" font-family="Times,serif" font-size="14.00" fill="#000000">+ name: str</text>
<text text-anchor="start" x="15" y="-43.8" font-family="Times,serif" font-size="14.00" fill="#000000">+ address: str</text>
<polygon fill="none" stroke="#000000" points="8,-4 8,-33 158,-33 158,-4 8,-4"/>
<text text-anchor="start" x="15" y="-14.8" font-family="Times,serif" font-size="14.00" fill="#000000">+ getCreditRating() : str</text>
</a>
</g>
</g>
<!-- Order -->
<g id="node2" class="node">
<title>Order</title>
<g id="a_node2"><a xlink:href="#Order" xlink:title="&lt;TABLE&gt;">
<polygon fill="#f2f2f2" stroke="transparent" points="228,-11.5 228,-98.5 346,-98.5 346,-11.5 228,-11.5"/>
<polygon fill="none" stroke="#000000" points="228,-69 228,-98 346,-98 346,-69 228,-69"/>
<text text-anchor="start" x="270.5" y="-79.8" font-family="Times,serif" font-size="14.00" fill="#000000">Order</text>
<polygon fill="none" stroke="#000000" points="228,-55 228,-69 346,-69 346,-55 228,-55"/>
<polygon fill="none" stroke="#000000" points="228,-11 228,-55 346,-55 346,-11 228,-11"/>
<text text-anchor="start" x="235" y="-36.8" font-family="Times,serif" font-size="14.00" fill="#000000">+ dispatch() : void</text>
<text text-anchor="start" x="235" y="-21.8" font-family="Times,serif" font-size="14.00" fill="#000000">+ close() : void</text>
</a>
</g>
</g>
<!-- Customer&#45;&gt;Order -->
<g id="edge1" class="edge">
<title>Customer&#45;&gt;Order</title>
<path fill="none" stroke="#000000" d="M166.2734,-55C184.0366,-55 201.7997,-55 219.5629,-55"/>
<text text-anchor="middle" x="215.5629" y="-58.8" font-family="Times,serif" font-size="14.00" fill="#000000">*</text>
</g>
</g>
</svg>
