<?xml version="1.0" encoding="UTF-8" standalone="no"?>
<!DOCTYPE svg PUBLIC "-//W3C//DTD SVG 1.1//EN"
 "http://www.w3.org/Graphics/SVG/1.1/DTD/svg11.dtd">
<!-- Generated by graphviz version 2.40.1 (20161225.0304)
 -->
<!-- Title: G Pages: 1 -->
<svg width="234pt" height="73pt"
 viewBox="0.00 0.00 234.00 73.00" xmlns="http://www.w3.org/2000/svg" xmlns:xlink="http://www.w3.org/1999/xlink">
<g id="graph0" class="graph" transform="scale(1 1) rotate(0) translate(4 69)">
<title>G</title>
<polygon fill="#ffffff" stroke="transparent" points="-4,4 -4,-69 230,-69 230,4 -4,4"/>
<!-- 社員 -->
<g id="node1" class="node">
<title>社員</title>
<g id="a_node1"><a xlink:href="#社員" xlink:title="&lt;TABLE&gt;">
<polygon fill="#f2f2f2" stroke="transparent" points="8,-4 8,-61 51,-61 51,-4 8,-4"/>
<polygon fill="none" stroke="#000000" points="8.5,-31.5 8.5,-60.5 51.5,-60.5 51.5,-31.5 8.5,-31.5"/>
<text text-anchor="start" x="15.5" y="-42.3" font-family="Times,serif" font-size="14.00" fill="#000000">社員</text>
<polygon fill="none" stroke="#000000" points="8.5,-17.5 8.5,-31.5 51.5,-31.5 51.5,-17.5 8.5,-17.5"/>
<polygon fill="none" stroke="#000000" points="8.5,-3.5 8.5,-17.5 51.5,-17.5 51.5,-3.5 8.5,-3.5"/>
</a>
</g>
</g>
<!-- 会社 -->
<g id="node2" class="node">
<title>会社</title>
<g id="a_node2"><a xlink:href="#会社" xlink:title="&lt;TABLE&gt;">
<polygon fill="#f2f2f2" stroke="transparent" points="175,-4 175,-61 218,-61 218,-4 175,-4"/>
<polygon fill="none" stroke="#000000" points="175.5,-31.5 175.5,-60.5 218.5,-60.5 218.5,-31.5 175.5,-31.5"/>
<text text-anchor="start" x="182.5" y="-42.3" font-family="Times,serif" font-size="14.00" fill="#000000">会社</text>
<polygon fill="none" stroke="#000000" points="175.5,-17.5 175.5,-31.5 218.5,-31.5 218.5,-17.5 175.5,-17.5"/>
<polygon fill="none" stroke="#000000" points="175.5,-3.5 175.5,-17.5 218.5,-17.5 218.5,-3.5 175.5,-3.5"/>
</a>
</g>
</g>
<!-- 会社&#45;&gt;社員 -->
<g id="edge1" class="edge">
<title>会社&#45;&gt;社員</title>
<path fill="none" stroke="#000000" d="M166.9022,-32.5C136.5987,-32.5 89.7535,-32.5 59.3563,-32.5"/>
<text text-anchor="middle" x="113" y="-39.3" font-family="Times,serif" font-size="14.00" fill="#000000">所属</text>
<text text-anchor="middle" x="63.3563" y="-36.3" font-family="Times,serif" font-size="14.00" fill="#000000">*</text>
</g>
</g>
</svg>
