<?xml version="1.0" encoding="UTF-8" standalone="no"?>
<!DOCTYPE svg PUBLIC "-//W3C//DTD SVG 1.1//EN"
 "http://www.w3.org/Graphics/SVG/1.1/DTD/svg11.dtd">
<!-- Generated by graphviz version 2.40.1 (20161225.0304)
 -->
<!-- Title: G Pages: 1 -->
<svg width="491pt" height="234pt"
 viewBox="0.00 0.00 491.00 234.00" xmlns="http://www.w3.org/2000/svg" xmlns:xlink="http://www.w3.org/1999/xlink">
<g id="graph0" class="graph" transform="scale(1 1) rotate(0) translate(4 230)">
<title>G</title>
<polygon fill="#ffffff" stroke="transparent" points="-4,4 -4,-230 487,-230 487,4 -4,4"/>
<!-- 社員 -->
<g id="node1" class="node">
<title>社員</title>
<g id="a_node1"><a xlink:href="#社員" xlink:title="&lt;TABLE&gt;">
<polygon fill="#f2f2f2" stroke="transparent" points="189,-120 189,-222 322,-222 322,-120 189,-120"/>
<polygon fill="none" stroke="#000000" points="189.5,-193 189.5,-222 322.5,-222 322.5,-193 189.5,-193"/>
<text text-anchor="start" x="241.5" y="-203.8" font-family="Times,serif" font-size="14.00" fill="#000000">社員</text>
<polygon fill="none" stroke="#000000" points="189.5,-149 189.5,-193 322.5,-193 322.5,-149 189.5,-149"/>
<text text-anchor="start" x="196.5" y="-174.8" font-family="Times,serif" font-size="14.00" fill="#000000">+ 名前: str</text>
<text text-anchor="start" x="196.5" y="-159.8" font-family="Times,serif" font-size="14.00" fill="#000000">+ 入社日: str</text>
<polygon fill="none" stroke="#000000" points="189.5,-120 189.5,-149 322.5,-149 322.5,-120 189.5,-120"/>
<text text-anchor="start" x="196.5" y="-130.8" font-family="Times,serif" font-size="14.00" fill="#000000">+ 勤怠入力をする()</text>
</a>
</g>
</g>
<!-- 技術社員 -->
<g id="node2" class="node">
<title>技術社員</title>
<g id="a_node2"><a xlink:href="#技術社員" xlink:title="&lt;TABLE&gt;">
<polygon fill="#f2f2f2" stroke="transparent" points="8,-4 8,-76 169,-76 169,-4 8,-4"/>
<polygon fill="none" stroke="#000000" points="8.5,-47 8.5,-76 169.5,-76 169.5,-47 8.5,-47"/>
<text text-anchor="start" x="60.5" y="-57.8" font-family="Times,serif" font-size="14.00" fill="#000000">技術社員</text>
<polygon fill="none" stroke="#000000" points="8.5,-33 8.5,-47 169.5,-47 169.5,-33 8.5,-33"/>
<polygon fill="none" stroke="#000000" points="8.5,-4 8.5,-33 169.5,-33 169.5,-4 8.5,-4"/>
<text text-anchor="start" x="15.5" y="-14.8" font-family="Times,serif" font-size="14.00" fill="#000000">+ システム開発を行う()</text>
</a>
</g>
</g>
<!-- 社員&#45;&gt;技術社員 -->
<g id="edge1" class="edge">
<title>社員&#45;&gt;技術社員</title>
<path fill="none" stroke="#000000" d="M179.7808,-111.6035C166.2253,-100.9702 152.394,-90.1204 139.7324,-80.1883"/>
<polygon fill="none" stroke="#000000" points="178.6426,-113.6021 185.161,-115.8239 181.4508,-110.0221 178.6426,-113.6021"/>
</g>
<!-- 営業社員 -->
<g id="node3" class="node">
<title>営業社員</title>
<g id="a_node3"><a xlink:href="#営業社員" xlink:title="&lt;TABLE&gt;">
<polygon fill="#f2f2f2" stroke="transparent" points="203,-4 203,-76 308,-76 308,-4 203,-4"/>
<polygon fill="none" stroke="#000000" points="203.5,-47 203.5,-76 308.5,-76 308.5,-47 203.5,-47"/>
<text text-anchor="start" x="227.5" y="-57.8" font-family="Times,serif" font-size="14.00" fill="#000000">営業社員</text>
<polygon fill="none" stroke="#000000" points="203.5,-33 203.5,-47 308.5,-47 308.5,-33 203.5,-33"/>
<polygon fill="none" stroke="#000000" points="203.5,-4 203.5,-33 308.5,-33 308.5,-4 203.5,-4"/>
<text text-anchor="start" x="210.5" y="-14.8" font-family="Times,serif" font-size="14.00" fill="#000000">+ 営業を行う()</text>
</a>
</g>
</g>
<!-- 社員&#45;&gt;営業社員 -->
<g id="edge2" class="edge">
<title>社員&#45;&gt;営業社員</title>
<path fill="none" stroke="#000000" d="M255.5,-109.0989C255.5,-99.3451 255.5,-89.4845 255.5,-80.3858"/>
<polygon fill="none" stroke="#000000" points="253.2251,-109.3238 255.5,-115.8239 257.7751,-109.3239 253.2251,-109.3238"/>
</g>
<!-- 事務社員 -->
<g id="node4" class="node">
<title>事務社員</title>
<g id="a_node4"><a xlink:href="#事務社員" xlink:title="&lt;TABLE&gt;">
<polygon fill="#f2f2f2" stroke="transparent" points="342,-4 342,-76 475,-76 475,-4 342,-4"/>
<polygon fill="none" stroke="#000000" points="342.5,-47 342.5,-76 475.5,-76 475.5,-47 342.5,-47"/>
<text text-anchor="start" x="380.5" y="-57.8" font-family="Times,serif" font-size="14.00" fill="#000000">事務社員</text>
<polygon fill="none" stroke="#000000" points="342.5,-33 342.5,-47 475.5,-47 475.5,-33 342.5,-33"/>
<polygon fill="none" stroke="#000000" points="342.5,-4 342.5,-33 475.5,-33 475.5,-4 342.5,-4"/>
<text text-anchor="start" x="349.5" y="-14.8" font-family="Times,serif" font-size="14.00" fill="#000000">+ 事務処理を行う()</text>
</a>
</g>
</g>
<!-- 社員&#45;&gt;事務社員 -->
<g id="edge3" class="edge">
<title>社員&#45;&gt;事務社員</title>
<path fill="none" stroke="#000000" d="M325.1704,-111.3475C337.4115,-100.8666 349.8877,-90.1844 361.3318,-80.3858"/>
<polygon fill="none" stroke="#000000" points="323.4002,-109.8682 319.9423,-115.8239 326.3594,-113.3245 323.4002,-109.8682"/>
</g>
</g>
</svg>
