<?xml version="1.0" encoding="UTF-8" standalone="no"?>
<!DOCTYPE svg PUBLIC "-//W3C//DTD SVG 1.1//EN"
 "http://www.w3.org/Graphics/SVG/1.1/DTD/svg11.dtd">
<!-- Generated by graphviz version 2.40.1 (20161225.0304)
 -->
<!-- Title: G Pages: 1 -->
<svg width="505pt" height="249pt"
 viewBox="0.00 0.00 505.00 249.00" xmlns="http://www.w3.org/2000/svg" xmlns:xlink="http://www.w3.org/1999/xlink">
<g id="graph0" class="graph" transform="scale(1 1) rotate(0) translate(4 245)">
<title>G</title>
<polygon fill="#ffffff" stroke="transparent" points="-4,4 -4,-245 501,-245 501,4 -4,4"/>
<!-- 車 -->
<g id="node1" class="node">
<title>車</title>
<g id="a_node1"><a xlink:href="#車" xlink:title="&lt;TABLE&gt;">
<polygon fill="#f2f2f2" stroke="transparent" points="178,-135 178,-237 291,-237 291,-135 178,-135"/>
<polygon fill="none" stroke="#000000" points="178.5,-208 178.5,-237 291.5,-237 291.5,-208 178.5,-208"/>
<text text-anchor="start" x="185.5" y="-218.8" font-family="Times,serif" font-size="14.00" fill="#000000">&lt;&lt;Interface&gt;&gt; 車</text>
<polygon fill="none" stroke="#000000" points="178.5,-194 178.5,-208 291.5,-208 291.5,-194 178.5,-194"/>
<polygon fill="none" stroke="#000000" points="178.5,-135 178.5,-194 291.5,-194 291.5,-135 178.5,-135"/>
<text text-anchor="start" x="185.5" y="-175.8" font-family="Times,serif" font-size="14.00" fill="#000000">+ 走る()</text>
<text text-anchor="start" x="185.5" y="-160.8" font-family="Times,serif" font-size="14.00" fill="#000000">+ 止まる()</text>
<text text-anchor="start" x="185.5" y="-145.8" font-family="Times,serif" font-size="14.00" fill="#000000">+ 曲がる()</text>
</a>
</g>
</g>
<!-- 乗用車 -->
<g id="node2" class="node">
<title>乗用車</title>
<g id="a_node2"><a xlink:href="#乗用車" xlink:title="&lt;TABLE&gt;">
<polygon fill="#f2f2f2" stroke="transparent" points="8,-4 8,-91 127,-91 127,-4 8,-4"/>
<polygon fill="none" stroke="#000000" points="8.5,-61.5 8.5,-90.5 127.5,-90.5 127.5,-61.5 8.5,-61.5"/>
<text text-anchor="start" x="46.5" y="-72.3" font-family="Times,serif" font-size="14.00" fill="#000000">乗用車</text>
<polygon fill="none" stroke="#000000" points="8.5,-47.5 8.5,-61.5 127.5,-61.5 127.5,-47.5 8.5,-47.5"/>
<polygon fill="none" stroke="#000000" points="8.5,-3.5 8.5,-47.5 127.5,-47.5 127.5,-3.5 8.5,-3.5"/>
<text text-anchor="start" x="15.5" y="-29.3" font-family="Times,serif" font-size="14.00" fill="#000000">+ 音楽を鳴らす()</text>
<text text-anchor="start" x="15.5" y="-14.3" font-family="Times,serif" font-size="14.00" fill="#000000">+ 充電する()</text>
</a>
</g>
</g>
<!-- 車&#45;&gt;乗用車 -->
<g id="edge1" class="edge">
<title>車&#45;&gt;乗用車</title>
<path fill="none" stroke="#000000" stroke-dasharray="5,2" d="M164.6744,-128.0908C151.3974,-117.0796 137.6461,-105.6751 124.8131,-95.0321"/>
<polygon fill="none" stroke="#000000" points="163.4779,-130.054 169.9334,-132.4523 166.3825,-126.5517 163.4779,-130.054"/>
</g>
<!-- バス -->
<g id="node3" class="node">
<title>バス</title>
<g id="a_node3"><a xlink:href="#バス" xlink:title="&lt;TABLE&gt;">
<polygon fill="#f2f2f2" stroke="transparent" points="161,-4 161,-91 308,-91 308,-4 161,-4"/>
<polygon fill="none" stroke="#000000" points="161.5,-61.5 161.5,-90.5 308.5,-90.5 308.5,-61.5 161.5,-61.5"/>
<text text-anchor="start" x="220.5" y="-72.3" font-family="Times,serif" font-size="14.00" fill="#000000">バス</text>
<polygon fill="none" stroke="#000000" points="161.5,-47.5 161.5,-61.5 308.5,-61.5 308.5,-47.5 161.5,-47.5"/>
<polygon fill="none" stroke="#000000" points="161.5,-3.5 161.5,-47.5 308.5,-47.5 308.5,-3.5 161.5,-3.5"/>
<text text-anchor="start" x="168.5" y="-29.3" font-family="Times,serif" font-size="14.00" fill="#000000">+ アナウンスをする()</text>
<text text-anchor="start" x="168.5" y="-14.3" font-family="Times,serif" font-size="14.00" fill="#000000">+ ドアを開く()</text>
</a>
</g>
</g>
<!-- 車&#45;&gt;バス -->
<g id="edge2" class="edge">
<title>車&#45;&gt;バス</title>
<path fill="none" stroke="#000000" stroke-dasharray="5,2" d="M234.5,-124.1933C234.5,-114.4998 234.5,-104.6096 234.5,-95.2941"/>
<polygon fill="none" stroke="#000000" points="232.2251,-124.3631 234.5,-130.8632 236.7751,-124.3632 232.2251,-124.3631"/>
</g>
<!-- トラック -->
<g id="node4" class="node">
<title>トラック</title>
<g id="a_node4"><a xlink:href="#トラック" xlink:title="&lt;TABLE&gt;">
<polygon fill="#f2f2f2" stroke="transparent" points="342,-4 342,-91 489,-91 489,-4 342,-4"/>
<polygon fill="none" stroke="#000000" points="342.5,-61.5 342.5,-90.5 489.5,-90.5 489.5,-61.5 342.5,-61.5"/>
<text text-anchor="start" x="387.5" y="-72.3" font-family="Times,serif" font-size="14.00" fill="#000000">トラック</text>
<polygon fill="none" stroke="#000000" points="342.5,-47.5 342.5,-61.5 489.5,-61.5 489.5,-47.5 342.5,-47.5"/>
<polygon fill="none" stroke="#000000" points="342.5,-3.5 342.5,-47.5 489.5,-47.5 489.5,-3.5 342.5,-3.5"/>
<text text-anchor="start" x="349.5" y="-29.3" font-family="Times,serif" font-size="14.00" fill="#000000">+ 荷物を積む操作()</text>
<text text-anchor="start" x="349.5" y="-14.3" font-family="Times,serif" font-size="14.00" fill="#000000">+ 荷物を下ろす操作()</text>
</a>
</g>
</g>
<!-- 車&#45;&gt;トラック -->
<g id="edge3" class="edge">
<title>車&#45;&gt;トラック</title>
<path fill="none" stroke="#000000" stroke-dasharray="5,2" d="M304.5023,-132.4347C320.6082,-120.1106 337.6281,-107.087 353.3733,-95.0389"/>
<polygon fill="none" stroke="#000000" points="302.8582,-130.8281 299.0786,-136.5849 305.6232,-134.4416 302.8582,-130.8281"/>
</g>
</g>
</svg>
