<?xml version="1.0" encoding="UTF-8" standalone="no"?>
<!DOCTYPE svg PUBLIC "-//W3C//DTD SVG 1.1//EN"
 "http://www.w3.org/Graphics/SVG/1.1/DTD/svg11.dtd">
<!-- Generated by graphviz version 2.40.1 (20161225.0304)
 -->
<!-- Title: G Pages: 1 -->
<svg width="506pt" height="436pt"
 viewBox="0.00 0.00 506.00 436.00" xmlns="http://www.w3.org/2000/svg" xmlns:xlink="http://www.w3.org/1999/xlink">
<g id="graph0" class="graph" transform="scale(1 1) rotate(0) translate(4 432)">
<title>G</title>
<polygon fill="#ffffff" stroke="transparent" points="-4,4 -4,-432 502,-432 502,4 -4,4"/>
<!-- Frame -->
<g id="node1" class="node">
<title>Frame</title>
<g id="a_node1"><a xlink:href="#Frame" xlink:title="&lt;TABLE&gt;">
<polygon fill="#f2f2f2" stroke="transparent" points="161.174,-366.993 161.174,-423.993 211.174,-423.993 211.174,-366.993 161.174,-366.993"/>
<polygon fill="none" stroke="#000000" points="161.174,-394.493 161.174,-423.493 211.174,-423.493 211.174,-394.493 161.174,-394.493"/>
<text text-anchor="start" x="168.174" y="-405.293" font-family="Times,serif" font-size="14.00" fill="#000000">Frame</text>
<polygon fill="none" stroke="#000000" points="161.174,-380.493 161.174,-394.493 211.174,-394.493 211.174,-380.493 161.174,-380.493"/>
<polygon fill="none" stroke="#000000" points="161.174,-366.493 161.174,-380.493 211.174,-380.493 211.174,-366.493 161.174,-366.493"/>
</a>
</g>
</g>
<!-- Window -->
<g id="node2" class="node">
<title>Window</title>
<g id="a_node2"><a xlink:href="#Window" xlink:title="&lt;TABLE&gt;">
<polygon fill="#f2f2f2" stroke="transparent" points="250.2818,-270.4038 250.2818,-327.4038 313.2818,-327.4038 313.2818,-270.4038 250.2818,-270.4038"/>
<polygon fill="none" stroke="#000000" points="250.7818,-297.9038 250.7818,-326.9038 313.7818,-326.9038 313.7818,-297.9038 250.7818,-297.9038"/>
<text text-anchor="start" x="257.7818" y="-308.7038" font-family="Times,serif" font-size="14.00" fill="#000000">Window</text>
<polygon fill="none" stroke="#000000" points="250.7818,-283.9038 250.7818,-297.9038 313.7818,-297.9038 313.7818,-283.9038 250.7818,-283.9038"/>
<polygon fill="none" stroke="#000000" points="250.7818,-269.9038 250.7818,-283.9038 313.7818,-283.9038 313.7818,-269.9038 250.7818,-269.9038"/>
</a>
</g>
</g>
<!-- Frame&#45;&gt;Window -->
<g id="edge1" class="edge">
<title>Frame&#45;&gt;Window</title>
<path fill="none" stroke="#000000" d="M223.2807,-358.0055C231.9141,-349.2834 241.0382,-340.0656 249.4467,-331.5708"/>
<polygon fill="none" stroke="#000000" points="221.4983,-356.5723 218.5425,-362.7923 224.732,-359.7731 221.4983,-356.5723"/>
</g>
<!-- Shape -->
<g id="node3" class="node">
<title>Shape</title>
<g id="a_node3"><a xlink:href="#Shape" xlink:title="&lt;TABLE&gt;">
<polygon fill="#f2f2f2" stroke="transparent" points="275.3578,-184.6429 275.3578,-241.6429 324.3578,-241.6429 324.3578,-184.6429 275.3578,-184.6429"/>
<polygon fill="none" stroke="#000000" points="275.8578,-212.1429 275.8578,-241.1429 324.8578,-241.1429 324.8578,-212.1429 275.8578,-212.1429"/>
<text text-anchor="start" x="282.8578" y="-222.9429" font-family="Times,serif" font-size="14.00" fill="#000000">Shape</text>
<polygon fill="none" stroke="#000000" points="275.8578,-198.1429 275.8578,-212.1429 324.8578,-212.1429 324.8578,-198.1429 275.8578,-198.1429"/>
<polygon fill="none" stroke="#000000" points="275.8578,-184.1429 275.8578,-198.1429 324.8578,-198.1429 324.8578,-184.1429 275.8578,-184.1429"/>
</a>
</g>
</g>
<!-- Window&#45;&gt;Shape -->
<g id="edge7" class="edge">
<title>Window&#45;&gt;Shape</title>
<path fill="none" stroke="#000000" d="M288.7188,-265.9917C290.1126,-259.3786 291.577,-252.4306 292.9692,-245.8254"/>
<text text-anchor="middle" x="288.9692" y="-249.6254" font-family="Times,serif" font-size="14.00" fill="#000000">*</text>
</g>
<!-- DrawingContext -->
<g id="node4" class="node">
<title>DrawingContext</title>
<g id="a_node4"><a xlink:href="#DrawingContext" xlink:title="&lt;TABLE&gt;">
<polygon fill="#f2f2f2" stroke="transparent" points="238.5617,-348.2008 238.5617,-405.2008 346.5617,-405.2008 346.5617,-348.2008 238.5617,-348.2008"/>
<polygon fill="none" stroke="#000000" points="238.5617,-375.7008 238.5617,-404.7008 346.5617,-404.7008 346.5617,-375.7008 238.5617,-375.7008"/>
<text text-anchor="start" x="245.5617" y="-386.5008" font-family="Times,serif" font-size="14.00" fill="#000000">DrawingContext</text>
<polygon fill="none" stroke="#000000" points="238.5617,-361.7008 238.5617,-375.7008 346.5617,-375.7008 346.5617,-361.7008 238.5617,-361.7008"/>
<polygon fill="none" stroke="#000000" points="238.5617,-347.7008 238.5617,-361.7008 346.5617,-361.7008 346.5617,-347.7008 238.5617,-347.7008"/>
</a>
</g>
</g>
<!-- Window&#45;&gt;DrawingContext -->
<g id="edge8" class="edge">
<title>Window&#45;&gt;DrawingContext</title>
<path fill="none" stroke="#000000" d="M286.291,-331.446C286.8679,-335.6097 287.4587,-339.8733 288.0359,-344.039"/>
</g>
<!-- ConsoleWindow -->
<g id="node5" class="node">
<title>ConsoleWindow</title>
<g id="a_node5"><a xlink:href="#ConsoleWindow" xlink:title="&lt;TABLE&gt;">
<polygon fill="#f2f2f2" stroke="transparent" points="381.3292,-283.9655 381.3292,-340.9655 490.3292,-340.9655 490.3292,-283.9655 381.3292,-283.9655"/>
<polygon fill="none" stroke="#000000" points="381.8292,-311.4655 381.8292,-340.4655 490.8292,-340.4655 490.8292,-311.4655 381.8292,-311.4655"/>
<text text-anchor="start" x="388.8292" y="-322.2655" font-family="Times,serif" font-size="14.00" fill="#000000">ConsoleWindow</text>
<polygon fill="none" stroke="#000000" points="381.8292,-297.4655 381.8292,-311.4655 490.8292,-311.4655 490.8292,-297.4655 381.8292,-297.4655"/>
<polygon fill="none" stroke="#000000" points="381.8292,-283.4655 381.8292,-297.4655 490.8292,-297.4655 490.8292,-283.4655 381.8292,-283.4655"/>
</a>
</g>
</g>
<!-- Window&#45;&gt;ConsoleWindow -->
<g id="edge2" class="edge">
<title>Window&#45;&gt;ConsoleWindow</title>
<path fill="none" stroke="#000000" d="M328.2627,-302.9958C342.4253,-304.2426 358.2318,-305.6342 373.2746,-306.9585"/>
<polygon fill="none" stroke="#000000" points="328.1273,-300.7002 321.4528,-302.3963 327.7282,-305.2326 328.1273,-300.7002"/>
</g>
<!-- DialogBox -->
<g id="node6" class="node">
<title>DialogBox</title>
<g id="a_node6"><a xlink:href="#DialogBox" xlink:title="&lt;TABLE&gt;">
<polygon fill="#f2f2f2" stroke="transparent" points="136.5692,-213.0325 136.5692,-270.0325 212.5692,-270.0325 212.5692,-213.0325 136.5692,-213.0325"/>
<polygon fill="none" stroke="#000000" points="136.5692,-240.5325 136.5692,-269.5325 212.5692,-269.5325 212.5692,-240.5325 136.5692,-240.5325"/>
<text text-anchor="start" x="143.5692" y="-251.3325" font-family="Times,serif" font-size="14.00" fill="#000000">DialogBox</text>
<polygon fill="none" stroke="#000000" points="136.5692,-226.5325 136.5692,-240.5325 212.5692,-240.5325 212.5692,-226.5325 136.5692,-226.5325"/>
<polygon fill="none" stroke="#000000" points="136.5692,-212.5325 136.5692,-226.5325 212.5692,-226.5325 212.5692,-212.5325 136.5692,-212.5325"/>
</a>
</g>
</g>
<!-- Window&#45;&gt;DialogBox -->
<g id="edge3" class="edge">
<title>Window&#45;&gt;DialogBox</title>
<path fill="none" stroke="#000000" d="M236.2581,-274.5433C231.1784,-271.825 225.9996,-269.0538 220.9098,-266.3301"/>
<polygon fill="none" stroke="#000000" points="235.3599,-276.6429 242.1644,-277.7038 237.5067,-272.6311 235.3599,-276.6429"/>
</g>
<!-- Circle -->
<g id="node9" class="node">
<title>Circle</title>
<g id="a_node9"><a xlink:href="#Circle" xlink:title="&lt;TABLE&gt;">
<polygon fill="#f2f2f2" stroke="transparent" points="335.8851,-81.0814 335.8851,-138.0814 384.8851,-138.0814 384.8851,-81.0814 335.8851,-81.0814"/>
<polygon fill="none" stroke="#000000" points="336.3851,-108.5814 336.3851,-137.5814 385.3851,-137.5814 385.3851,-108.5814 336.3851,-108.5814"/>
<text text-anchor="start" x="343.3851" y="-119.3814" font-family="Times,serif" font-size="14.00" fill="#000000">Circle</text>
<polygon fill="none" stroke="#000000" points="336.3851,-94.5814 336.3851,-108.5814 385.3851,-108.5814 385.3851,-94.5814 336.3851,-94.5814"/>
<polygon fill="none" stroke="#000000" points="336.3851,-80.5814 336.3851,-94.5814 385.3851,-94.5814 385.3851,-80.5814 336.3851,-80.5814"/>
</a>
</g>
</g>
<!-- Shape&#45;&gt;Circle -->
<g id="edge4" class="edge">
<title>Shape&#45;&gt;Circle</title>
<path fill="none" stroke="#000000" d="M322.4161,-174.5459C328.6486,-163.8822 335.3481,-152.4194 341.3584,-142.1357"/>
<polygon fill="none" stroke="#000000" points="320.3248,-173.6156 319.009,-180.3754 324.2531,-175.9115 320.3248,-173.6156"/>
</g>
<!-- Rectanble -->
<g id="node11" class="node">
<title>Rectanble</title>
<g id="a_node11"><a xlink:href="#Rectanble" xlink:title="&lt;TABLE&gt;">
<polygon fill="#f2f2f2" stroke="transparent" points="396.2347,-178.6544 396.2347,-235.6544 466.2347,-235.6544 466.2347,-178.6544 396.2347,-178.6544"/>
<polygon fill="none" stroke="#000000" points="396.2347,-206.1544 396.2347,-235.1544 466.2347,-235.1544 466.2347,-206.1544 396.2347,-206.1544"/>
<text text-anchor="start" x="403.2347" y="-216.9544" font-family="Times,serif" font-size="14.00" fill="#000000">Rectanble</text>
<polygon fill="none" stroke="#000000" points="396.2347,-192.1544 396.2347,-206.1544 466.2347,-206.1544 466.2347,-192.1544 396.2347,-192.1544"/>
<polygon fill="none" stroke="#000000" points="396.2347,-178.1544 396.2347,-192.1544 466.2347,-192.1544 466.2347,-178.1544 396.2347,-178.1544"/>
</a>
</g>
</g>
<!-- Shape&#45;&gt;Rectanble -->
<g id="edge5" class="edge">
<title>Shape&#45;&gt;Rectanble</title>
<path fill="none" stroke="#000000" d="M339.5205,-211.3349C354.8047,-210.6383 372.3312,-209.8394 387.9411,-209.1278"/>
<polygon fill="none" stroke="#000000" points="339.0605,-209.0785 332.6708,-211.6472 339.2677,-213.6237 339.0605,-209.0785"/>
</g>
<!-- Polygon -->
<g id="node12" class="node">
<title>Polygon</title>
<g id="a_node12"><a xlink:href="#Polygon" xlink:title="&lt;TABLE&gt;">
<polygon fill="#f2f2f2" stroke="transparent" points="159.0651,-114.9423 159.0651,-171.9423 220.0651,-171.9423 220.0651,-114.9423 159.0651,-114.9423"/>
<polygon fill="none" stroke="#000000" points="159.5651,-142.4423 159.5651,-171.4423 220.5651,-171.4423 220.5651,-142.4423 159.5651,-142.4423"/>
<text text-anchor="start" x="166.5651" y="-153.2423" font-family="Times,serif" font-size="14.00" fill="#000000">Polygon</text>
<polygon fill="none" stroke="#000000" points="159.5651,-128.4423 159.5651,-142.4423 220.5651,-142.4423 220.5651,-128.4423 159.5651,-128.4423"/>
<polygon fill="none" stroke="#000000" points="159.5651,-114.4423 159.5651,-128.4423 220.5651,-128.4423 220.5651,-114.4423 159.5651,-114.4423"/>
</a>
</g>
</g>
<!-- Shape&#45;&gt;Polygon -->
<g id="edge6" class="edge">
<title>Shape&#45;&gt;Polygon</title>
<path fill="none" stroke="#000000" d="M261.5298,-188.9211C250.761,-182.1157 239.0461,-174.7123 228.2564,-167.8936"/>
<polygon fill="none" stroke="#000000" points="260.3549,-190.8698 267.065,-192.4191 262.7856,-187.0235 260.3549,-190.8698"/>
</g>
<!-- DataController -->
<g id="node7" class="node">
<title>DataController</title>
<g id="a_node7"><a xlink:href="#DataController" xlink:title="&lt;TABLE&gt;">
<polygon fill="#f2f2f2" stroke="transparent" points="7.8773,-244.5243 7.8773,-301.5243 105.8773,-301.5243 105.8773,-244.5243 7.8773,-244.5243"/>
<polygon fill="none" stroke="#000000" points="7.8773,-272.0243 7.8773,-301.0243 105.8773,-301.0243 105.8773,-272.0243 7.8773,-272.0243"/>
<text text-anchor="start" x="14.8773" y="-282.8243" font-family="Times,serif" font-size="14.00" fill="#000000">DataController</text>
<polygon fill="none" stroke="#000000" points="7.8773,-258.0243 7.8773,-272.0243 105.8773,-272.0243 105.8773,-258.0243 7.8773,-258.0243"/>
<polygon fill="none" stroke="#000000" points="7.8773,-244.0243 7.8773,-258.0243 105.8773,-258.0243 105.8773,-244.0243 7.8773,-244.0243"/>
</a>
</g>
</g>
<!-- DialogBox&#45;&gt;DataController -->
<g id="edge9" class="edge">
<title>DialogBox&#45;&gt;DataController</title>
<path fill="none" stroke="#000000" d="M128.3921,-253.8885C123.6266,-255.1637 118.7447,-256.4699 113.8797,-257.7717"/>
</g>
<!-- Event -->
<g id="node8" class="node">
<title>Event</title>
<g id="a_node8"><a xlink:href="#Event" xlink:title="&lt;TABLE&gt;">
<polygon fill="#f2f2f2" stroke="transparent" points="79.7381,-112.1409 79.7381,-169.1409 126.7381,-169.1409 126.7381,-112.1409 79.7381,-112.1409"/>
<polygon fill="none" stroke="#000000" points="80.2381,-139.6409 80.2381,-168.6409 127.2381,-168.6409 127.2381,-139.6409 80.2381,-139.6409"/>
<text text-anchor="start" x="87.2381" y="-150.4409" font-family="Times,serif" font-size="14.00" fill="#000000">Event</text>
<polygon fill="none" stroke="#000000" points="80.2381,-125.6409 80.2381,-139.6409 127.2381,-139.6409 127.2381,-125.6409 80.2381,-125.6409"/>
<polygon fill="none" stroke="#000000" points="80.2381,-111.6409 80.2381,-125.6409 127.2381,-125.6409 127.2381,-111.6409 80.2381,-111.6409"/>
</a>
</g>
</g>
<!-- Point -->
<g id="node10" class="node">
<title>Point</title>
<g id="a_node10"><a xlink:href="#Point" xlink:title="&lt;TABLE&gt;">
<polygon fill="#f2f2f2" stroke="transparent" points="250.9809,-4.4401 250.9809,-61.4401 294.9809,-61.4401 294.9809,-4.4401 250.9809,-4.4401"/>
<polygon fill="none" stroke="#000000" points="250.9809,-31.9401 250.9809,-60.9401 294.9809,-60.9401 294.9809,-31.9401 250.9809,-31.9401"/>
<text text-anchor="start" x="257.9809" y="-42.7401" font-family="Times,serif" font-size="14.00" fill="#000000">Point</text>
<polygon fill="none" stroke="#000000" points="250.9809,-17.9401 250.9809,-31.9401 294.9809,-31.9401 294.9809,-17.9401 250.9809,-17.9401"/>
<polygon fill="none" stroke="#000000" points="250.9809,-3.9401 250.9809,-17.9401 294.9809,-17.9401 294.9809,-3.9401 250.9809,-3.9401"/>
</a>
</g>
</g>
<!-- Circle&#45;&gt;Point -->
<g id="edge10" class="edge">
<title>Circle&#45;&gt;Point</title>
<path fill="none" stroke="#000000" d="M327.839,-81.043C319.7821,-73.9782 311.183,-66.438 303.2403,-59.4734"/>
</g>
</g>
</svg>
