<?xml version="1.0" encoding="UTF-8" standalone="no"?>
<!DOCTYPE svg PUBLIC "-//W3C//DTD SVG 1.1//EN"
 "http://www.w3.org/Graphics/SVG/1.1/DTD/svg11.dtd">
<!-- Generated by graphviz version 2.40.1 (20161225.0304)
 -->
<!-- Title: G Pages: 1 -->
<svg width="1231pt" height="133pt"
 viewBox="0.00 0.00 1231.00 133.00" xmlns="http://www.w3.org/2000/svg" xmlns:xlink="http://www.w3.org/1999/xlink">
<g id="graph0" class="graph" transform="scale(1 1) rotate(0) translate(4 129)">
<title>G</title>
<polygon fill="#ffffff" stroke="transparent" points="-4,4 -4,-129 1227,-129 1227,4 -4,4"/>
<!-- Student -->
<g id="node1" class="node">
<title>Student</title>
<g id="a_node1"><a xlink:href="#Student" xlink:title="&lt;TABLE&gt;">
<polygon fill="#f2f2f2" stroke="transparent" points="8,-11.5 8,-113.5 145,-113.5 145,-11.5 8,-11.5"/>
<polygon fill="none" stroke="#000000" points="8.5,-84.5 8.5,-113.5 145.5,-113.5 145.5,-84.5 8.5,-84.5"/>
<text text-anchor="start" x="55.5" y="-95.3" font-family="Times,serif" font-size="14.00" fill="#000000">Student</text>
<polygon fill="none" stroke="#000000" points="8.5,-25.5 8.5,-84.5 145.5,-84.5 145.5,-25.5 8.5,-25.5"/>
<text text-anchor="start" x="15.5" y="-66.3" font-family="Times,serif" font-size="14.00" fill="#000000">+ student_id: int</text>
<text text-anchor="start" x="15.5" y="-51.3" font-family="Times,serif" font-size="14.00" fill="#000000">+ student_name: str</text>
<text text-anchor="start" x="15.5" y="-36.3" font-family="Times,serif" font-size="14.00" fill="#000000">+ student_address: int</text>
<polygon fill="none" stroke="#000000" points="8.5,-11.5 8.5,-25.5 145.5,-25.5 145.5,-11.5 8.5,-11.5"/>
</a>
</g>
</g>
<!-- Seat -->
<g id="node2" class="node">
<title>Seat</title>
<g id="a_node2"><a xlink:href="#Seat" xlink:title="&lt;TABLE&gt;">
<polygon fill="#f2f2f2" stroke="transparent" points="215,-19 215,-106 336,-106 336,-19 215,-19"/>
<polygon fill="none" stroke="#000000" points="215.5,-76.5 215.5,-105.5 336.5,-105.5 336.5,-76.5 215.5,-76.5"/>
<text text-anchor="start" x="263.5" y="-87.3" font-family="Times,serif" font-size="14.00" fill="#000000">Seat</text>
<polygon fill="none" stroke="#000000" points="215.5,-32.5 215.5,-76.5 336.5,-76.5 336.5,-32.5 215.5,-32.5"/>
<text text-anchor="start" x="222.5" y="-58.3" font-family="Times,serif" font-size="14.00" fill="#000000">+ seat_number: int</text>
<text text-anchor="start" x="222.5" y="-43.3" font-family="Times,serif" font-size="14.00" fill="#000000">+ seat_position: str</text>
<polygon fill="none" stroke="#000000" points="215.5,-18.5 215.5,-32.5 336.5,-32.5 336.5,-18.5 215.5,-18.5"/>
</a>
</g>
</g>
<!-- Student&#45;&gt;Seat -->
<g id="edge1" class="edge">
<title>Student&#45;&gt;Seat</title>
<path fill="none" stroke="#000000" d="M153.0684,-62.5C170.923,-62.5 188.7776,-62.5 206.6322,-62.5"/>
</g>
<!-- Cource -->
<g id="node3" class="node">
<title>Cource</title>
<g id="a_node3"><a xlink:href="#Cource" xlink:title="&lt;TABLE&gt;">
<polygon fill="#f2f2f2" stroke="transparent" points="370.5,-19 370.5,-106 508.5,-106 508.5,-19 370.5,-19"/>
<polygon fill="none" stroke="#000000" points="370.5,-76.5 370.5,-105.5 508.5,-105.5 508.5,-76.5 370.5,-76.5"/>
<text text-anchor="start" x="419" y="-87.3" font-family="Times,serif" font-size="14.00" fill="#000000">Cource</text>
<polygon fill="none" stroke="#000000" points="370.5,-32.5 370.5,-76.5 508.5,-76.5 508.5,-32.5 370.5,-32.5"/>
<text text-anchor="start" x="377.5" y="-58.3" font-family="Times,serif" font-size="14.00" fill="#000000">+ cource_name: str</text>
<text text-anchor="start" x="377.5" y="-43.3" font-family="Times,serif" font-size="14.00" fill="#000000">+ student_number: int</text>
<polygon fill="none" stroke="#000000" points="370.5,-18.5 370.5,-32.5 508.5,-32.5 508.5,-18.5 370.5,-18.5"/>
</a>
</g>
</g>
<!-- Instructor -->
<g id="node4" class="node">
<title>Instructor</title>
<g id="a_node4"><a xlink:href="#Instructor" xlink:title="&lt;TABLE&gt;">
<polygon fill="#f2f2f2" stroke="transparent" points="543,-11.5 543,-113.5 694,-113.5 694,-11.5 543,-11.5"/>
<polygon fill="none" stroke="#000000" points="543.5,-84.5 543.5,-113.5 694.5,-113.5 694.5,-84.5 543.5,-84.5"/>
<text text-anchor="start" x="591.5" y="-95.3" font-family="Times,serif" font-size="14.00" fill="#000000">Instructor</text>
<polygon fill="none" stroke="#000000" points="543.5,-25.5 543.5,-84.5 694.5,-84.5 694.5,-25.5 543.5,-25.5"/>
<text text-anchor="start" x="550.5" y="-66.3" font-family="Times,serif" font-size="14.00" fill="#000000">+ instructor_number: int</text>
<text text-anchor="start" x="550.5" y="-51.3" font-family="Times,serif" font-size="14.00" fill="#000000">+ instructor_name: str</text>
<text text-anchor="start" x="550.5" y="-36.3" font-family="Times,serif" font-size="14.00" fill="#000000">+ instructor_faculty: str</text>
<polygon fill="none" stroke="#000000" points="543.5,-11.5 543.5,-25.5 694.5,-25.5 694.5,-11.5 543.5,-11.5"/>
</a>
</g>
</g>
<!-- Class -->
<g id="node5" class="node">
<title>Class</title>
<g id="a_node5"><a xlink:href="#Class" xlink:title="&lt;TABLE&gt;">
<polygon fill="#f2f2f2" stroke="transparent" points="728,-4 728,-121 865,-121 865,-4 728,-4"/>
<polygon fill="none" stroke="#000000" points="728.5,-91.5 728.5,-120.5 865.5,-120.5 865.5,-91.5 728.5,-91.5"/>
<text text-anchor="start" x="781.5" y="-102.3" font-family="Times,serif" font-size="14.00" fill="#000000">Class</text>
<polygon fill="none" stroke="#000000" points="728.5,-17.5 728.5,-91.5 865.5,-91.5 865.5,-17.5 728.5,-17.5"/>
<text text-anchor="start" x="735.5" y="-73.3" font-family="Times,serif" font-size="14.00" fill="#000000">+ cource_name: str</text>
<text text-anchor="start" x="735.5" y="-58.3" font-family="Times,serif" font-size="14.00" fill="#000000">+ section_number: int</text>
<text text-anchor="start" x="735.5" y="-43.3" font-family="Times,serif" font-size="14.00" fill="#000000">+ num_registerd: str</text>
<text text-anchor="start" x="735.5" y="-28.3" font-family="Times,serif" font-size="14.00" fill="#000000">+ class_date_time: str</text>
<polygon fill="none" stroke="#000000" points="728.5,-3.5 728.5,-17.5 865.5,-17.5 865.5,-3.5 728.5,-3.5"/>
</a>
</g>
</g>
<!-- Section -->
<g id="node6" class="node">
<title>Section</title>
<g id="a_node6"><a xlink:href="#Section" xlink:title="&lt;TABLE&gt;">
<polygon fill="#f2f2f2" stroke="transparent" points="899,-26.5 899,-98.5 1036,-98.5 1036,-26.5 899,-26.5"/>
<polygon fill="none" stroke="#000000" points="899.5,-69.5 899.5,-98.5 1036.5,-98.5 1036.5,-69.5 899.5,-69.5"/>
<text text-anchor="start" x="947" y="-80.3" font-family="Times,serif" font-size="14.00" fill="#000000">Section</text>
<polygon fill="none" stroke="#000000" points="899.5,-40.5 899.5,-69.5 1036.5,-69.5 1036.5,-40.5 899.5,-40.5"/>
<text text-anchor="start" x="906.5" y="-51.3" font-family="Times,serif" font-size="14.00" fill="#000000">+ section_number: int</text>
<polygon fill="none" stroke="#000000" points="899.5,-26.5 899.5,-40.5 1036.5,-40.5 1036.5,-26.5 899.5,-26.5"/>
</a>
</g>
</g>
<!-- Professor -->
<g id="node7" class="node">
<title>Professor</title>
<g id="a_node7"><a xlink:href="#Professor" xlink:title="&lt;TABLE&gt;">
<polygon fill="#f2f2f2" stroke="transparent" points="1070,-11.5 1070,-113.5 1215,-113.5 1215,-11.5 1070,-11.5"/>
<polygon fill="none" stroke="#000000" points="1070.5,-84.5 1070.5,-113.5 1215.5,-113.5 1215.5,-84.5 1070.5,-84.5"/>
<text text-anchor="start" x="1116.5" y="-95.3" font-family="Times,serif" font-size="14.00" fill="#000000">Professor</text>
<polygon fill="none" stroke="#000000" points="1070.5,-25.5 1070.5,-84.5 1215.5,-84.5 1215.5,-25.5 1070.5,-25.5"/>
<text text-anchor="start" x="1077.5" y="-66.3" font-family="Times,serif" font-size="14.00" fill="#000000">+ professor_id: int</text>
<text text-anchor="start" x="1077.5" y="-51.3" font-family="Times,serif" font-size="14.00" fill="#000000">+ professor_name: str</text>
<text text-anchor="start" x="1077.5" y="-36.3" font-family="Times,serif" font-size="14.00" fill="#000000">+ professor_faculty: str</text>
<polygon fill="none" stroke="#000000" points="1070.5,-11.5 1070.5,-25.5 1215.5,-25.5 1215.5,-11.5 1070.5,-11.5"/>
</a>
</g>
</g>
</g>
</svg>
