<?xml version="1.0" encoding="utf-8" standalone="no"?>
<!DOCTYPE svg PUBLIC "-//W3C//DTD SVG 1.1//EN"
  "http://www.w3.org/Graphics/SVG/1.1/DTD/svg11.dtd">
<!-- Created with matplotlib (http://matplotlib.org/) -->
<svg height="345pt" version="1.1" viewBox="0 0 460 345" width="460pt" xmlns="http://www.w3.org/2000/svg" xmlns:xlink="http://www.w3.org/1999/xlink">
 <defs>
  <style type="text/css">
*{stroke-linecap:butt;stroke-linejoin:round;}
  </style>
 </defs>
 <g id="figure_1">
  <g id="patch_1">
   <path d="M 0 345.6 
L 460.8 345.6 
L 460.8 0 
L 0 0 
z
" style="fill:#ffffff;"/>
  </g>
  <g id="axes_1">
   <g id="line2d_1">
    <defs>
     <path d="M 0 3 
C 0.795609 3 1.55874 2.683901 2.12132 2.12132 
C 2.683901 1.55874 3 0.795609 3 0 
C 3 -0.795609 2.683901 -1.55874 2.12132 -2.12132 
C 1.55874 -2.683901 0.795609 -3 0 -3 
C -0.795609 -3 -1.55874 -2.683901 -2.12132 -2.12132 
C -2.683901 -1.55874 -3 -0.795609 -3 0 
C -3 0.795609 -2.683901 1.55874 -2.12132 2.12132 
C -1.55874 2.683901 -0.795609 3 0 3 
z
" id="m256b54b35b" style="stroke:#0000ff;"/>
    </defs>
    <g clip-path="url(#p3ecdba914c)">
     <use style="fill:#0000ff;stroke:#0000ff;" x="73.832727" xlink:href="#m256b54b35b" y="53.568"/>
     <use style="fill:#0000ff;stroke:#0000ff;" x="109.905455" xlink:href="#m256b54b35b" y="295.488"/>
     <use style="fill:#0000ff;stroke:#0000ff;" x="145.978182" xlink:href="#m256b54b35b" y="148.756103"/>
     <use style="fill:#0000ff;stroke:#0000ff;" x="182.050909" xlink:href="#m256b54b35b" y="237.753497"/>
     <use style="fill:#0000ff;stroke:#0000ff;" x="218.123636" xlink:href="#m256b54b35b" y="183.773849"/>
     <use style="fill:#0000ff;stroke:#0000ff;" x="254.196364" xlink:href="#m256b54b35b" y="216.514161"/>
     <use style="fill:#0000ff;stroke:#0000ff;" x="290.269091" xlink:href="#m256b54b35b" y="196.656158"/>
     <use style="fill:#0000ff;stroke:#0000ff;" x="326.341818" xlink:href="#m256b54b35b" y="208.700645"/>
     <use style="fill:#0000ff;stroke:#0000ff;" x="362.414545" xlink:href="#m256b54b35b" y="201.395294"/>
     <use style="fill:#0000ff;stroke:#0000ff;" x="398.487273" xlink:href="#m256b54b35b" y="205.826214"/>
    </g>
   </g>
  </g>
 </g>
 <defs>
  <clipPath id="p3ecdba914c">
   <rect height="266.112" width="357.12" x="57.6" y="41.472"/>
  </clipPath>
 </defs>
</svg>
