<?xml version="1.0" encoding="UTF-8" standalone="no"?>
<!DOCTYPE svg PUBLIC "-//W3C//DTD SVG 1.1//EN"
 "http://www.w3.org/Graphics/SVG/1.1/DTD/svg11.dtd">
<!-- Generated by graphviz version 2.39.20150211.0545 (20150211.0545)
 -->
<!-- Title: g Pages: 1 -->
<svg width="2176pt" height="548pt"
 viewBox="0.00 0.00 2176.28 548.00" xmlns="http://www.w3.org/2000/svg" xmlns:xlink="http://www.w3.org/1999/xlink">
<g id="graph0" class="graph" transform="scale(1 1) rotate(0) translate(4 544)">
<title>g</title>
<polygon fill="white" stroke="transparent" points="-4,4 -4,-544 2172.28,-544 2172.28,4 -4,4"/>
<!-- g0 -->
<g id="node1" class="node"><title>g0</title>
<ellipse fill="none" stroke="black" cx="719.742" cy="-234" rx="68.7879" ry="18"/>
<text text-anchor="middle" x="719.742" y="-230.3" font-family="Times,serif" font-size="14.00">click.formatting</text>
</g>
<!-- g1 -->
<g id="node2" class="node"><title>g1</title>
<ellipse fill="none" stroke="black" cx="719.742" cy="-162" rx="52.7911" ry="18"/>
<text text-anchor="middle" x="719.742" y="-158.3" font-family="Times,serif" font-size="14.00">click.parser</text>
</g>
<!-- g0&#45;&gt;g1 -->
<g id="edge1" class="edge"><title>g0&#45;&gt;g1</title>
<path fill="none" stroke="black" d="M719.742,-215.831C719.742,-208.131 719.742,-198.974 719.742,-190.417"/>
<polygon fill="black" stroke="black" points="723.242,-190.413 719.742,-180.413 716.242,-190.413 723.242,-190.413"/>
</g>
<!-- g2 -->
<g id="node3" class="node"><title>g2</title>
<ellipse fill="none" stroke="black" cx="578.742" cy="-378" rx="72.5877" ry="18"/>
<text text-anchor="middle" x="578.742" y="-374.3" font-family="Times,serif" font-size="14.00">dictknife.loading</text>
</g>
<!-- g3 -->
<g id="node4" class="node"><title>g3</title>
<ellipse fill="none" stroke="black" cx="87.7422" cy="-306" rx="87.9851" ry="18"/>
<text text-anchor="middle" x="87.7422" y="-302.3" font-family="Times,serif" font-size="14.00">dictknife.loading.env</text>
</g>
<!-- g2&#45;&gt;g3 -->
<g id="edge2" class="edge"><title>g2&#45;&gt;g3</title>
<path fill="none" stroke="black" d="M513.417,-370.007C435.145,-360.208 300.107,-342.599 184.742,-324 177.335,-322.806 169.623,-321.493 161.927,-320.138"/>
<polygon fill="black" stroke="black" points="162.305,-316.65 151.845,-318.338 161.074,-323.541 162.305,-316.65"/>
</g>
<!-- g4 -->
<g id="node5" class="node"><title>g4</title>
<ellipse fill="none" stroke="black" cx="281.742" cy="-306" rx="88.2844" ry="18"/>
<text text-anchor="middle" x="281.742" y="-302.3" font-family="Times,serif" font-size="14.00">dictknife.loading.raw</text>
</g>
<!-- g2&#45;&gt;g4 -->
<g id="edge3" class="edge"><title>g2&#45;&gt;g4</title>
<path fill="none" stroke="black" d="M526.669,-365.376C477.178,-353.378 402.514,-335.278 348.636,-322.217"/>
<polygon fill="black" stroke="black" points="349.371,-318.794 338.828,-319.839 347.722,-325.597 349.371,-318.794"/>
</g>
<!-- g5 -->
<g id="node6" class="node"><title>g5</title>
<ellipse fill="none" stroke="black" cx="478.742" cy="-306" rx="90.1842" ry="18"/>
<text text-anchor="middle" x="478.742" y="-302.3" font-family="Times,serif" font-size="14.00">dictknife.loading.json</text>
</g>
<!-- g2&#45;&gt;g5 -->
<g id="edge4" class="edge"><title>g2&#45;&gt;g5</title>
<path fill="none" stroke="black" d="M555.044,-360.937C541.911,-351.482 525.395,-339.59 511.09,-329.29"/>
<polygon fill="black" stroke="black" points="513.126,-326.443 502.965,-323.441 509.036,-332.124 513.126,-326.443"/>
</g>
<!-- g6 -->
<g id="node7" class="node"><title>g6</title>
<ellipse fill="none" stroke="black" cx="679.742" cy="-306" rx="92.8835" ry="18"/>
<text text-anchor="middle" x="679.742" y="-302.3" font-family="Times,serif" font-size="14.00">dictknife.loading.yaml</text>
</g>
<!-- g2&#45;&gt;g6 -->
<g id="edge5" class="edge"><title>g2&#45;&gt;g6</title>
<path fill="none" stroke="black" d="M602.678,-360.937C615.942,-351.482 632.623,-339.59 647.071,-329.29"/>
<polygon fill="black" stroke="black" points="649.166,-332.095 655.277,-323.441 645.102,-326.395 649.166,-332.095"/>
</g>
<!-- g7 -->
<g id="node8" class="node"><title>g7</title>
<ellipse fill="none" stroke="black" cx="882.742" cy="-306" rx="91.784" ry="18"/>
<text text-anchor="middle" x="882.742" y="-302.3" font-family="Times,serif" font-size="14.00">dictknife.loading.toml</text>
</g>
<!-- g2&#45;&gt;g7 -->
<g id="edge6" class="edge"><title>g2&#45;&gt;g7</title>
<path fill="none" stroke="black" d="M631.348,-365.541C682.007,-353.543 758.896,-335.332 814.298,-322.21"/>
<polygon fill="black" stroke="black" points="815.111,-325.615 824.035,-319.904 813.498,-318.803 815.111,-325.615"/>
</g>
<!-- g29 -->
<g id="node30" class="node"><title>g29</title>
<ellipse fill="none" stroke="black" cx="478.742" cy="-234" rx="118.879" ry="18"/>
<text text-anchor="middle" x="478.742" y="-230.3" font-family="Times,serif" font-size="14.00">dictknife.loading._lazyimport</text>
</g>
<!-- g5&#45;&gt;g29 -->
<g id="edge23" class="edge"><title>g5&#45;&gt;g29</title>
<path fill="none" stroke="black" d="M478.742,-287.831C478.742,-280.131 478.742,-270.974 478.742,-262.417"/>
<polygon fill="black" stroke="black" points="482.242,-262.413 478.742,-252.413 475.242,-262.413 482.242,-262.413"/>
</g>
<!-- g8 -->
<g id="node9" class="node"><title>g8</title>
<ellipse fill="none" stroke="black" cx="388.742" cy="-162" rx="27" ry="18"/>
<text text-anchor="middle" x="388.742" y="-158.3" font-family="Times,serif" font-size="14.00">json</text>
</g>
<!-- g9 -->
<g id="node10" class="node"><title>g9</title>
<ellipse fill="none" stroke="black" cx="322.742" cy="-90" rx="57.3905" ry="18"/>
<text text-anchor="middle" x="322.742" y="-86.3" font-family="Times,serif" font-size="14.00">json.decoder</text>
</g>
<!-- g8&#45;&gt;g9 -->
<g id="edge7" class="edge"><title>g8&#45;&gt;g9</title>
<path fill="none" stroke="black" d="M374.421,-146.377C366.022,-137.215 355.217,-125.427 345.659,-115"/>
<polygon fill="black" stroke="black" points="347.992,-112.365 338.655,-107.359 342.832,-117.096 347.992,-112.365"/>
</g>
<!-- g10 -->
<g id="node11" class="node"><title>g10</title>
<ellipse fill="none" stroke="black" cx="454.742" cy="-90" rx="57.3905" ry="18"/>
<text text-anchor="middle" x="454.742" y="-86.3" font-family="Times,serif" font-size="14.00">json.encoder</text>
</g>
<!-- g8&#45;&gt;g10 -->
<g id="edge8" class="edge"><title>g8&#45;&gt;g10</title>
<path fill="none" stroke="black" d="M403.063,-146.377C411.462,-137.215 422.268,-125.427 431.825,-115"/>
<polygon fill="black" stroke="black" points="434.653,-117.096 438.83,-107.359 429.493,-112.365 434.653,-117.096"/>
</g>
<!-- g40 -->
<g id="node41" class="node"><title>g40</title>
<ellipse fill="none" stroke="black" cx="322.742" cy="-18" rx="55.7903" ry="18"/>
<text text-anchor="middle" x="322.742" y="-14.3" font-family="Times,serif" font-size="14.00">json.scanner</text>
</g>
<!-- g9&#45;&gt;g40 -->
<g id="edge38" class="edge"><title>g9&#45;&gt;g40</title>
<path fill="none" stroke="black" d="M322.742,-71.8314C322.742,-64.131 322.742,-54.9743 322.742,-46.4166"/>
<polygon fill="black" stroke="black" points="326.242,-46.4132 322.742,-36.4133 319.242,-46.4133 326.242,-46.4132"/>
</g>
<!-- g11 -->
<g id="node12" class="node"><title>g11</title>
<ellipse fill="none" stroke="black" cx="1602.74" cy="-522" rx="146.774" ry="18"/>
<text text-anchor="middle" x="1602.74" y="-518.3" font-family="Times,serif" font-size="14.00">~/vboxshare/venvs/my3/bin/dictknife</text>
</g>
<!-- g12 -->
<g id="node13" class="node"><title>g12</title>
<ellipse fill="none" stroke="black" cx="1038.74" cy="-450" rx="119.679" ry="18"/>
<text text-anchor="middle" x="1038.74" y="-446.3" font-family="Times,serif" font-size="14.00">dictknife.commands.dictknife</text>
</g>
<!-- g11&#45;&gt;g12 -->
<g id="edge9" class="edge"><title>g11&#45;&gt;g12</title>
<path fill="none" stroke="black" d="M1500.93,-509.003C1398.68,-495.949 1242.04,-475.952 1139.98,-462.925"/>
<polygon fill="black" stroke="black" points="1140.34,-459.441 1129.97,-461.647 1139.45,-466.385 1140.34,-459.441"/>
</g>
<!-- g13 -->
<g id="node14" class="node"><title>g13</title>
<ellipse fill="none" stroke="black" cx="1602.74" cy="-450" rx="42.7926" ry="18"/>
<text text-anchor="middle" x="1602.74" y="-446.3" font-family="Times,serif" font-size="14.00">dictknife</text>
</g>
<!-- g11&#45;&gt;g13 -->
<g id="edge10" class="edge"><title>g11&#45;&gt;g13</title>
<path fill="none" stroke="black" d="M1602.74,-503.831C1602.74,-496.131 1602.74,-486.974 1602.74,-478.417"/>
<polygon fill="black" stroke="black" points="1606.24,-478.413 1602.74,-468.413 1599.24,-478.413 1606.24,-478.413"/>
</g>
<!-- g14 -->
<g id="node15" class="node"><title>g14</title>
<ellipse fill="none" stroke="black" cx="1747.74" cy="-450" rx="84.485" ry="18"/>
<text text-anchor="middle" x="1747.74" y="-446.3" font-family="Times,serif" font-size="14.00">dictknife.commands</text>
</g>
<!-- g11&#45;&gt;g14 -->
<g id="edge11" class="edge"><title>g11&#45;&gt;g14</title>
<path fill="none" stroke="black" d="M1638.21,-504.387C1658.37,-494.378 1683.75,-481.776 1705,-471.224"/>
<polygon fill="black" stroke="black" points="1706.73,-474.272 1714.13,-466.689 1703.62,-468.002 1706.73,-474.272"/>
</g>
<!-- g12&#45;&gt;g2 -->
<g id="edge35" class="edge"><title>g12&#45;&gt;g2</title>
<path fill="none" stroke="black" d="M955.706,-437.003C868.633,-423.374 733.206,-402.177 650.582,-389.244"/>
<polygon fill="black" stroke="black" points="650.947,-385.759 640.526,-387.67 649.864,-392.675 650.947,-385.759"/>
</g>
<!-- g18 -->
<g id="node19" class="node"><title>g18</title>
<ellipse fill="none" stroke="black" cx="1038.74" cy="-378" rx="28.6953" ry="18"/>
<text text-anchor="middle" x="1038.74" y="-374.3" font-family="Times,serif" font-size="14.00">click</text>
</g>
<!-- g12&#45;&gt;g18 -->
<g id="edge36" class="edge"><title>g12&#45;&gt;g18</title>
<path fill="none" stroke="black" d="M1038.74,-431.831C1038.74,-424.131 1038.74,-414.974 1038.74,-406.417"/>
<polygon fill="black" stroke="black" points="1042.24,-406.413 1038.74,-396.413 1035.24,-406.413 1042.24,-406.413"/>
</g>
<!-- g15 -->
<g id="node16" class="node"><title>g15</title>
<ellipse fill="none" stroke="black" cx="1290.74" cy="-378" rx="73.387" ry="18"/>
<text text-anchor="middle" x="1290.74" y="-374.3" font-family="Times,serif" font-size="14.00">dictknife.walkers</text>
</g>
<!-- g13&#45;&gt;g15 -->
<g id="edge31" class="edge"><title>g13&#45;&gt;g15</title>
<path fill="none" stroke="black" d="M1565.11,-441.315C1512.88,-429.262 1417.7,-407.299 1354.34,-392.675"/>
<polygon fill="black" stroke="black" points="1354.98,-389.232 1344.45,-390.394 1353.41,-396.053 1354.98,-389.232"/>
</g>
<!-- g23 -->
<g id="node24" class="node"><title>g23</title>
<ellipse fill="none" stroke="black" cx="1440.74" cy="-378" rx="58.4896" ry="18"/>
<text text-anchor="middle" x="1440.74" y="-374.3" font-family="Times,serif" font-size="14.00">dictknife.diff</text>
</g>
<!-- g13&#45;&gt;g23 -->
<g id="edge33" class="edge"><title>g13&#45;&gt;g23</title>
<path fill="none" stroke="black" d="M1573.03,-436.794C1547.92,-425.633 1511.63,-409.506 1483.41,-396.965"/>
<polygon fill="black" stroke="black" points="1484.74,-393.724 1474.18,-392.861 1481.9,-400.121 1484.74,-393.724"/>
</g>
<!-- g32 -->
<g id="node33" class="node"><title>g32</title>
<ellipse fill="none" stroke="black" cx="1602.74" cy="-378" rx="85.2851" ry="18"/>
<text text-anchor="middle" x="1602.74" y="-374.3" font-family="Times,serif" font-size="14.00">dictknife.deepmerge</text>
</g>
<!-- g13&#45;&gt;g32 -->
<g id="edge28" class="edge"><title>g13&#45;&gt;g32</title>
<path fill="none" stroke="black" d="M1602.74,-431.831C1602.74,-424.131 1602.74,-414.974 1602.74,-406.417"/>
<polygon fill="black" stroke="black" points="1606.24,-406.413 1602.74,-396.413 1599.24,-406.413 1606.24,-406.413"/>
</g>
<!-- g34 -->
<g id="node35" class="node"><title>g34</title>
<ellipse fill="none" stroke="black" cx="1781.74" cy="-378" rx="76.0865" ry="18"/>
<text text-anchor="middle" x="1781.74" y="-374.3" font-family="Times,serif" font-size="14.00">dictknife.accessor</text>
</g>
<!-- g13&#45;&gt;g34 -->
<g id="edge29" class="edge"><title>g13&#45;&gt;g34</title>
<path fill="none" stroke="black" d="M1633.92,-437.459C1661.43,-426.395 1701.95,-410.096 1733.61,-397.36"/>
<polygon fill="black" stroke="black" points="1735.16,-400.511 1743.13,-393.532 1732.55,-394.016 1735.16,-400.511"/>
</g>
<!-- g35 -->
<g id="node36" class="node"><title>g35</title>
<ellipse fill="none" stroke="black" cx="1930.74" cy="-378" rx="54.6905" ry="18"/>
<text text-anchor="middle" x="1930.74" y="-374.3" font-family="Times,serif" font-size="14.00">dictknife.pp</text>
</g>
<!-- g13&#45;&gt;g35 -->
<g id="edge30" class="edge"><title>g13&#45;&gt;g35</title>
<path fill="none" stroke="black" d="M1634.95,-437.929C1641.44,-435.757 1648.26,-433.659 1654.74,-432 1747.33,-408.288 1773.5,-416.967 1866.74,-396 1871.1,-395.019 1875.61,-393.923 1880.12,-392.769"/>
<polygon fill="black" stroke="black" points="1881.16,-396.113 1889.94,-390.172 1879.37,-389.346 1881.16,-396.113"/>
</g>
<!-- g36 -->
<g id="node37" class="node"><title>g36</title>
<ellipse fill="none" stroke="black" cx="2085.74" cy="-378" rx="82.5854" ry="18"/>
<text text-anchor="middle" x="2085.74" y="-374.3" font-family="Times,serif" font-size="14.00">dictknife.deepequal</text>
</g>
<!-- g13&#45;&gt;g36 -->
<g id="edge32" class="edge"><title>g13&#45;&gt;g36</title>
<path fill="none" stroke="black" d="M1634.31,-437.79C1640.98,-435.576 1648.03,-433.497 1654.74,-432 1803.06,-398.933 1844.5,-418.766 1994.74,-396 2001.75,-394.938 2009.03,-393.71 2016.3,-392.403"/>
<polygon fill="black" stroke="black" points="2016.96,-395.84 2026.16,-390.582 2015.69,-388.957 2016.96,-395.84"/>
</g>
<!-- g16 -->
<g id="node17" class="node"><title>g16</title>
<ellipse fill="none" stroke="black" cx="1181.74" cy="-306" rx="79.0865" ry="18"/>
<text text-anchor="middle" x="1181.74" y="-302.3" font-family="Times,serif" font-size="14.00">dictknife.operators</text>
</g>
<!-- g15&#45;&gt;g16 -->
<g id="edge12" class="edge"><title>g15&#45;&gt;g16</title>
<path fill="none" stroke="black" d="M1265.19,-361.119C1250.53,-351.44 1231.95,-339.163 1216.04,-328.653"/>
<polygon fill="black" stroke="black" points="1217.79,-325.616 1207.52,-323.025 1213.93,-331.457 1217.79,-325.616"/>
</g>
<!-- g17 -->
<g id="node18" class="node"><title>g17</title>
<ellipse fill="none" stroke="black" cx="1354.74" cy="-306" rx="75.2868" ry="18"/>
<text text-anchor="middle" x="1354.74" y="-302.3" font-family="Times,serif" font-size="14.00">dictknife.contexts</text>
</g>
<!-- g15&#45;&gt;g17 -->
<g id="edge13" class="edge"><title>g15&#45;&gt;g17</title>
<path fill="none" stroke="black" d="M1306.56,-360.202C1314.25,-351.548 1323.64,-340.99 1332.08,-331.499"/>
<polygon fill="black" stroke="black" points="1334.85,-333.642 1338.88,-323.843 1329.62,-328.991 1334.85,-333.642"/>
</g>
<!-- g19 -->
<g id="node20" class="node"><title>g19</title>
<ellipse fill="none" stroke="black" cx="1038.74" cy="-306" rx="46.2923" ry="18"/>
<text text-anchor="middle" x="1038.74" y="-302.3" font-family="Times,serif" font-size="14.00">click.core</text>
</g>
<!-- g18&#45;&gt;g19 -->
<g id="edge14" class="edge"><title>g18&#45;&gt;g19</title>
<path fill="none" stroke="black" d="M1038.74,-359.831C1038.74,-352.131 1038.74,-342.974 1038.74,-334.417"/>
<polygon fill="black" stroke="black" points="1042.24,-334.413 1038.74,-324.413 1035.24,-334.413 1042.24,-334.413"/>
</g>
<!-- g19&#45;&gt;g0 -->
<g id="edge18" class="edge"><title>g19&#45;&gt;g0</title>
<path fill="none" stroke="black" d="M1004.32,-294.004C997.541,-291.85 990.453,-289.74 983.742,-288 902.237,-266.864 880.111,-269.469 797.742,-252 792.304,-250.847 786.661,-249.614 781.01,-248.356"/>
<polygon fill="black" stroke="black" points="781.396,-244.855 770.872,-246.073 779.859,-251.684 781.396,-244.855"/>
</g>
<!-- g25 -->
<g id="node26" class="node"><title>g25</title>
<ellipse fill="none" stroke="black" cx="875.742" cy="-234" rx="68.7879" ry="18"/>
<text text-anchor="middle" x="875.742" y="-230.3" font-family="Times,serif" font-size="14.00">click.decorators</text>
</g>
<!-- g19&#45;&gt;g25 -->
<g id="edge19" class="edge"><title>g19&#45;&gt;g25</title>
<path fill="none" stroke="black" d="M1008.08,-292.457C983.417,-281.562 948.407,-266.097 920.591,-253.811"/>
<polygon fill="black" stroke="black" points="921.643,-250.449 911.081,-249.61 918.814,-256.852 921.643,-250.449"/>
</g>
<!-- g26 -->
<g id="node27" class="node"><title>g26</title>
<ellipse fill="none" stroke="black" cx="1038.74" cy="-234" rx="76.0865" ry="18"/>
<text text-anchor="middle" x="1038.74" y="-230.3" font-family="Times,serif" font-size="14.00">click._unicodefun</text>
</g>
<!-- g19&#45;&gt;g26 -->
<g id="edge20" class="edge"><title>g19&#45;&gt;g26</title>
<path fill="none" stroke="black" d="M1038.74,-287.831C1038.74,-280.131 1038.74,-270.974 1038.74,-262.417"/>
<polygon fill="black" stroke="black" points="1042.24,-262.413 1038.74,-252.413 1035.24,-262.413 1042.24,-262.413"/>
</g>
<!-- g27 -->
<g id="node28" class="node"><title>g27</title>
<ellipse fill="none" stroke="black" cx="1187.74" cy="-234" rx="54.6905" ry="18"/>
<text text-anchor="middle" x="1187.74" y="-230.3" font-family="Times,serif" font-size="14.00">click.termui</text>
</g>
<!-- g19&#45;&gt;g27 -->
<g id="edge21" class="edge"><title>g19&#45;&gt;g27</title>
<path fill="none" stroke="black" d="M1067.82,-291.947C1090.58,-280.951 1122.47,-265.539 1147.65,-253.373"/>
<polygon fill="black" stroke="black" points="1149.46,-256.388 1156.94,-248.885 1146.41,-250.085 1149.46,-256.388"/>
</g>
<!-- g28 -->
<g id="node29" class="node"><title>g28</title>
<ellipse fill="none" stroke="black" cx="1310.74" cy="-234" rx="50.0912" ry="18"/>
<text text-anchor="middle" x="1310.74" y="-230.3" font-family="Times,serif" font-size="14.00">click.types</text>
</g>
<!-- g19&#45;&gt;g28 -->
<g id="edge22" class="edge"><title>g19&#45;&gt;g28</title>
<path fill="none" stroke="black" d="M1073.51,-294.085C1080.19,-291.948 1087.16,-289.823 1093.74,-288 1163.15,-268.779 1182.14,-270.52 1251.74,-252 1255.53,-250.991 1259.45,-249.902 1263.37,-248.777"/>
<polygon fill="black" stroke="black" points="1264.48,-252.101 1273.09,-245.93 1262.51,-245.384 1264.48,-252.101"/>
</g>
<!-- g20 -->
<g id="node21" class="node"><title>g20</title>
<ellipse fill="none" stroke="black" cx="1308.74" cy="-162" rx="69.5877" ry="18"/>
<text text-anchor="middle" x="1308.74" y="-158.3" font-family="Times,serif" font-size="14.00">click.exceptions</text>
</g>
<!-- g21 -->
<g id="node22" class="node"><title>g21</title>
<ellipse fill="none" stroke="black" cx="1308.74" cy="-90" rx="46.2923" ry="18"/>
<text text-anchor="middle" x="1308.74" y="-86.3" font-family="Times,serif" font-size="14.00">click.utils</text>
</g>
<!-- g20&#45;&gt;g21 -->
<g id="edge15" class="edge"><title>g20&#45;&gt;g21</title>
<path fill="none" stroke="black" d="M1308.74,-143.831C1308.74,-136.131 1308.74,-126.974 1308.74,-118.417"/>
<polygon fill="black" stroke="black" points="1312.24,-118.413 1308.74,-108.413 1305.24,-118.413 1312.24,-118.413"/>
</g>
<!-- g22 -->
<g id="node23" class="node"><title>g22</title>
<ellipse fill="none" stroke="black" cx="1308.74" cy="-18" rx="57.3905" ry="18"/>
<text text-anchor="middle" x="1308.74" y="-14.3" font-family="Times,serif" font-size="14.00">click.globals</text>
</g>
<!-- g21&#45;&gt;g22 -->
<g id="edge16" class="edge"><title>g21&#45;&gt;g22</title>
<path fill="none" stroke="black" d="M1308.74,-71.8314C1308.74,-64.131 1308.74,-54.9743 1308.74,-46.4166"/>
<polygon fill="black" stroke="black" points="1312.24,-46.4132 1308.74,-36.4133 1305.24,-46.4133 1312.24,-46.4132"/>
</g>
<!-- g24 -->
<g id="node25" class="node"><title>g24</title>
<ellipse fill="none" stroke="black" cx="1481.74" cy="-306" rx="33.2948" ry="18"/>
<text text-anchor="middle" x="1481.74" y="-302.3" font-family="Times,serif" font-size="14.00">difflib</text>
</g>
<!-- g23&#45;&gt;g24 -->
<g id="edge17" class="edge"><title>g23&#45;&gt;g24</title>
<path fill="none" stroke="black" d="M1450.88,-360.202C1455.68,-351.77 1461.51,-341.529 1466.81,-332.229"/>
<polygon fill="black" stroke="black" points="1469.96,-333.766 1471.87,-323.345 1463.88,-330.302 1469.96,-333.766"/>
</g>
<!-- g30 -->
<g id="node31" class="node"><title>g30</title>
<ellipse fill="none" stroke="black" cx="875.742" cy="-162" rx="36.2938" ry="18"/>
<text text-anchor="middle" x="875.742" y="-158.3" font-family="Times,serif" font-size="14.00">inspect</text>
</g>
<!-- g25&#45;&gt;g30 -->
<g id="edge24" class="edge"><title>g25&#45;&gt;g30</title>
<path fill="none" stroke="black" d="M875.742,-215.831C875.742,-208.131 875.742,-198.974 875.742,-190.417"/>
<polygon fill="black" stroke="black" points="879.242,-190.413 875.742,-180.413 872.242,-190.413 879.242,-190.413"/>
</g>
<!-- g39 -->
<g id="node40" class="node"><title>g39</title>
<ellipse fill="none" stroke="black" cx="1038.74" cy="-162" rx="32.4942" ry="18"/>
<text text-anchor="middle" x="1038.74" y="-158.3" font-family="Times,serif" font-size="14.00">locale</text>
</g>
<!-- g26&#45;&gt;g39 -->
<g id="edge37" class="edge"><title>g26&#45;&gt;g39</title>
<path fill="none" stroke="black" d="M1038.74,-215.831C1038.74,-208.131 1038.74,-198.974 1038.74,-190.417"/>
<polygon fill="black" stroke="black" points="1042.24,-190.413 1038.74,-180.413 1035.24,-190.413 1042.24,-190.413"/>
</g>
<!-- g41 -->
<g id="node42" class="node"><title>g41</title>
<ellipse fill="none" stroke="black" cx="1187.74" cy="-162" rx="31.3957" ry="18"/>
<text text-anchor="middle" x="1187.74" y="-158.3" font-family="Times,serif" font-size="14.00">struct</text>
</g>
<!-- g27&#45;&gt;g41 -->
<g id="edge39" class="edge"><title>g27&#45;&gt;g41</title>
<path fill="none" stroke="black" d="M1187.74,-215.831C1187.74,-208.131 1187.74,-198.974 1187.74,-190.417"/>
<polygon fill="black" stroke="black" points="1191.24,-190.413 1187.74,-180.413 1184.24,-190.413 1191.24,-190.413"/>
</g>
<!-- g28&#45;&gt;g20 -->
<g id="edge25" class="edge"><title>g28&#45;&gt;g20</title>
<path fill="none" stroke="black" d="M1310.24,-215.831C1310.02,-208.131 1309.77,-198.974 1309.53,-190.417"/>
<polygon fill="black" stroke="black" points="1313.03,-190.312 1309.25,-180.413 1306.03,-190.507 1313.03,-190.312"/>
</g>
<!-- g31 -->
<g id="node32" class="node"><title>g31</title>
<ellipse fill="none" stroke="black" cx="1457.74" cy="-162" rx="61.99" ry="18"/>
<text text-anchor="middle" x="1457.74" y="-158.3" font-family="Times,serif" font-size="14.00">click._compat</text>
</g>
<!-- g28&#45;&gt;g31 -->
<g id="edge26" class="edge"><title>g28&#45;&gt;g31</title>
<path fill="none" stroke="black" d="M1340.49,-219.43C1362.41,-208.692 1392.5,-193.955 1416.71,-182.099"/>
<polygon fill="black" stroke="black" points="1418.56,-185.087 1426,-177.545 1415.48,-178.801 1418.56,-185.087"/>
</g>
<!-- g29&#45;&gt;g8 -->
<g id="edge43" class="edge"><title>g29&#45;&gt;g8</title>
<path fill="none" stroke="black" d="M456.495,-216.202C443.649,-205.926 427.446,-192.963 414.107,-182.292"/>
<polygon fill="black" stroke="black" points="416.222,-179.502 406.227,-175.988 411.849,-184.968 416.222,-179.502"/>
</g>
<!-- g44 -->
<g id="node45" class="node"><title>g44</title>
<ellipse fill="none" stroke="black" cx="520.742" cy="-162" rx="87.1846" ry="18"/>
<text text-anchor="middle" x="520.742" y="-158.3" font-family="Times,serif" font-size="14.00">dictknife.langhelpers</text>
</g>
<!-- g29&#45;&gt;g44 -->
<g id="edge44" class="edge"><title>g29&#45;&gt;g44</title>
<path fill="none" stroke="black" d="M489.341,-215.831C494.152,-207.583 499.938,-197.664 505.226,-188.599"/>
<polygon fill="black" stroke="black" points="508.277,-190.315 510.293,-179.913 502.231,-186.788 508.277,-190.315"/>
</g>
<!-- g37 -->
<g id="node38" class="node"><title>g37</title>
<ellipse fill="none" stroke="black" cx="803.742" cy="-90" rx="27" ry="18"/>
<text text-anchor="middle" x="803.742" y="-86.3" font-family="Times,serif" font-size="14.00">dis</text>
</g>
<!-- g30&#45;&gt;g37 -->
<g id="edge41" class="edge"><title>g30&#45;&gt;g37</title>
<path fill="none" stroke="black" d="M859.404,-145.662C849.561,-135.819 836.888,-123.146 826.122,-112.379"/>
<polygon fill="black" stroke="black" points="828.577,-109.885 819.031,-105.289 823.627,-114.835 828.577,-109.885"/>
</g>
<!-- g42 -->
<g id="node43" class="node"><title>g42</title>
<ellipse fill="none" stroke="black" cx="875.742" cy="-90" rx="27" ry="18"/>
<text text-anchor="middle" x="875.742" y="-86.3" font-family="Times,serif" font-size="14.00">ast</text>
</g>
<!-- g30&#45;&gt;g42 -->
<g id="edge40" class="edge"><title>g30&#45;&gt;g42</title>
<path fill="none" stroke="black" d="M875.742,-143.831C875.742,-136.131 875.742,-126.974 875.742,-118.417"/>
<polygon fill="black" stroke="black" points="879.242,-118.413 875.742,-108.413 872.242,-118.413 879.242,-118.413"/>
</g>
<!-- g43 -->
<g id="node44" class="node"><title>g43</title>
<ellipse fill="none" stroke="black" cx="951.742" cy="-90" rx="31.3957" ry="18"/>
<text text-anchor="middle" x="951.742" y="-86.3" font-family="Times,serif" font-size="14.00">enum</text>
</g>
<!-- g30&#45;&gt;g43 -->
<g id="edge42" class="edge"><title>g30&#45;&gt;g43</title>
<path fill="none" stroke="black" d="M892.609,-146.021C902.984,-136.192 916.441,-123.443 927.896,-112.591"/>
<polygon fill="black" stroke="black" points="930.592,-114.859 935.444,-105.44 925.777,-109.777 930.592,-114.859"/>
</g>
<!-- g33 -->
<g id="node34" class="node"><title>g33</title>
<ellipse fill="none" stroke="black" cx="1602.74" cy="-306" rx="28.6953" ry="18"/>
<text text-anchor="middle" x="1602.74" y="-302.3" font-family="Times,serif" font-size="14.00">copy</text>
</g>
<!-- g32&#45;&gt;g33 -->
<g id="edge27" class="edge"><title>g32&#45;&gt;g33</title>
<path fill="none" stroke="black" d="M1602.74,-359.831C1602.74,-352.131 1602.74,-342.974 1602.74,-334.417"/>
<polygon fill="black" stroke="black" points="1606.24,-334.413 1602.74,-324.413 1599.24,-334.413 1606.24,-334.413"/>
</g>
<!-- g38 -->
<g id="node39" class="node"><title>g38</title>
<ellipse fill="none" stroke="black" cx="803.742" cy="-18" rx="37.0935" ry="18"/>
<text text-anchor="middle" x="803.742" y="-14.3" font-family="Times,serif" font-size="14.00">opcode</text>
</g>
<!-- g37&#45;&gt;g38 -->
<g id="edge34" class="edge"><title>g37&#45;&gt;g38</title>
<path fill="none" stroke="black" d="M803.742,-71.8314C803.742,-64.131 803.742,-54.9743 803.742,-46.4166"/>
<polygon fill="black" stroke="black" points="807.242,-46.4132 803.742,-36.4133 800.242,-46.4133 807.242,-46.4132"/>
</g>
</g>
</svg>
