<?xml version="1.0" encoding="UTF-8" standalone="no"?>
<!DOCTYPE svg PUBLIC "-//W3C//DTD SVG 1.1//EN"
 "http://www.w3.org/Graphics/SVG/1.1/DTD/svg11.dtd">
<!-- Generated by graphviz version 2.40.1 (0)
 -->
<!-- Title: %3 Pages: 1 -->
<svg width="314pt" height="44pt"
 viewBox="0.00 0.00 314.00 44.00" xmlns="http://www.w3.org/2000/svg" xmlns:xlink="http://www.w3.org/1999/xlink">
<g id="graph0" class="graph" transform="scale(1 1) rotate(0) translate(4 40)">
<title>%3</title>
<polygon fill="#ffffff" stroke="transparent" points="-4,4 -4,-40 310,-40 310,4 -4,4"/>
<!-- x -->
<g id="node1" class="node">
<title>x</title>
<polygon fill="none" stroke="#000000" points="54,-36 0,-36 0,0 54,0 54,-36"/>
<text text-anchor="middle" x="27" y="-14.3" font-family="Times,serif" font-size="14.00" fill="#000000">x</text>
</g>
<!-- y -->
<g id="node2" class="node">
<title>y</title>
<polygon fill="none" stroke="#000000" points="180,-36 126,-36 126,0 180,0 180,-36"/>
<text text-anchor="middle" x="153" y="-14.3" font-family="Times,serif" font-size="14.00" fill="#000000">y</text>
</g>
<!-- x&#45;&gt;y -->
<g id="edge1" class="edge">
<title>x&#45;&gt;y</title>
<path fill="none" stroke="#000000" d="M54.0302,-18C71.9281,-18 95.6509,-18 115.3839,-18"/>
<polygon fill="#000000" stroke="#000000" points="115.5798,-21.5001 125.5798,-18 115.5797,-14.5001 115.5798,-21.5001"/>
</g>
<!-- z -->
<g id="node3" class="node">
<title>z</title>
<polygon fill="none" stroke="#000000" points="306,-36 252,-36 252,0 306,0 306,-36"/>
<text text-anchor="middle" x="279" y="-14.3" font-family="Times,serif" font-size="14.00" fill="#000000">z</text>
</g>
<!-- y&#45;&gt;z -->
<g id="edge2" class="edge">
<title>y&#45;&gt;z</title>
<path fill="none" stroke="#000000" d="M180.0302,-18C197.9281,-18 221.6509,-18 241.3839,-18"/>
<polygon fill="#000000" stroke="#000000" points="241.5798,-21.5001 251.5798,-18 241.5797,-14.5001 241.5798,-21.5001"/>
</g>
</g>
</svg>
