<?xml version="1.0" encoding="UTF-8" standalone="no"?>
<!DOCTYPE svg PUBLIC "-//W3C//DTD SVG 1.1//EN"
 "http://www.w3.org/Graphics/SVG/1.1/DTD/svg11.dtd">
<!-- Generated by graphviz version 2.43.0 (0)
 -->
<!-- Title: Web Service Pages: 1 -->
<svg width="699pt" height="448pt"
 viewBox="0.00 0.00 699.00 448.00" xmlns="http://www.w3.org/2000/svg" xmlns:xlink="http://www.w3.org/1999/xlink">
<g id="graph0" class="graph" transform="scale(1 1) rotate(0) translate(144 304)">
<title>Web Service</title>
<polygon fill="white" stroke="transparent" points="-144,144 -144,-304 555,-304 555,144 -144,144"/>
<text text-anchor="middle" x="205.5" y="-7" font-family="Sans-Serif" font-size="15.00" fill="#2d3436">Web Service</text>
<!-- 0a33e72b5003d217d3910fa64247c61c -->
<g id="node1" class="node">
<title>0a33e72b5003d217d3910fa64247c61c</title>
<image xlink:href="/usr/local/lib/python3.7/site-packages/resources/aws/network/elastic-load-balancing.png" width="101px" height="101px" preserveAspectRatio="xMinYMin meet" x="0" y="-142"/>
<text text-anchor="middle" x="50.5" y="-25.6" font-family="Sans-Serif" font-size="13.00" fill="#2d3436">lb</text>
</g>
<!-- 5bacb752c708b255f470e390aa9debe4 -->
<g id="node2" class="node">
<title>5bacb752c708b255f470e390aa9debe4</title>
<image xlink:href="/usr/local/lib/python3.7/site-packages/resources/aws/compute/ec2.png" width="101px" height="101px" preserveAspectRatio="xMinYMin meet" x="155" y="-142"/>
<text text-anchor="middle" x="205.5" y="-25.6" font-family="Sans-Serif" font-size="13.00" fill="#2d3436">web</text>
</g>
<!-- 0a33e72b5003d217d3910fa64247c61c&#45;&gt;5bacb752c708b255f470e390aa9debe4 -->
<g id="edge1" class="edge">
<title>0a33e72b5003d217d3910fa64247c61c&#45;&gt;5bacb752c708b255f470e390aa9debe4</title>
<path fill="none" stroke="black" d="M101.25,-91.5C101.25,-91.5 144.9,-91.5 144.9,-91.5"/>
<polygon fill="black" stroke="black" points="144.9,-95 154.9,-91.5 144.9,-88 144.9,-95"/>
</g>
<!-- 69eddad3bbce902336d503c20c38f22b -->
<g id="node3" class="node">
<title>69eddad3bbce902336d503c20c38f22b</title>
<image xlink:href="/usr/local/lib/python3.7/site-packages/resources/aws/database/rds.png" width="101px" height="101px" preserveAspectRatio="xMinYMin meet" x="310" y="-142"/>
<text text-anchor="middle" x="360.5" y="-25.6" font-family="Sans-Serif" font-size="13.00" fill="#2d3436">userdb</text>
</g>
<!-- 5bacb752c708b255f470e390aa9debe4&#45;&gt;69eddad3bbce902336d503c20c38f22b -->
<g id="edge2" class="edge">
<title>5bacb752c708b255f470e390aa9debe4&#45;&gt;69eddad3bbce902336d503c20c38f22b</title>
<path fill="none" stroke="black" d="M256.25,-91.5C256.25,-91.5 299.9,-91.5 299.9,-91.5"/>
<polygon fill="black" stroke="black" points="299.9,-95 309.9,-91.5 299.9,-88 299.9,-95"/>
</g>
</g>
</svg>
